SplineFontDB: 3.2
FontName: ShaimusClean-Regular
FullName: Shaimus Clean Regular
FamilyName: Shaimus Clean
Weight: Book
Copyright: Pavel Larin
Version: 1.000
ItalicAngle: 0
UnderlinePosition: -100
UnderlineWidth: 50
Ascent: 800
Descent: 200
InvalidEm: 0
sfntRevision: 0x00010000
LayerCount: 2
Layer: 0 1 "Back" 1
Layer: 1 1 "Fore" 0
XUID: [1021 867 -1752634913 1118]
StyleMap: 0x0040
FSType: 8
OS2Version: 3
OS2_WeightWidthSlopeOnly: 0
OS2_UseTypoMetrics: 0
CreationTime: 1542369783
ModificationTime: 1742948767
PfmFamily: 81
TTFWeight: 400
TTFWidth: 5
LineGap: 0
VLineGap: 0
Panose: 0 0 5 0 0 0 0 0 0 0
OS2TypoAscent: 1100
OS2TypoAOffset: 0
OS2TypoDescent: -300
OS2TypoDOffset: 0
OS2TypoLinegap: 0
OS2WinAscent: 1100
OS2WinAOffset: 0
OS2WinDescent: 300
OS2WinDOffset: 0
HheadAscent: 1100
HheadAOffset: 0
HheadDescent: -300
HheadDOffset: 0
OS2SubXSize: 650
OS2SubYSize: 600
OS2SubXOff: 0
OS2SubYOff: 75
OS2SupXSize: 650
OS2SupYSize: 600
OS2SupXOff: 0
OS2SupYOff: 350
OS2StrikeYSize: 50
OS2StrikeYPos: 300
OS2CapHeight: 700
OS2XHeight: 500
OS2Vendor: 'UKWN'
OS2CodePages: 00000001.00000000
OS2UnicodeRanges: 00000001.00000000.00000000.00000000
Lookup: 258 8 0 "'kern' Horizontal Kerning lookup 0" { "'kern' Horizontal Kerning lookup 0 subtable"  } ['kern' ('DFLT' <'dflt' > ) ]
DEI: 91125
TtTable: prep
SVTCA[y-axis]
MPPEM
PUSHW_1
 200
GT
IF
PUSHB_2
 1
 1
INSTCTRL
EIF
PUSHB_1
 1
PUSHW_2
 2048
 2048
MUL
WCVTF
PUSHB_2
 0
 7
WS
PUSHB_3
 25
 1
 0
LOOPCALL
PUSHB_2
 0
 7
WS
PUSHB_4
 12
 8
 1
 8
LOOPCALL
PUSHB_2
 0
 7
WS
PUSHB_4
 22
 6
 1
 8
LOOPCALL
PUSHB_2
 0
 8
WS
PUSHW_3
 832
 1
 9
LOOPCALL
PUSHB_2
 0
 9
WS
PUSHW_3
 64
 1
 9
LOOPCALL
PUSHB_2
 3
 0
WCVTP
PUSHB_2
 36
 1
GETINFO
LTEQ
IF
PUSHB_1
 64
GETINFO
IF
PUSHB_2
 3
 100
WCVTP
PUSHB_2
 38
 1
GETINFO
LTEQ
IF
PUSHW_3
 2176
 1
 1088
GETINFO
MUL
EQ
IF
PUSHB_2
 3
 0
WCVTP
EIF
EIF
EIF
EIF
PUSHB_4
 14
 8
 1
 12
LOOPCALL
PUSHW_1
 511
SCANCTRL
PUSHB_1
 4
SCANTYPE
PUSHB_2
 2
 0
WCVTP
PUSHB_4
 5
 100
 6
 0
WCVTP
WCVTP
EndTTInstrs
TtTable: fpgm

StartChar: .notdef
Encoding: 65536 -1 0
Width: 700
GlyphClass: 1
Flags: W
LayerCount: 2
Fore
SplineSet
599 1125 m 1
 599 -325 l 1
 105 -325 l 1
 105 1125 l 1
 599 1125 l 1
349 705 m 1
 349 801 l 1
 259 801 l 1
 259 705 l 1
 349 705 l 1
351 803 m 1
 351 703 l 1
 326 703 l 1
 280 703 l 1
 255 703 l 1
 255 803 l 1
 280 803 l 1
 326 803 l 1
 351 803 l 1
441 12 m 1
 441 120 l 1
 259 120 l 1
 259 12 l 1
 441 12 l 1
445 124 m 1
 445 8 l 1
 255 8 l 1
 255 124 l 1
 445 124 l 1
EndSplineSet
EndChar

StartChar: A
Encoding: 65 65 2
Width: 581
GlyphClass: 1
Flags: W
LayerCount: 2
Fore
SplineSet
56.3173828125 13.771484375 m 0,0,1
 43.529296875 26.5947265625 43.529296875 26.5947265625 43.529296875 42.8916015625 c 0,2,3
 43.529296875 47.10546875 43.529296875 47.10546875 44.3603515625 51.4638671875 c 2,4,5
 98.4609375 358.3671875 98.4609375 358.3671875 152.5625 666.237304688 c 1,6,7
 156.926757812 680.458007812 156.926757812 680.458007812 169.196996228 689.880859375 c 0,8,9
 183.209412523 700 183.209412523 700 203.881773399 700 c 2,10,-1
 375.871921182 700 l 2,11,12
 396.544282058 700 396.544282058 700 410.556698353 689.880859375 c 0,13,14
 423.073242188 680.458007812 423.073242188 680.458007812 427.432617188 666.25390625 c 1,15,16
 482.034179688 358.383789062 482.034179688 358.383789062 536.63671875 51.482421875 c 2,17,18
 537.470703125 47.1142578125 537.470703125 47.1142578125 537.470703125 42.8916015625 c 0,19,20
 537.470703125 26.5947265625 537.470703125 26.5947265625 524.682617188 13.771484375 c 0,21,22
 511.895507812 0 511.895507812 0 491 0 c 2,23,-1
 417 0 l 2,24,25
 397.161349292 0 397.161349292 0 381.526545182 10.2646484375 c 0,26,27
 365.890523976 18.6240234375 365.890523976 18.6240234375 362.620189347 31.78125 c 2,28,-1
 336.45872941 120 l 1,29,-1
 242.442998576 120 l 1,30,-1
 218.076753964 30.66796875 l 1,31,32
 212.697193465 18.36328125 212.697193465 18.36328125 198.684777171 10.119140625 c 0,33,34
 184.672360876 0 184.672360876 0 164 0 c 2,35,-1
 90 0 l 2,36,37
 69.1044921875 0 69.1044921875 0 56.3173828125 13.771484375 c 0,0,1
301.825070236 283 m 1,38,-1
 289.487376847 343.662109375 l 1,39,-1
 276.834455819 283 l 1,40,-1
 301.825070236 283 l 1,38,-1
EndSplineSet
EndChar

StartChar: B
Encoding: 66 66 3
Width: 590
GlyphClass: 1
Flags: W
LayerCount: 2
Fore
SplineSet
83.326171875 13.326171875 m 0,0,1
 70 25.73046875 70 25.73046875 70 42.810546875 c 2,2,3
 70 350 70 350 70 657.189453125 c 2,4,5
 70 674.26953125 70 674.26953125 83.326171875 686.673828125 c 0,6,7
 96.6513671875 700 96.6513671875 700 115 700 c 2,8,-1
 284 700 l 2,9,10
 386.888234992 700 386.888234992 700 439.669921875 670.693359375 c 0,11,12
 483.28125 641.38671875 483.28125 641.38671875 504.140625 595.609375 c 128,-1,13
 525 549.831054688 525 549.831054688 525 501.303710938 c 128,-1,14
 525 452.77734375 525 452.77734375 507.181640625 411.720703125 c 0,15,16
 494.747070312 383.069335938 494.747070312 383.069335938 473.912109375 362.755859375 c 1,17,18
 497.106445312 337.4453125 497.106445312 337.4453125 511.024414062 301.444335938 c 0,19,20
 530 252.360351562 530 252.360351562 530 200.018554688 c 128,-1,21
 530 147.677734375 530 147.677734375 510.889648438 102.561523438 c 128,-1,22
 491.778320312 57.4453125 491.778320312 57.4453125 452.889648438 28.72265625 c 128,-1,23
 414 0 414 0 327.105263158 0 c 2,24,-1
 115 0 l 2,25,26
 96.6513671875 0 96.6513671875 0 83.326171875 13.326171875 c 0,0,1
234 432 m 1,27,-1
 269 432 l 2,28,29
 283.686523438 432 283.686523438 432 303.462453742 446.555664062 c 0,30,31
 328.763157895 464.985351562 328.763157895 464.985351562 328.763157895 491.82421875 c 128,-1,32
 328.763157895 518.663085938 328.763157895 518.663085938 310.412983141 530.739257812 c 0,33,34
 296.343544408 540 296.343544408 540 273 540 c 2,35,-1
 234 540 l 1,36,-1
 234 432 l 1,27,-1
234 163 m 1,37,-1
 279 163 l 2,38,39
 299.952379729 163 299.952379729 163 312.488589638 172.194335938 c 0,40,41
 330.421052632 185.345703125 330.421052632 185.345703125 330.421052632 205.961914062 c 0,42,43
 330.421052632 235.685546875 330.421052632 235.685546875 308.032997533 255.919921875 c 0,44,45
 299.029528166 264.057617188 299.029528166 264.057617188 287.024362664 267.028320312 c 0,46,47
 278.583984375 270 278.583984375 270 269 270 c 2,48,-1
 234 270 l 1,49,-1
 234 163 l 1,37,-1
EndSplineSet
EndChar

StartChar: C
Encoding: 67 67 4
Width: 574
GlyphClass: 1
Flags: W
LayerCount: 2
Fore
SplineSet
70 185.552734375 m 1,0,1
 70 347.717773438 70 347.717773438 70 511.466796875 c 2,2,3
 70 572.936523438 70 572.936523438 98.5 617.616210938 c 128,-1,4
 127.024414062 662.331054688 127.024414062 662.331054688 172.329101562 685.340820312 c 0,5,6
 226.101778182 710 226.101778182 710 291.903061331 710 c 0,7,8
 403.116084332 710 403.116084332 710 459.720703125 655.116210938 c 128,-1,9
 516.319335938 600.232421875 516.319335938 600.232421875 522.998046875 497.827148438 c 1,10,11
 522.998046875 472.413085938 522.998046875 472.413085938 522.998046875 497 c 1,12,13
 522.998046875 471 522.998046875 471 522.998046875 495 c 2,14,15
 522.998046875 475.008789062 522.998046875 475.008789062 509.357421875 462.504882812 c 128,-1,16
 495.715820312 450 495.715820312 450 477.998046875 450 c 2,17,-1
 405.998046875 450 l 2,18,19
 382.902609927 450 382.902609927 450 366.876513103 462.266601562 c 128,-1,20
 350.850416278 474.533203125 350.850416278 474.533203125 348.220865641 492.647460938 c 0,21,22
 345.325935803 521.8203125 345.325935803 521.8203125 333.728354389 535.41015625 c 128,-1,23
 322.132048837 549 322.132048837 549 298.435472424 549 c 0,24,25
 280.662721149 549 280.662721149 549 265.663692866 535.575195312 c 0,26,27
 247.482665897 519.3046875 247.482665897 519.3046875 247.482665897 488.572265625 c 2,28,29
 247.482665897 349.555664062 247.482665897 349.555664062 247.482665897 210.552734375 c 2,30,31
 248.28773453 162.305664062 248.28773453 162.305664062 277.429688003 152.909179688 c 0,32,33
 286.453856687 150 286.453856687 150 299.741954643 150 c 0,34,35
 320.358601294 150 320.358601294 150 332.796975464 160.7109375 c 128,-1,36
 345.235349633 171.421875 345.235349633 171.421875 348.242555287 197.504882812 c 0,37,38
 350.850416278 215.466796875 350.850416278 215.466796875 366.876513103 227.735351562 c 128,-1,39
 382.902609927 240.004882812 382.902609927 240.004882812 405.998046875 240.004882812 c 2,40,41
 442.108398438 264.501953125 442.108398438 264.501953125 478.21875 238.999023438 c 2,42,43
 499.583984375 238.881835938 499.583984375 238.881835938 513.010742188 220.978515625 c 0,44,45
 523.141601562 207.470703125 523.141601562 207.470703125 523.141601562 189.346679688 c 0,46,47
 523.141601562 186.459960938 523.141601562 186.459960938 522.881835938 183.576171875 c 0,48,49
 513.966796875 91.0751953125 513.966796875 91.0751953125 457.899414062 39.5849609375 c 0,50,51
 401.296705773 -12 401.296705773 -12 291.549647684 -12 c 0,52,53
 183.724609375 -12 183.724609375 -12 127.416015625 40.005859375 c 128,-1,54
 71.1142578125 92.0048828125 71.1142578125 92.0048828125 70 185.552734375 c 1,0,1
EndSplineSet
EndChar

StartChar: D
Encoding: 68 68 5
Width: 573
GlyphClass: 1
Flags: W
LayerCount: 2
Fore
SplineSet
83.326171875 13.326171875 m 0,0,1
 70 25.73046875 70 25.73046875 70 42.810546875 c 2,2,3
 70 350 70 350 70 657.189453125 c 2,4,5
 70 674.26953125 70 674.26953125 83.326171875 686.673828125 c 0,6,7
 96.6513671875 700 96.6513671875 700 115 700 c 2,8,-1
 310 700 l 2,9,10
 415.614257812 700 415.614257812 700 451.799804688 640.024414062 c 0,11,12
 482.893554688 588.486328125 482.893554688 588.486328125 497.946289062 508.064453125 c 128,-1,13
 513 427.641601562 513 427.641601562 513 340.663085938 c 128,-1,14
 513 253.684570312 513 253.684570312 498.94921875 178.885742188 c 128,-1,15
 484.8984375 104.086914062 484.8984375 104.086914062 456.34765625 56.3232421875 c 0,16,17
 422.680664062 -0 422.680664062 -0 335.151515152 -0 c 2,18,-1
 115 -0 l 2,19,20
 96.6513671875 -0 96.6513671875 -0 83.326171875 13.326171875 c 0,0,1
233 537 m 1,21,22
 233 350.5 233 350.5 233 164 c 1,23,-1
 271.784179688 164 l 1,24,25
 279.58984375 174.721679688 279.58984375 174.721679688 285.936523438 204.274414062 c 0,26,27
 298 260.439453125 298 260.439453125 298 342.54296875 c 128,-1,28
 298 424.646484375 298 424.646484375 283.954101562 488.708007812 c 0,29,30
 275.803710938 525.883789062 275.803710938 525.883789062 265.8515625 537 c 1,31,-1
 233 537 l 1,21,22
EndSplineSet
EndChar

StartChar: E
Encoding: 69 69 6
Width: 467
GlyphClass: 1
Flags: W
LayerCount: 2
Fore
SplineSet
83.326171875 13.326171875 m 0,0,1
 70 25.73046875 70 25.73046875 70 42.810546875 c 2,2,3
 70 350 70 350 70 657.189453125 c 2,4,5
 70 674.26953125 70 674.26953125 83.326171875 686.673828125 c 0,6,7
 96.6513671875 700 96.6513671875 700 115 700 c 2,8,-1
 352 700 l 2,9,10
 370.348632812 700 370.348632812 700 383.673828125 686.673828125 c 128,-1,11
 397 673.348632812 397 673.348632812 397 655 c 2,12,13
 397 593 397 593 397 581 c 2,14,15
 397 562.651367188 397 562.651367188 383.673828125 549.326171875 c 128,-1,16
 370.348632812 536 370.348632812 536 352 536 c 2,17,-1
 234 536 l 1,18,-1
 234 429 l 1,19,-1
 289 429 l 2,20,21
 307.348632812 429 307.348632812 429 320.673828125 415.673828125 c 128,-1,22
 334 402.348632812 334 402.348632812 334 384 c 2,23,-1
 334 309 l 2,24,25
 334 290.651367188 334 290.651367188 320.673828125 277.326171875 c 128,-1,26
 307.348632812 264 307.348632812 264 289 264 c 2,27,-1
 234 264 l 1,28,-1
 234 164 l 1,29,-1
 352 164 l 2,30,31
 370.348632812 164 370.348632812 164 383.673828125 150.673828125 c 128,-1,32
 397 137.348632812 397 137.348632812 397 119 c 2,33,34
 397 107 397 107 397 45 c 2,35,36
 397 26.6513671875 397 26.6513671875 383.673828125 13.326171875 c 128,-1,37
 370.348632812 0 370.348632812 0 352 0 c 2,38,-1
 115 0 l 2,39,40
 96.6513671875 0 96.6513671875 0 83.326171875 13.326171875 c 0,0,1
EndSplineSet
EndChar

StartChar: F
Encoding: 70 70 7
Width: 497
GlyphClass: 1
Flags: W
LayerCount: 2
Fore
SplineSet
83.326171875 13.326171875 m 0,0,1
 70 25.73046875 70 25.73046875 70 42.810546875 c 2,2,3
 70 350 70 350 70 657.189453125 c 2,4,5
 70 674.26953125 70 674.26953125 83.326171875 686.673828125 c 0,6,7
 96.6513671875 700 96.6513671875 700 115 700 c 2,8,-1
 402 700 l 2,9,10
 420.348632812 700 420.348632812 700 433.673828125 686.673828125 c 128,-1,11
 447 673.348632812 447 673.348632812 447 655 c 2,12,13
 447 593 447 593 447 581 c 2,14,15
 447 562.651367188 447 562.651367188 433.673828125 549.326171875 c 128,-1,16
 420.348632812 536 420.348632812 536 402 536 c 2,17,-1
 259.568181818 536 l 1,18,-1
 259.568181818 429 l 1,19,-1
 339 429 l 2,20,21
 357.348632812 429 357.348632812 429 370.673828125 415.673828125 c 128,-1,22
 384 402.348632812 384 402.348632812 384 384 c 2,23,-1
 384 309 l 2,24,25
 384 290.651367188 384 290.651367188 370.673828125 277.326171875 c 128,-1,26
 357.348632812 264 357.348632812 264 339 264 c 2,27,-1
 259.568181818 264 l 1,28,-1
 259.568181818 42.1279296875 l 2,29,30
 259.568181818 25.443359375 259.568181818 25.443359375 238.670321378 13.326171875 c 0,31,32
 217.773992365 0 217.773992365 0 189 0 c 2,33,-1
 115 0 l 2,34,35
 96.6513671875 0 96.6513671875 0 83.326171875 13.326171875 c 0,0,1
EndSplineSet
EndChar

StartChar: G
Encoding: 71 71 8
Width: 594
GlyphClass: 1
Flags: W
LayerCount: 2
Fore
SplineSet
70 185.552734375 m 1,0,1
 70 347.717773438 70 347.717773438 70 511.466796875 c 2,2,3
 70 572.936523438 70 572.936523438 98.5 617.616210938 c 128,-1,4
 127.024414062 662.331054688 127.024414062 662.331054688 172.329101562 685.340820312 c 0,5,6
 226.05755079 710 226.05755079 710 291.77822242 710 c 0,7,8
 402.855001107 710 402.855001107 710 459.720703125 655.116210938 c 0,9,10
 516.319335938 600.232421875 516.319335938 600.232421875 522.998046875 497.827148438 c 1,11,12
 522.998046875 472.413085938 522.998046875 472.413085938 522.998046875 497 c 1,13,14
 522.998046875 471 522.998046875 471 522.998046875 495 c 2,15,16
 522.998046875 475.008789062 522.998046875 475.008789062 509.357421875 462.504882812 c 128,-1,17
 495.715820312 450 495.715820312 450 477.998046875 450 c 2,18,-1
 405.998046875 450 l 2,19,20
 382.666289728 450 382.666289728 450 366.659826077 462.266601562 c 128,-1,21
 350.653362426 474.533203125 350.653362426 474.533203125 348.027033186 492.647460938 c 0,22,23
 345.135649854 521.8203125 345.135649854 521.8203125 333.55227635 535.41015625 c 128,-1,24
 321.970177144 549 321.970177144 549 298.302630819 549 c 0,25,26
 280.5516525 549 280.5516525 549 265.570999154 535.575195312 c 0,27,28
 247.41224531 519.3046875 247.41224531 519.3046875 247.41224531 488.572265625 c 2,29,30
 247.41224531 349.555664062 247.41224531 349.555664062 247.41224531 210.552734375 c 2,31,32
 248.216327673 162.305664062 248.216327673 162.305664062 277.322580062 152.909179688 c 0,33,34
 286.335693461 150 286.335693461 150 299.607512498 150 c 0,35,36
 323.017650524 150 323.017650524 150 334.139727966 162.252929688 c 0,37,38
 349.116558416 178.750976562 349.116558416 178.750976562 349.193016327 214.666015625 c 1,39,40
 348.975111281 245.866210938 348.975111281 245.866210938 348.755931937 227.065429688 c 1,41,42
 326.534714426 228.016601562 326.534714426 228.016601562 309.809546412 240.833984375 c 128,-1,43
 293.0831041 253.651367188 293.0831041 253.651367188 293.0831041 272 c 2,44,45
 293.0831041 333.5 293.0831041 333.5 293.0831041 345 c 2,46,47
 293.0831041 363.348632812 293.0831041 363.348632812 310.47218164 376.673828125 c 128,-1,48
 327.861259181 390 327.861259181 390 351.802779687 390 c 2,49,-1
 478.998046875 390 l 2,50,51
 497.346679688 390 497.346679688 390 510.672851562 376.673828125 c 128,-1,52
 523.998046875 363.348632812 523.998046875 363.348632812 523.998046875 345 c 2,53,54
 523.998046875 303.3671875 523.998046875 303.3671875 523.998046875 211.734375 c 1,55,56
 522.89453125 105.758789062 522.89453125 105.758789062 465.729492188 46.8798828125 c 128,-1,57
 408.564453125 -12 408.564453125 -12 295.884012237 -12 c 0,58,59
 183.724609375 -12 183.724609375 -12 127.416015625 40.005859375 c 128,-1,60
 71.1142578125 92.0048828125 71.1142578125 92.0048828125 70 185.552734375 c 1,0,1
EndSplineSet
EndChar

StartChar: H
Encoding: 72 72 9
Width: 598
GlyphClass: 1
Flags: W
LayerCount: 2
Fore
SplineSet
83.326171875 13.326171875 m 0,0,1
 70 25.73046875 70 25.73046875 70 42.810546875 c 2,2,3
 70 350 70 350 70 657.189453125 c 2,4,5
 70 674.26953125 70 674.26953125 83.326171875 686.673828125 c 0,6,7
 96.6513671875 700 96.6513671875 700 115 700 c 2,8,-1
 189 700 l 2,9,10
 212.777222402 700 212.777222402 700 230.044783192 686.673828125 c 0,11,12
 247.313609467 674.522460938 247.313609467 674.522460938 247.313609467 657.791015625 c 2,13,-1
 247.313609467 428 l 1,14,-1
 349.686390533 428 l 1,15,-1
 349.686390533 657.791015625 l 2,16,17
 349.686390533 674.522460938 349.686390533 674.522460938 366.955216808 686.673828125 c 0,18,19
 384.222777598 700 384.222777598 700 408 700 c 2,20,-1
 483 700 l 2,21,22
 501.348632812 700 501.348632812 700 514.673828125 686.673828125 c 0,23,24
 528 674.26953125 528 674.26953125 528 657.189453125 c 2,25,26
 528 350 528 350 528 42.810546875 c 2,27,28
 528 25.73046875 528 25.73046875 514.673828125 13.326171875 c 0,29,30
 501.348632812 0 501.348632812 0 483 0 c 2,31,-1
 408 0 l 2,32,33
 384.222777598 0 384.222777598 0 366.955216808 13.326171875 c 0,34,35
 349.686390533 25.447265625 349.686390533 25.447265625 349.686390533 42.1376953125 c 2,36,-1
 349.686390533 265 l 1,37,-1
 247.313609467 265 l 1,38,-1
 247.313609467 42.1376953125 l 2,39,40
 247.313609467 25.447265625 247.313609467 25.447265625 230.044783192 13.326171875 c 0,41,42
 212.777222402 0 212.777222402 0 189 0 c 2,43,-1
 115 0 l 2,44,45
 96.6513671875 0 96.6513671875 0 83.326171875 13.326171875 c 0,0,1
EndSplineSet
EndChar

StartChar: I
Encoding: 73 73 10
Width: 304
GlyphClass: 1
Flags: W
LayerCount: 2
Fore
SplineSet
83.326171875 13.326171875 m 0,0,1
 70 25.73046875 70 25.73046875 70 42.810546875 c 2,2,3
 70 350 70 350 70 657.189453125 c 2,4,5
 70 674.26953125 70 674.26953125 83.326171875 686.673828125 c 0,6,7
 96.6513671875 700 96.6513671875 700 115 700 c 2,8,-1
 189 700 l 2,9,10
 207.348632812 700 207.348632812 700 220.673828125 686.673828125 c 0,11,12
 234 674.26953125 234 674.26953125 234 657.189453125 c 2,13,14
 234 350 234 350 234 42.810546875 c 2,15,16
 234 25.73046875 234 25.73046875 220.673828125 13.326171875 c 0,17,18
 207.348632812 0 207.348632812 0 189 0 c 2,19,-1
 115 0 l 2,20,21
 96.6513671875 0 96.6513671875 0 83.326171875 13.326171875 c 0,0,1
EndSplineSet
EndChar

StartChar: J
Encoding: 74 74 11
Width: 418
GlyphClass: 1
Flags: W
LayerCount: 2
Fore
SplineSet
63.326171875 12.326171875 m 0,0,1
 50 24.7314453125 50 24.7314453125 50 42.744140625 c 2,2,3
 50 95.12109375 50 95.12109375 50 109.774414062 c 2,4,5
 50 126.856445312 50 126.856445312 63.326171875 139.262695312 c 128,-1,6
 76.5263671875 151.551757812 76.5263671875 151.551757812 95.703125 151.666992188 c 0,7,8
 171.44921875 153.052734375 171.44921875 153.052734375 178.838867188 173.161132812 c 0,9,10
 184 187.206054688 184 187.206054688 184 219.62890625 c 2,11,12
 184 432.270507812 184 432.270507812 184 657.186523438 c 2,13,14
 184 674.268554688 184 674.268554688 197.326171875 686.673828125 c 0,15,16
 210.651367188 700 210.651367188 700 229 700 c 2,17,-1
 303 700 l 2,18,19
 321.348632812 700 321.348632812 700 334.673828125 686.673828125 c 0,20,21
 348 674.251953125 348 674.251953125 348 657.146484375 c 2,22,23
 348 447.697265625 348 447.697265625 348 253.49609375 c 2,24,25
 348 167.280273438 348 167.280273438 333.059570312 118.037109375 c 0,26,27
 316.329101562 62.8916015625 316.329101562 62.8916015625 259.138671875 31.5634765625 c 0,28,29
 205.143554688 1.984375 205.143554688 1.984375 97.7548828125 -0.9892578125 c 2,30,31
 97.56640625 24.005859375 97.56640625 24.005859375 97.3779296875 -1 c 2,32,33
 76.6513671875 -1 76.6513671875 -1 63.326171875 12.326171875 c 0,0,1
EndSplineSet
EndChar

StartChar: K
Encoding: 75 75 12
Width: 597
GlyphClass: 1
Flags: W
LayerCount: 2
Fore
SplineSet
83.326171875 13.326171875 m 0,0,1
 70 25.73046875 70 25.73046875 70 42.810546875 c 2,2,3
 70 350 70 350 70 657.189453125 c 2,4,5
 70 674.26953125 70 674.26953125 83.326171875 686.673828125 c 0,6,7
 96.6513671875 700 96.6513671875 700 115 700 c 2,8,-1
 189 700 l 2,9,10
 212.977047786 700 212.977047786 700 230.389726323 686.673828125 c 128,-1,11
 247.803680982 673.348632812 247.803680982 673.348632812 247.803680982 655 c 2,12,13
 247.803680982 568.052734375 247.803680982 568.052734375 247.803680982 531.104492188 c 1,14,15
 300.159119776 579.609375 300.159119776 579.609375 352.513282448 678.114257812 c 2,16,17
 361.21387917 690.098632812 361.21387917 690.098632812 374.69099885 695.049804688 c 128,-1,18
 388.169394651 700 388.169394651 700 402 700 c 2,19,-1
 481 700 l 2,20,21
 501.810546875 700 501.810546875 700 516.405273438 686.447265625 c 0,22,23
 531 673.83203125 531 673.83203125 531 655.3125 c 0,24,25
 531 642.7734375 531 642.7734375 523.891601562 631.038085938 c 2,26,27
 442.161132812 480.373046875 442.161132812 480.373046875 347.67933402 349.095703125 c 1,28,29
 442.20703125 218.68359375 442.20703125 218.68359375 523.984375 68.7841796875 c 2,30,31
 531 56.2587890625 531 56.2587890625 531 45.6005859375 c 0,32,33
 531 25.6708984375 531 25.6708984375 515.659179688 13.294921875 c 0,34,35
 500.319335938 0 500.319335938 0 480 0 c 2,36,-1
 402 0 l 2,37,38
 388.169394651 0 388.169394651 0 376.665158886 4.2255859375 c 0,39,40
 361.215155291 9.900390625 361.215155291 9.900390625 352.415021089 22.021484375 c 0,41,42
 313.54946319 76.3544921875 313.54946319 76.3544921875 247.803680982 168.264648438 c 1,43,44
 247.803680982 131.631835938 247.803680982 131.631835938 247.803680982 45 c 2,45,46
 247.803680982 26.6513671875 247.803680982 26.6513671875 230.389726323 13.326171875 c 128,-1,47
 212.977047786 0 212.977047786 0 189 0 c 2,48,-1
 115 0 l 2,49,50
 96.6513671875 0 96.6513671875 0 83.326171875 13.326171875 c 0,0,1
EndSplineSet
EndChar

StartChar: L
Encoding: 76 76 13
Width: 498
GlyphClass: 1
Flags: W
LayerCount: 2
Fore
SplineSet
83.326171875 13.326171875 m 0,0,1
 70 25.73046875 70 25.73046875 70 42.810546875 c 2,2,3
 70 350 70 350 70 657.189453125 c 2,4,5
 70 674.26953125 70 674.26953125 83.326171875 686.673828125 c 0,6,7
 96.6513671875 700 96.6513671875 700 115 700 c 2,8,-1
 189 700 l 2,9,10
 217.656853494 700 217.656853494 700 238.468113588 686.673828125 c 0,11,12
 259.280898876 674.509765625 259.280898876 674.509765625 259.280898876 657.760742188 c 2,13,14
 259.280898876 411.640625 259.280898876 411.640625 259.280898876 163 c 1,15,-1
 403 163 l 2,16,17
 421.348632812 163 421.348632812 163 434.673828125 149.673828125 c 128,-1,18
 448 136.348632812 448 136.348632812 448 118 c 2,19,20
 448 106.5 448 106.5 448 45 c 2,21,22
 448 26.6513671875 448 26.6513671875 434.673828125 13.326171875 c 128,-1,23
 421.348632812 0 421.348632812 0 403 0 c 2,24,-1
 115 0 l 2,25,26
 96.6513671875 0 96.6513671875 0 83.326171875 13.326171875 c 0,0,1
EndSplineSet
EndChar

StartChar: M
Encoding: 77 77 14
Width: 860
GlyphClass: 1
Flags: W
LayerCount: 2
Fore
SplineSet
83.326171875 13.326171875 m 0,0,1
 70 25.73046875 70 25.73046875 70 42.810546875 c 2,2,3
 70 350 70 350 70 657.189453125 c 2,4,5
 70 674.26953125 70 674.26953125 83.326171875 686.673828125 c 0,6,7
 96.6513671875 700 96.6513671875 700 115 700 c 2,8,-1
 185 700 l 2,9,10
 202.628609254 700 202.628609254 700 213.834588434 691.840820312 c 128,-1,11
 225.041670023 683.681640625 225.041670023 683.681640625 230.490873671 672.095703125 c 2,12,13
 318.223824098 434.78125 318.223824098 434.78125 430.734375 247.466796875 c 1,14,15
 491.714209488 434.740234375 491.714209488 434.740234375 577.470542043 672.012695312 c 2,16,17
 582.958329977 683.681640625 582.958329977 683.681640625 594.165411566 691.840820312 c 128,-1,18
 605.371390746 700 605.371390746 700 623 700 c 2,19,-1
 695 700 l 2,20,21
 713.348632812 700 713.348632812 700 726.673828125 686.673828125 c 0,22,23
 740 674.26953125 740 674.26953125 740 657.189453125 c 2,24,25
 790 350 790 350 790 42.810546875 c 2,26,27
 790 25.73046875 790 25.73046875 776.673828125 13.326171875 c 0,28,29
 763.348632812 0 763.348632812 0 745 0 c 2,30,-1
 672 0 l 2,31,32
 647.655081955 0 647.655081955 0 629.975247651 13.326171875 c 128,-1,33
 612.294117647 26.6513671875 612.294117647 26.6513671875 612.294117647 45 c 2,34,35
 612.294117647 161.43359375 612.294117647 161.43359375 612.294117647 227.866210938 c 1,36,37
 567.352743311 153.295898438 567.352743311 153.295898438 522.412664675 28.724609375 c 1,38,39
 504.822233711 0 504.822233711 0 469 0 c 2,40,-1
 393 0 l 2,41,42
 372.433898133 0 372.433898133 0 357.01514306 10.224609375 c 0,43,44
 346.871803977 16.9501953125 346.871803977 16.9501953125 339.666294643 28.7353515625 c 1,45,46
 294.138342127 155.080078125 294.138342127 155.080078125 248.61038961 231.42578125 c 1,47,48
 248.61038961 163.212890625 248.61038961 163.212890625 248.61038961 45 c 2,49,50
 248.61038961 26.6513671875 248.61038961 26.6513671875 230.957538555 13.326171875 c 128,-1,51
 213.305981128 0 213.305981128 0 189 0 c 2,52,-1
 115 0 l 2,53,54
 96.6513671875 0 96.6513671875 0 83.326171875 13.326171875 c 0,0,1
EndSplineSet
EndChar

StartChar: N
Encoding: 78 78 15
Width: 607
GlyphClass: 1
Flags: W
LayerCount: 2
Fore
SplineSet
83.326171875 13.326171875 m 0,0,1
 70 25.73046875 70 25.73046875 70 42.810546875 c 2,2,3
 70 350 70 350 70 657.189453125 c 2,4,5
 70 674.26953125 70 674.26953125 83.326171875 686.673828125 c 0,6,7
 96.6513671875 700 96.6513671875 700 115 700 c 2,8,-1
 180 700 l 2,9,10
 196.289408366 700 196.289408366 700 211.096842448 692.951171875 c 128,-1,11
 225.90427653 685.90234375 225.90427653 685.90234375 232.290059408 671.592773438 c 2,12,13
 298.785654704 510.247070312 298.785654704 510.247070312 365.28125 398.900390625 c 1,14,15
 365.28125 501.950195312 365.28125 501.950195312 365.28125 655 c 2,16,17
 365.28125 673.348632812 365.28125 673.348632812 382.077779134 686.673828125 c 128,-1,18
 398.873077393 700 398.873077393 700 422 700 c 2,19,-1
 492 700 l 2,20,21
 510.348632812 700 510.348632812 700 523.673828125 686.673828125 c 0,22,23
 537 674.26953125 537 674.26953125 537 657.189453125 c 2,24,25
 537 350 537 350 537 42.810546875 c 2,26,27
 537 25.73046875 537 25.73046875 523.673828125 13.326171875 c 0,28,29
 510.348632812 0 510.348632812 0 492 0 c 2,30,-1
 424 0 l 2,31,32
 409.70232137 0 409.70232137 0 395.968210856 5.9931640625 c 0,33,34
 381.667897542 12.2333984375 381.667897542 12.2333984375 373.872762044 26.6337890625 c 2,35,36
 309.077006022 178.622070312 309.077006022 178.622070312 244.28125 280.611328125 c 1,37,38
 244.28125 187.805664062 244.28125 187.805664062 244.28125 45 c 2,39,40
 244.28125 26.6513671875 244.28125 26.6513671875 227.484720866 13.326171875 c 128,-1,41
 210.689422607 0 210.689422607 0 187.5625 0 c 2,42,-1
 115 0 l 2,43,44
 96.6513671875 0 96.6513671875 0 83.326171875 13.326171875 c 0,0,1
EndSplineSet
EndChar

StartChar: O
Encoding: 79 79 16
Width: 558
GlyphClass: 1
Flags: W
LayerCount: 2
Fore
SplineSet
50 186.634765625 m 1,0,1
 50 349.249023438 50 349.249023438 50 511.897460938 c 2,2,3
 50 573.436523438 50 573.436523438 79.7236328125 618.13671875 c 128,-1,4
 109.337890625 662.666015625 109.337890625 662.666015625 156.086914062 685.485351562 c 0,5,6
 212.608765179 710 212.608765179 710 278.995512449 710 c 128,-1,7
 345.383526932 710 345.383526932 710 401.905273438 685.485351562 c 0,8,9
 448.654296875 662.666015625 448.654296875 662.666015625 478.268554688 618.13671875 c 128,-1,10
 507.99609375 573.436523438 507.99609375 573.436523438 507.99609375 511.897460938 c 2,11,12
 507.99609375 349.249023438 507.99609375 349.249023438 507.99609375 186.634765625 c 1,13,14
 506.8828125 125.489257812 506.8828125 125.489257812 477.8515625 80.4541015625 c 128,-1,15
 448.8203125 35.41796875 448.8203125 35.41796875 401.989257812 12.55859375 c 0,16,17
 345.383526932 -12 345.383526932 -12 278.995512449 -12 c 128,-1,18
 212.608765179 -12 212.608765179 -12 156.00390625 12.55859375 c 0,19,20
 109.171875 35.41796875 109.171875 35.41796875 80.142578125 80.4541015625 c 128,-1,21
 51.11328125 125.489257812 51.11328125 125.489257812 50 186.634765625 c 1,0,1
246.050512535 162.884765625 m 0,22,23
 260.945332482 150 260.945332482 150 278.995512449 150 c 0,24,25
 328.865407312 150 328.865407312 150 330.900551164 210.680664062 c 1,26,27
 330.900551164 349.612304688 330.900551164 349.612304688 330.900551164 488.572265625 c 2,28,29
 330.900551164 520.393554688 330.900551164 520.393554688 313.824857886 536.310546875 c 0,30,31
 300.211190139 549 300.211190139 549 280.650492443 549 c 128,-1,32
 261.089794748 549 261.089794748 549 244.090134241 534.07421875 c 128,-1,33
 227.090473735 519.149414062 227.090473735 519.149414062 227.090473735 488.572265625 c 2,34,35
 227.090473735 349.615234375 227.090473735 349.615234375 227.090473735 210.686523438 c 2,36,37
 228.209422689 178.317382812 228.209422689 178.317382812 246.050512535 162.884765625 c 0,22,23
EndSplineSet
EndChar

StartChar: P
Encoding: 80 80 17
Width: 574
GlyphClass: 1
Flags: W
LayerCount: 2
Fore
SplineSet
83.326171875 13.326171875 m 0,0,1
 70 25.73046875 70 25.73046875 70 42.810546875 c 2,2,3
 70 350 70 350 70 657.189453125 c 2,4,5
 70 674.26953125 70 674.26953125 83.326171875 686.673828125 c 0,6,7
 96.6513671875 700 96.6513671875 700 115 700 c 2,8,-1
 269 700 l 2,9,10
 431.024414062 700 431.024414062 700 485.01171875 643.950195312 c 128,-1,11
 539 587.900390625 539 587.900390625 539 474.5 c 128,-1,12
 539 361.172851562 539 361.172851562 485.551757812 305.0859375 c 128,-1,13
 432.103515625 249 432.103515625 249 269 249 c 2,14,-1
 234 249 l 1,15,-1
 234 41.9619140625 l 2,16,17
 234 25.3740234375 234 25.3740234375 220.673828125 13.326171875 c 0,18,19
 207.348632812 0 207.348632812 0 189 0 c 2,20,-1
 115 0 l 2,21,22
 96.6513671875 0 96.6513671875 0 83.326171875 13.326171875 c 0,0,1
234 411 m 1,23,-1
 293 411 l 2,24,25
 331.53125 411 331.53125 411 339.823730469 420.0546875 c 0,26,27
 354.5 436.077148438 354.5 436.077148438 354.5 474.5 c 128,-1,28
 354.5 512.922851562 354.5 512.922851562 339.823730469 528.9453125 c 0,29,30
 331.53125 538 331.53125 538 293 538 c 2,31,-1
 234 538 l 1,32,-1
 234 411 l 1,23,-1
EndSplineSet
EndChar

StartChar: Q
Encoding: 81 81 18
Width: 558
GlyphClass: 1
Flags: W
LayerCount: 2
Fore
SplineSet
480.670898438 24.9013671875 m 2,0,1
 454.670898438 22.3671875 454.670898438 22.3671875 428.670898438 -23.673828125 c 2,2,3
 415.344726562 -37 415.344726562 -37 397.165039062 -37 c 0,4,5
 376.303520698 -37 376.303520698 -37 359.093502856 -24.0693359375 c 2,6,7
 347.542857644 9.1962890625 347.542857644 9.1962890625 335.990945219 -7.5380859375 c 1,8,9
 308.616613034 -12 308.616613034 -12 278.995512449 -12 c 0,10,11
 212.608765179 -12 212.608765179 -12 156.00390625 12.55859375 c 0,12,13
 109.171875 35.41796875 109.171875 35.41796875 80.142578125 80.4541015625 c 128,-1,14
 51.11328125 125.489257812 51.11328125 125.489257812 50 186.634765625 c 1,15,16
 50 349.249023438 50 349.249023438 50 511.897460938 c 2,17,18
 50 573.436523438 50 573.436523438 79.7236328125 618.13671875 c 128,-1,19
 109.337890625 662.666015625 109.337890625 662.666015625 156.086914062 685.485351562 c 0,20,21
 212.608765179 710 212.608765179 710 278.995512449 710 c 128,-1,22
 345.383526932 710 345.383526932 710 401.905273438 685.485351562 c 0,23,24
 448.654296875 662.5859375 448.654296875 662.5859375 478.268554688 617.897460938 c 128,-1,25
 507.99609375 573.0390625 507.99609375 573.0390625 507.99609375 511.282226562 c 2,26,27
 507.99609375 346.965820312 507.99609375 346.965820312 507.99609375 184.913085938 c 2,28,29
 507.0703125 126.935546875 507.0703125 126.935546875 480.924804688 83.837890625 c 1,30,31
 493.99609375 71.42578125 493.99609375 71.42578125 493.99609375 54.3876953125 c 128,-1,32
 493.99609375 37.3486328125 493.99609375 37.3486328125 480.670898438 24.9013671875 c 2,0,1
246.050512535 162.884765625 m 0,33,34
 260.945332482 150 260.945332482 150 278.995512449 150 c 0,35,36
 328.865407312 150 328.865407312 150 330.900551164 210.680664062 c 1,37,38
 330.900551164 349.612304688 330.900551164 349.612304688 330.900551164 488.572265625 c 2,39,40
 330.900551164 520.393554688 330.900551164 520.393554688 313.824857886 536.310546875 c 0,41,42
 300.211190139 549 300.211190139 549 280.650492443 549 c 128,-1,43
 261.089794748 549 261.089794748 549 244.090134241 534.07421875 c 128,-1,44
 227.090473735 519.149414062 227.090473735 519.149414062 227.090473735 488.572265625 c 2,45,46
 227.090473735 349.615234375 227.090473735 349.615234375 227.090473735 210.686523438 c 2,47,48
 228.209422689 178.317382812 228.209422689 178.317382812 246.050512535 162.884765625 c 0,33,34
EndSplineSet
EndChar

StartChar: R
Encoding: 82 82 19
Width: 609
GlyphClass: 1
Flags: W
LayerCount: 2
Fore
SplineSet
83.326171875 13.326171875 m 0,0,1
 70 25.73046875 70 25.73046875 70 42.810546875 c 2,2,3
 70 350 70 350 70 657.189453125 c 2,4,5
 70 674.26953125 70 674.26953125 83.326171875 686.673828125 c 0,6,7
 96.6513671875 700 96.6513671875 700 115 700 c 2,8,-1
 293.242424242 700 l 2,9,10
 431.024414062 700 431.024414062 700 485.01171875 644.859375 c 128,-1,11
 539 589.71875 539 589.71875 539 478.158203125 c 0,12,13
 539 391.95703125 539 391.95703125 508.370117188 340.56640625 c 0,14,15
 482.451171875 297.080078125 482.451171875 297.080078125 431.790039062 275.549804688 c 1,16,17
 477.987304688 181.90234375 477.987304688 181.90234375 524.184570312 62.779296875 c 2,18,19
 528 53.130859375 528 53.130859375 528 44.7294921875 c 0,20,21
 528 26.1845703125 528 26.1845703125 513.405273438 13.552734375 c 0,22,23
 498.810546875 0 498.810546875 0 479 0 c 2,24,-1
 404 0 l 2,25,26
 388.680486506 0 388.680486506 0 374.482037169 5.9931640625 c 0,27,28
 359.677882339 12.2421875 359.677882339 12.2421875 351.620472301 26.6689453125 c 2,29,30
 299.629054214 150.668945312 299.629054214 150.668945312 247.636363636 224.668945312 c 1,31,32
 247.636363636 159.833984375 247.636363636 159.833984375 247.636363636 45 c 2,33,34
 247.636363636 26.6513671875 247.636363636 26.6513671875 230.27195786 13.326171875 c 128,-1,35
 212.908824574 0 212.908824574 0 189 0 c 2,36,-1
 115 0 l 2,37,38
 96.6513671875 0 96.6513671875 0 83.326171875 13.326171875 c 0,0,1
247.636363636 386 m 1,39,-1
 314.090909091 386 l 2,40,41
 347.5625 386 347.5625 386 354.766068892 396.836914062 c 0,42,43
 367.515151515 416.013671875 367.515151515 416.013671875 367.515151515 462 c 128,-1,44
 367.515151515 507.986328125 367.515151515 507.986328125 354.766068892 527.163085938 c 0,45,46
 347.5625 538 347.5625 538 314.090909091 538 c 2,47,-1
 247.636363636 538 l 1,48,49
 247.636363636 437 247.636363636 437 247.636363636 386 c 1,39,-1
EndSplineSet
EndChar

StartChar: S
Encoding: 83 83 20
Width: 527
GlyphClass: 1
Flags: W
LayerCount: 2
Fore
SplineSet
51 163.930664062 m 1,0,1
 51 189.465820312 51 189.465820312 51 165 c 1,2,3
 51 191 51 191 51 167 c 2,4,5
 51 186.991210938 51 186.991210938 64.6416015625 199.495117188 c 128,-1,6
 78.2822265625 212 78.2822265625 212 97 212 c 2,7,-1
 171.364963504 212 l 2,8,9
 195.467766309 212 195.467766309 212 212.148580064 200.890625 c 128,-1,10
 228.829393818 189.780273438 228.829393818 189.780273438 232.27379391 173.435546875 c 0,11,12
 235.39828068 163.201171875 235.39828068 163.201171875 241.833870324 159.100585938 c 128,-1,13
 248.27079294 155 248.27079294 155 255.99270073 155 c 0,14,15
 270.772696168 155 270.772696168 155 284.539632755 165.301757812 c 128,-1,16
 298.306569343 175.603515625 298.306569343 175.603515625 298.306569343 197.706054688 c 128,-1,17
 298.306569343 219.80859375 298.306569343 219.80859375 270.204850023 245.830078125 c 128,-1,18
 242.103130703 271.8515625 242.103130703 271.8515625 179.597399635 314.592773438 c 0,19,20
 116.513671875 371.775390625 116.513671875 371.775390625 84.791015625 414.55078125 c 0,21,22
 50 461.462890625 50 461.462890625 50 519.212890625 c 128,-1,23
 50 576.962890625 50 576.962890625 77.4541015625 620.348632812 c 128,-1,24
 104.907226562 663.734375 104.907226562 663.734375 149.80078125 685.826171875 c 0,25,26
 203.706867302 710 203.706867302 710 271.00729927 710 c 0,27,28
 363.151367188 710 363.151367188 710 416.096679688 665.200195312 c 128,-1,29
 469.04296875 620.399414062 469.04296875 620.399414062 476 538.069335938 c 1,30,31
 476 512.534179688 476 512.534179688 476 537 c 1,32,33
 476 511 476 511 476 535 c 2,34,35
 476 515.008789062 476 515.008789062 462.358398438 502.504882812 c 128,-1,36
 448.717773438 490 448.717773438 490 430 490 c 2,37,-1
 355.635036496 490 l 2,38,39
 331.532233691 490 331.532233691 490 314.851419936 501.109375 c 128,-1,40
 298.171939154 512.21875 298.171939154 512.21875 294.72620609 528.5625 c 0,41,42
 289.399649293 546 289.399649293 546 271.00729927 546 c 0,43,44
 255.955377509 546 255.955377509 546 242.324404083 536.069335938 c 128,-1,45
 228.693430657 526.138671875 228.693430657 526.138671875 228.693430657 505.793945312 c 0,46,47
 228.693430657 480.408203125 228.693430657 480.408203125 252.758910242 458.5703125 c 0,48,49
 281.719063641 432.290039062 281.719063641 432.290039062 340.61643904 394.677734375 c 0,50,51
 388.147460938 357.065429688 388.147460938 357.065429688 413.6875 329.837890625 c 128,-1,52
 439.227539062 302.611328125 439.227539062 302.611328125 458.114257812 265.55859375 c 128,-1,53
 477 228.505859375 477 228.505859375 477 184.1484375 c 0,54,55
 477 125.01953125 477 125.01953125 449.545898438 81.640625 c 128,-1,56
 422.092773438 38.2626953125 422.092773438 38.2626953125 377.19921875 16.173828125 c 0,57,58
 323.293132698 -8 323.293132698 -8 255.99270073 -8 c 0,59,60
 163.848632812 -8 163.848632812 -8 110.903320312 36.7998046875 c 128,-1,61
 57.95703125 81.6005859375 57.95703125 81.6005859375 51 163.930664062 c 1,0,1
EndSplineSet
EndChar

StartChar: T
Encoding: 84 84 21
Width: 558
GlyphClass: 1
Flags: W
LayerCount: 2
Fore
SplineSet
211.688986707 13.326171875 m 0,0,1
 188.417910448 25.4921875 188.417910448 25.4921875 188.417910448 42.244140625 c 2,2,3
 188.417910448 288.864257812 188.417910448 288.864257812 177.288461538 538 c 1,4,-1
 75 538 l 2,5,6
 56.6513671875 538 56.6513671875 538 43.326171875 551.326171875 c 128,-1,7
 30 564.651367188 30 564.651367188 30 583 c 2,8,9
 30 594 30 594 30 655 c 2,10,11
 30 673.348632812 30 673.348632812 43.326171875 686.673828125 c 128,-1,12
 56.6513671875 700 56.6513671875 700 75 700 c 2,13,-1
 483 700 l 2,14,15
 501.348632812 700 501.348632812 700 514.673828125 686.673828125 c 128,-1,16
 528 673.348632812 528 673.348632812 528 655 c 2,17,18
 528 594 528 594 528 583 c 2,19,20
 528 564.651367188 528 564.651367188 514.673828125 551.326171875 c 128,-1,21
 501.348632812 538 501.348632812 538 483 538 c 2,22,-1
 380.711538462 538 l 1,23,24
 419.582089552 288.864257812 419.582089552 288.864257812 419.582089552 42.244140625 c 2,25,26
 419.582089552 25.4921875 419.582089552 25.4921875 396.311013293 13.326171875 c 0,27,28
 373.041642374 0 373.041642374 0 341 0 c 2,29,-1
 267 0 l 2,30,31
 234.958357626 0 234.958357626 0 211.688986707 13.326171875 c 0,0,1
EndSplineSet
EndChar

StartChar: U
Encoding: 85 85 22
Width: 630
GlyphClass: 1
Flags: W
LayerCount: 2
Fore
SplineSet
100.295898438 108.387695312 m 128,-1,1
 70 166.287109375 70 166.287109375 70 245.13671875 c 2,2,3
 70 444.359375 70 444.359375 70 657.2109375 c 2,4,5
 70 674.278320312 70 674.278320312 83.326171875 686.673828125 c 0,6,7
 96.6513671875 700 96.6513671875 700 115 700 c 2,8,-1
 189 700 l 2,9,10
 211.890373608 700 211.890373608 700 228.513884592 686.673828125 c 0,11,12
 245.138613861 674.482421875 245.138613861 674.482421875 245.138613861 657.6953125 c 2,13,14
 245.138613861 451.875 245.138613861 451.875 245.138613861 252.385742188 c 2,15,16
 245.138613861 199.759765625 245.138613861 199.759765625 269.969716894 172.064453125 c 0,17,18
 290.648901609 149 290.648901609 149 315 149 c 128,-1,19
 339.47901841 149 339.47901841 149 360.139928837 171.728515625 c 0,20,21
 384.861386139 198.923828125 384.861386139 198.923828125 384.861386139 251.470703125 c 2,22,23
 384.861386139 451.456054688 384.861386139 451.456054688 384.861386139 657.6953125 c 2,24,25
 384.861386139 674.482421875 384.861386139 674.482421875 401.486115408 686.673828125 c 0,26,27
 418.109626392 700 418.109626392 700 441 700 c 2,28,-1
 515 700 l 2,29,30
 533.348632812 700 533.348632812 700 546.673828125 686.673828125 c 0,31,32
 560 674.278320312 560 674.278320312 560 657.2109375 c 2,33,34
 560 443.922851562 560 443.922851562 560 244.203125 c 2,35,36
 560 165.310546875 560 165.310546875 529.668945312 107.856445312 c 128,-1,37
 499.336914062 50.4013671875 499.336914062 50.4013671875 448.349609375 20.3642578125 c 0,38,39
 386.419573793 -12 386.419573793 -12 314.333597618 -12 c 128,-1,40
 242.247621442 -12 242.247621442 -12 181.04296875 20.431640625 c 0,41,0
 130.592773438 50.4873046875 130.592773438 50.4873046875 100.295898438 108.387695312 c 128,-1,1
EndSplineSet
EndChar

StartChar: V
Encoding: 86 86 23
Width: 579
GlyphClass: 1
Flags: W
LayerCount: 2
Fore
SplineSet
64.6025390625 683.860351562 m 0,0,1
 78.58984375 700 78.58984375 700 100 700 c 2,2,-1
 169 700 l 2,3,4
 191.280769388 700 191.280769388 700 206.902691427 688.744140625 c 128,-1,5
 222.525845672 677.489257812 222.525845672 677.489257812 225.437551129 661.69140625 c 2,6,7
 257.784220591 467.69921875 257.784220591 467.69921875 290.130890052 323.708007812 c 1,8,9
 322.477559514 467.698242188 322.477559514 467.698242188 354.822996769 661.689453125 c 2,10,11
 357.610249305 676.828125 357.610249305 676.828125 372.229154737 688.4140625 c 128,-1,12
 386.848060169 700 386.848060169 700 410 700 c 2,13,-1
 479 700 l 2,14,15
 500.41015625 700 500.41015625 700 514.397460938 683.860351562 c 0,16,17
 525.470703125 671.96875 525.470703125 671.96875 525.470703125 656.595703125 c 0,18,19
 525.470703125 652.53515625 525.470703125 652.53515625 524.650390625 648.418945312 c 2,20,21
 475.69921875 342.86328125 475.69921875 342.86328125 426.748046875 36.58203125 c 2,22,23
 424.57421875 22.421875 424.57421875 22.421875 412.961914062 11.61328125 c 0,24,25
 399.083877004 0 399.083877004 0 375.931937173 0 c 2,26,-1
 204.329842932 0 l 2,27,28
 181.1779031 0 181.1779031 0 167.0390625 11.6123046875 c 0,29,30
 155.42578125 22.421875 155.42578125 22.421875 153.279296875 36.4111328125 c 0,31,32
 153.251953125 36.58203125 153.251953125 36.58203125 54.353515625 648.3984375 c 0,33,34
 53.529296875 652.525390625 53.529296875 652.525390625 53.529296875 656.595703125 c 0,35,36
 53.529296875 671.96875 53.529296875 671.96875 64.6025390625 683.860351562 c 0,0,1
EndSplineSet
EndChar

StartChar: W
Encoding: 87 87 24
Width: 844
GlyphClass: 1
Flags: W
LayerCount: 2
Fore
SplineSet
66.3173828125 686.228515625 m 0,0,1
 79.1044921875 700 79.1044921875 700 100 700 c 2,2,-1
 174 700 l 2,3,4
 197.246242089 700 197.246242089 700 213.583662975 688.717773438 c 128,-1,5
 229.922369462 677.435546875 229.922369462 677.435546875 232.872824367 661.749023438 c 0,6,7
 232.897250791 661.62109375 232.897250791 661.62109375 277.192642405 438.271484375 c 1,8,9
 300.159909019 525.510742188 300.159909019 525.510742188 323.127175633 662.749023438 c 2,10,11
 326.336036392 679.24609375 326.336036392 679.24609375 343.032140032 689.623046875 c 128,-1,12
 359.728243671 700 359.728243671 700 382 700 c 2,13,-1
 463 700 l 2,14,15
 485.305856887 700 485.305856887 700 502.027524134 689.623046875 c 128,-1,16
 518.749191381 679.24609375 518.749191381 679.24609375 521.962965267 662.749023438 c 2,17,18
 544.965397343 525.510742188 544.965397343 525.510742188 567.967829419 438.271484375 c 1,19,20
 590.14364177 524.916015625 590.14364177 524.916015625 612.31945412 661.560546875 c 2,21,22
 615.185584196 676.7734375 615.185584196 676.7734375 630.49607509 688.38671875 c 128,-1,23
 645.807853553 700 645.807853553 700 670 700 c 2,24,-1
 744 700 l 2,25,26
 764.895507812 700 764.895507812 700 777.682617188 686.228515625 c 0,27,28
 790.470703125 673.405273438 790.470703125 673.405273438 790.470703125 657.108398438 c 0,29,30
 790.470703125 652.89453125 790.470703125 652.89453125 789.639648438 648.536132812 c 2,31,32
 685.5390625 341.6328125 685.5390625 341.6328125 631.4375 33.7626953125 c 1,33,34
 627.073242188 19.5419921875 627.073242188 19.5419921875 615.830078125 10.119140625 c 0,35,36
 604.586914062 0 604.586914062 0 588 0 c 2,37,-1
 506 0 l 2,38,39
 484.476504371 0 484.476504371 0 469.887160528 10.119140625 c 128,-1,40
 455.297816685 20.23828125 455.297816685 20.23828125 449.651146298 35.46875 c 1,41,42
 423.727911086 179.70703125 423.727911086 179.70703125 397.80594308 273.944335938 c 1,43,44
 371.066627139 179.67578125 371.066627139 179.67578125 344.326043992 35.4072265625 c 1,45,46
 338.702183315 20.23828125 338.702183315 20.23828125 324.112839472 10.119140625 c 128,-1,47
 309.523495629 0 309.523495629 0 288 0 c 2,48,-1
 207 0 l 2,49,50
 190.413085938 0 190.413085938 0 179.169921875 10.119140625 c 0,51,52
 167.926757812 19.5419921875 167.926757812 19.5419921875 163.567382812 33.74609375 c 1,53,54
 108.965820312 341.616210938 108.965820312 341.616210938 54.36328125 648.517578125 c 2,55,56
 54 653.42578125 54 653.42578125 53.529296875 657.108398438 c 0,57,58
 53.529296875 673.405273438 53.529296875 673.405273438 66.3173828125 686.228515625 c 0,0,1
EndSplineSet
EndChar

StartChar: X
Encoding: 88 88 25
Width: 599
GlyphClass: 1
Flags: W
LayerCount: 2
Fore
SplineSet
75.5947265625 13.552734375 m 0,0,1
 61 26.166015625 61 26.166015625 61 44.68359375 c 0,2,3
 61 52.197265625 61 52.197265625 64.5234375 62.037109375 c 2,4,5
 127.751953125 217.203125 127.751953125 217.203125 194.101613363 352.668945312 c 1,6,7
 127.767578125 484.729492188 127.767578125 484.729492188 64.5537109375 636.89453125 c 2,8,9
 61 646.818359375 61 646.818359375 61 654.33203125 c 0,10,11
 61 672.33984375 61 672.33984375 75.326171875 685.673828125 c 0,12,13
 89.6513671875 700 89.6513671875 700 110 700 c 2,14,-1
 179 700 l 2,15,16
 195.289408366 700 195.289408366 700 210.091918945 692.953125 c 128,-1,17
 224.894429525 685.907226562 224.894429525 685.907226562 231.282674154 671.607421875 c 2,18,19
 265.641337077 576.361328125 265.641337077 576.361328125 300 531.115234375 c 1,20,21
 334.358662923 576.361328125 334.358662923 576.361328125 368.717325846 671.607421875 c 2,22,23
 375.105570475 685.907226562 375.105570475 685.907226562 389.908081055 692.953125 c 128,-1,24
 404.710591634 700 404.710591634 700 421 700 c 2,25,-1
 489 700 l 2,26,27
 508.810546875 700 508.810546875 700 523.405273438 686.447265625 c 0,28,29
 538 673.833007812 538 673.833007812 538 655.313476562 c 0,30,31
 538 647.799804688 538 647.799804688 534.4609375 637.916992188 c 2,32,33
 471.721679688 485.262695312 471.721679688 485.262695312 405.854075114 352.709960938 c 1,34,35
 471.595703125 217.52734375 471.595703125 217.52734375 534.20703125 62.658203125 c 2,36,37
 538 53.044921875 538 53.044921875 538 44.6865234375 c 0,38,39
 538 26.1669921875 538 26.1669921875 523.405273438 13.552734375 c 0,40,41
 508.810546875 0 508.810546875 0 489 0 c 2,42,-1
 421 0 l 2,43,44
 401.317067464 0 401.317067464 0 388.805216471 8.1591796875 c 128,-1,45
 376.292134603 16.318359375 376.292134603 16.318359375 370.290384928 27.748046875 c 2,46,47
 335.145192464 125.810546875 335.145192464 125.810546875 300 173.873046875 c 1,48,49
 265.034515381 126.18359375 265.034515381 126.18359375 230.067799886 28.4931640625 c 2,50,51
 223.419840495 13.400390625 223.419840495 13.400390625 207.354451497 5.8466796875 c 0,52,53
 194.917683919 0 194.917683919 0 179 0 c 2,54,-1
 110 0 l 2,55,56
 90.189453125 0 90.189453125 0 75.5947265625 13.552734375 c 0,0,1
EndSplineSet
EndChar

StartChar: Y
Encoding: 89 89 26
Width: 579
GlyphClass: 1
Flags: W
LayerCount: 2
Fore
SplineSet
203.442362467 13.326171875 m 0,0,1
 186.645833333 25.73046875 186.645833333 25.73046875 186.645833333 42.8095703125 c 2,2,3
 186.645833333 203.599609375 186.645833333 203.599609375 186.645833333 342.65625 c 1,4,5
 118.909179688 480.283203125 118.909179688 480.283203125 54.8173828125 637.283203125 c 2,6,7
 51 646.919921875 51 646.919921875 51 655.3125 c 0,8,9
 51 673.83203125 51 673.83203125 65.5947265625 686.447265625 c 0,10,11
 80.189453125 700 80.189453125 700 100 700 c 2,12,-1
 169 700 l 2,13,14
 188.682932536 700 188.682932536 700 201.194783529 691.840820312 c 128,-1,15
 213.707865397 683.681640625 213.707865397 683.681640625 219.709615072 672.251953125 c 2,16,17
 254.854807536 574.189453125 254.854807536 574.189453125 290 526.126953125 c 1,18,19
 325.06149292 574.014648438 325.06149292 574.014648438 360.121754964 671.90234375 c 2,20,21
 365.926564535 683.442382812 365.926564535 683.442382812 378.621815999 691.721679688 c 128,-1,22
 391.317067464 700 391.317067464 700 411 700 c 2,23,-1
 479 700 l 2,24,25
 498.810546875 700 498.810546875 700 513.405273438 686.447265625 c 0,26,27
 528 673.83203125 528 673.83203125 528 655.3125 c 0,28,29
 528 647.798828125 528 647.798828125 524.486328125 637.987304688 c 2,30,31
 460.743164062 480.626953125 460.743164062 480.626953125 393.354166667 342.688476562 c 1,32,33
 393.354166667 203.614257812 393.354166667 203.614257812 393.354166667 42.8095703125 c 2,34,35
 393.354166667 25.73046875 393.354166667 25.73046875 376.557637533 13.326171875 c 0,36,37
 359.762339274 0 359.762339274 0 336.635416667 0 c 2,38,-1
 243.364583333 0 l 2,39,40
 220.237660726 0 220.237660726 0 203.442362467 13.326171875 c 0,0,1
EndSplineSet
EndChar

StartChar: Z
Encoding: 90 90 27
Width: 539
GlyphClass: 1
Flags: W
LayerCount: 2
Fore
SplineSet
63.326171875 13.326171875 m 0,0,1
 50 25.494140625 50 25.494140625 50 42.2490234375 c 2,2,3
 50 99.25390625 50 99.25390625 50 122.60546875 c 2,4,5
 50 131.298828125 50 131.298828125 53.255859375 137.579101562 c 2,6,7
 148.580078125 332.893554688 148.580078125 332.893554688 268.704396497 539 c 1,8,-1
 95 539 l 2,9,10
 76.6513671875 539 76.6513671875 539 63.326171875 552.326171875 c 128,-1,11
 50 565.651367188 50 565.651367188 50 584 c 2,12,13
 50 594.5 50 594.5 50 655 c 2,14,15
 50 673.348632812 50 673.348632812 63.326171875 686.673828125 c 128,-1,16
 76.6513671875 700 76.6513671875 700 95 700 c 2,17,-1
 444 700 l 2,18,19
 462.348632812 700 462.348632812 700 475.673828125 686.673828125 c 0,20,21
 489 674.505859375 489 674.505859375 489 657.750976562 c 2,22,23
 489 600.74609375 489 600.74609375 489 577.39453125 c 2,24,25
 489 568.643554688 489 568.643554688 485.685546875 562.307617188 c 2,26,27
 388.075195312 367.0546875 388.075195312 367.0546875 264.110764471 161 c 1,28,-1
 444 161 l 2,29,30
 462.348632812 161 462.348632812 161 475.673828125 147.673828125 c 128,-1,31
 489 134.348632812 489 134.348632812 489 116 c 2,32,33
 489 105.5 489 105.5 489 45 c 2,34,35
 489 26.6513671875 489 26.6513671875 475.673828125 13.326171875 c 128,-1,36
 462.348632812 0 462.348632812 0 444 0 c 2,37,-1
 95 0 l 2,38,39
 76.6513671875 0 76.6513671875 0 63.326171875 13.326171875 c 0,0,1
EndSplineSet
EndChar

StartChar: a
Encoding: 97 97 28
Width: 581
GlyphClass: 1
Flags: W
LayerCount: 2
Fore
SplineSet
56.3173828125 13.771484375 m 0,0,1
 43.529296875 26.5947265625 43.529296875 26.5947265625 43.529296875 42.8916015625 c 0,2,3
 43.529296875 47.10546875 43.529296875 47.10546875 44.3603515625 51.4638671875 c 2,4,5
 98.4609375 358.3671875 98.4609375 358.3671875 152.5625 666.237304688 c 1,6,7
 156.926757812 680.458007812 156.926757812 680.458007812 169.196996228 689.880859375 c 0,8,9
 183.209412523 700 183.209412523 700 203.881773399 700 c 2,10,-1
 375.871921182 700 l 2,11,12
 396.544282058 700 396.544282058 700 410.556698353 689.880859375 c 0,13,14
 423.073242188 680.458007812 423.073242188 680.458007812 427.432617188 666.25390625 c 1,15,16
 482.034179688 358.383789062 482.034179688 358.383789062 536.63671875 51.482421875 c 2,17,18
 537.470703125 47.1142578125 537.470703125 47.1142578125 537.470703125 42.8916015625 c 0,19,20
 537.470703125 26.5947265625 537.470703125 26.5947265625 524.682617188 13.771484375 c 0,21,22
 511.895507812 0 511.895507812 0 491 0 c 2,23,-1
 417 0 l 2,24,25
 397.161349292 0 397.161349292 0 381.526545182 10.2646484375 c 0,26,27
 365.890523976 18.6240234375 365.890523976 18.6240234375 362.620189347 31.78125 c 2,28,-1
 336.45872941 120 l 1,29,-1
 242.442998576 120 l 1,30,-1
 218.076753964 30.66796875 l 1,31,32
 212.697193465 18.36328125 212.697193465 18.36328125 198.684777171 10.119140625 c 0,33,34
 184.672360876 0 184.672360876 0 164 0 c 2,35,-1
 90 0 l 2,36,37
 69.1044921875 0 69.1044921875 0 56.3173828125 13.771484375 c 0,0,1
301.825070236 283 m 1,38,-1
 289.487376847 343.662109375 l 1,39,-1
 276.834455819 283 l 1,40,-1
 301.825070236 283 l 1,38,-1
EndSplineSet
EndChar

StartChar: b
Encoding: 98 98 29
Width: 590
GlyphClass: 1
Flags: W
LayerCount: 2
Fore
SplineSet
83.326171875 13.326171875 m 0,0,1
 70 25.73046875 70 25.73046875 70 42.810546875 c 2,2,3
 70 350 70 350 70 657.189453125 c 2,4,5
 70 674.26953125 70 674.26953125 83.326171875 686.673828125 c 0,6,7
 96.6513671875 700 96.6513671875 700 115 700 c 2,8,-1
 284 700 l 2,9,10
 386.888234992 700 386.888234992 700 439.669921875 670.693359375 c 0,11,12
 483.28125 641.38671875 483.28125 641.38671875 504.140625 595.609375 c 128,-1,13
 525 549.831054688 525 549.831054688 525 501.303710938 c 128,-1,14
 525 452.77734375 525 452.77734375 507.181640625 411.720703125 c 0,15,16
 494.747070312 383.069335938 494.747070312 383.069335938 473.912109375 362.755859375 c 1,17,18
 497.106445312 337.4453125 497.106445312 337.4453125 511.024414062 301.444335938 c 0,19,20
 530 252.360351562 530 252.360351562 530 200.018554688 c 128,-1,21
 530 147.677734375 530 147.677734375 510.889648438 102.561523438 c 128,-1,22
 491.778320312 57.4453125 491.778320312 57.4453125 452.889648438 28.72265625 c 128,-1,23
 414 0 414 0 327.105263158 0 c 2,24,-1
 115 0 l 2,25,26
 96.6513671875 0 96.6513671875 0 83.326171875 13.326171875 c 0,0,1
234 432 m 1,27,-1
 269 432 l 2,28,29
 283.686523438 432 283.686523438 432 303.462453742 446.555664062 c 0,30,31
 328.763157895 464.985351562 328.763157895 464.985351562 328.763157895 491.82421875 c 128,-1,32
 328.763157895 518.663085938 328.763157895 518.663085938 310.412983141 530.739257812 c 0,33,34
 296.343544408 540 296.343544408 540 273 540 c 2,35,-1
 234 540 l 1,36,-1
 234 432 l 1,27,-1
234 163 m 1,37,-1
 279 163 l 2,38,39
 299.952379729 163 299.952379729 163 312.488589638 172.194335938 c 0,40,41
 330.421052632 185.345703125 330.421052632 185.345703125 330.421052632 205.961914062 c 0,42,43
 330.421052632 235.685546875 330.421052632 235.685546875 308.032997533 255.919921875 c 0,44,45
 299.029528166 264.057617188 299.029528166 264.057617188 287.024362664 267.028320312 c 0,46,47
 278.583984375 270 278.583984375 270 269 270 c 2,48,-1
 234 270 l 1,49,-1
 234 163 l 1,37,-1
EndSplineSet
EndChar

StartChar: c
Encoding: 99 99 30
Width: 574
GlyphClass: 1
Flags: W
LayerCount: 2
Fore
SplineSet
70 185.552734375 m 1,0,1
 70 347.717773438 70 347.717773438 70 511.466796875 c 2,2,3
 70 572.936523438 70 572.936523438 98.5 617.616210938 c 128,-1,4
 127.024414062 662.331054688 127.024414062 662.331054688 172.329101562 685.340820312 c 0,5,6
 226.101778182 710 226.101778182 710 291.903061331 710 c 0,7,8
 403.116084332 710 403.116084332 710 459.720703125 655.116210938 c 128,-1,9
 516.319335938 600.232421875 516.319335938 600.232421875 522.998046875 497.827148438 c 1,10,11
 522.998046875 472.413085938 522.998046875 472.413085938 522.998046875 497 c 1,12,13
 522.998046875 471 522.998046875 471 522.998046875 495 c 2,14,15
 522.998046875 475.008789062 522.998046875 475.008789062 509.357421875 462.504882812 c 128,-1,16
 495.715820312 450 495.715820312 450 477.998046875 450 c 2,17,-1
 405.998046875 450 l 2,18,19
 382.902609927 450 382.902609927 450 366.876513103 462.266601562 c 128,-1,20
 350.850416278 474.533203125 350.850416278 474.533203125 348.220865641 492.647460938 c 0,21,22
 345.325935803 521.8203125 345.325935803 521.8203125 333.728354389 535.41015625 c 128,-1,23
 322.132048837 549 322.132048837 549 298.435472424 549 c 0,24,25
 280.662721149 549 280.662721149 549 265.663692866 535.575195312 c 0,26,27
 247.482665897 519.3046875 247.482665897 519.3046875 247.482665897 488.572265625 c 2,28,29
 247.482665897 349.555664062 247.482665897 349.555664062 247.482665897 210.552734375 c 2,30,31
 248.28773453 162.305664062 248.28773453 162.305664062 277.429688003 152.909179688 c 0,32,33
 286.453856687 150 286.453856687 150 299.741954643 150 c 0,34,35
 320.358601294 150 320.358601294 150 332.796975464 160.7109375 c 128,-1,36
 345.235349633 171.421875 345.235349633 171.421875 348.242555287 197.504882812 c 0,37,38
 350.850416278 215.466796875 350.850416278 215.466796875 366.876513103 227.735351562 c 128,-1,39
 382.902609927 240.004882812 382.902609927 240.004882812 405.998046875 240.004882812 c 2,40,41
 442.108398438 264.501953125 442.108398438 264.501953125 478.21875 238.999023438 c 2,42,43
 499.583984375 238.881835938 499.583984375 238.881835938 513.010742188 220.978515625 c 0,44,45
 523.141601562 207.470703125 523.141601562 207.470703125 523.141601562 189.346679688 c 0,46,47
 523.141601562 186.459960938 523.141601562 186.459960938 522.881835938 183.576171875 c 0,48,49
 513.966796875 91.0751953125 513.966796875 91.0751953125 457.899414062 39.5849609375 c 0,50,51
 401.296705773 -12 401.296705773 -12 291.549647684 -12 c 0,52,53
 183.724609375 -12 183.724609375 -12 127.416015625 40.005859375 c 128,-1,54
 71.1142578125 92.0048828125 71.1142578125 92.0048828125 70 185.552734375 c 1,0,1
EndSplineSet
EndChar

StartChar: d
Encoding: 100 100 31
Width: 573
GlyphClass: 1
Flags: W
LayerCount: 2
Fore
SplineSet
83.326171875 13.326171875 m 0,0,1
 70 25.73046875 70 25.73046875 70 42.810546875 c 2,2,3
 70 350 70 350 70 657.189453125 c 2,4,5
 70 674.26953125 70 674.26953125 83.326171875 686.673828125 c 0,6,7
 96.6513671875 700 96.6513671875 700 115 700 c 2,8,-1
 310 700 l 2,9,10
 415.614257812 700 415.614257812 700 451.799804688 640.024414062 c 0,11,12
 482.893554688 588.486328125 482.893554688 588.486328125 497.946289062 508.064453125 c 128,-1,13
 513 427.641601562 513 427.641601562 513 340.663085938 c 128,-1,14
 513 253.684570312 513 253.684570312 498.94921875 178.885742188 c 128,-1,15
 484.8984375 104.086914062 484.8984375 104.086914062 456.34765625 56.3232421875 c 0,16,17
 422.680664062 -0 422.680664062 -0 335.151515152 -0 c 2,18,-1
 115 -0 l 2,19,20
 96.6513671875 -0 96.6513671875 -0 83.326171875 13.326171875 c 0,0,1
233 537 m 1,21,22
 233 350.5 233 350.5 233 164 c 1,23,-1
 271.784179688 164 l 1,24,25
 279.58984375 174.721679688 279.58984375 174.721679688 285.936523438 204.274414062 c 0,26,27
 298 260.439453125 298 260.439453125 298 342.54296875 c 128,-1,28
 298 424.646484375 298 424.646484375 283.954101562 488.708007812 c 0,29,30
 275.803710938 525.883789062 275.803710938 525.883789062 265.8515625 537 c 1,31,-1
 233 537 l 1,21,22
EndSplineSet
EndChar

StartChar: e
Encoding: 101 101 32
Width: 467
GlyphClass: 1
Flags: W
LayerCount: 2
Fore
SplineSet
83.326171875 13.326171875 m 0,0,1
 70 25.73046875 70 25.73046875 70 42.810546875 c 2,2,3
 70 350 70 350 70 657.189453125 c 2,4,5
 70 674.26953125 70 674.26953125 83.326171875 686.673828125 c 0,6,7
 96.6513671875 700 96.6513671875 700 115 700 c 2,8,-1
 352 700 l 2,9,10
 370.348632812 700 370.348632812 700 383.673828125 686.673828125 c 128,-1,11
 397 673.348632812 397 673.348632812 397 655 c 2,12,13
 397 593 397 593 397 581 c 2,14,15
 397 562.651367188 397 562.651367188 383.673828125 549.326171875 c 128,-1,16
 370.348632812 536 370.348632812 536 352 536 c 2,17,-1
 234 536 l 1,18,-1
 234 429 l 1,19,-1
 289 429 l 2,20,21
 307.348632812 429 307.348632812 429 320.673828125 415.673828125 c 128,-1,22
 334 402.348632812 334 402.348632812 334 384 c 2,23,-1
 334 309 l 2,24,25
 334 290.651367188 334 290.651367188 320.673828125 277.326171875 c 128,-1,26
 307.348632812 264 307.348632812 264 289 264 c 2,27,-1
 234 264 l 1,28,-1
 234 164 l 1,29,-1
 352 164 l 2,30,31
 370.348632812 164 370.348632812 164 383.673828125 150.673828125 c 128,-1,32
 397 137.348632812 397 137.348632812 397 119 c 2,33,34
 397 107 397 107 397 45 c 2,35,36
 397 26.6513671875 397 26.6513671875 383.673828125 13.326171875 c 128,-1,37
 370.348632812 0 370.348632812 0 352 0 c 2,38,-1
 115 0 l 2,39,40
 96.6513671875 0 96.6513671875 0 83.326171875 13.326171875 c 0,0,1
EndSplineSet
EndChar

StartChar: f
Encoding: 102 102 33
Width: 497
GlyphClass: 1
Flags: W
LayerCount: 2
Fore
SplineSet
83.326171875 13.326171875 m 0,0,1
 70 25.73046875 70 25.73046875 70 42.810546875 c 2,2,3
 70 350 70 350 70 657.189453125 c 2,4,5
 70 674.26953125 70 674.26953125 83.326171875 686.673828125 c 0,6,7
 96.6513671875 700 96.6513671875 700 115 700 c 2,8,-1
 402 700 l 2,9,10
 420.348632812 700 420.348632812 700 433.673828125 686.673828125 c 128,-1,11
 447 673.348632812 447 673.348632812 447 655 c 2,12,13
 447 593 447 593 447 581 c 2,14,15
 447 562.651367188 447 562.651367188 433.673828125 549.326171875 c 128,-1,16
 420.348632812 536 420.348632812 536 402 536 c 2,17,-1
 259.568181818 536 l 1,18,-1
 259.568181818 429 l 1,19,-1
 339 429 l 2,20,21
 357.348632812 429 357.348632812 429 370.673828125 415.673828125 c 128,-1,22
 384 402.348632812 384 402.348632812 384 384 c 2,23,-1
 384 309 l 2,24,25
 384 290.651367188 384 290.651367188 370.673828125 277.326171875 c 128,-1,26
 357.348632812 264 357.348632812 264 339 264 c 2,27,-1
 259.568181818 264 l 1,28,-1
 259.568181818 42.1279296875 l 2,29,30
 259.568181818 25.443359375 259.568181818 25.443359375 238.670321378 13.326171875 c 0,31,32
 217.773992365 0 217.773992365 0 189 0 c 2,33,-1
 115 0 l 2,34,35
 96.6513671875 0 96.6513671875 0 83.326171875 13.326171875 c 0,0,1
EndSplineSet
EndChar

StartChar: g
Encoding: 103 103 34
Width: 594
GlyphClass: 1
Flags: W
LayerCount: 2
Fore
SplineSet
70 185.552734375 m 1,0,1
 70 347.717773438 70 347.717773438 70 511.466796875 c 2,2,3
 70 572.936523438 70 572.936523438 98.5 617.616210938 c 128,-1,4
 127.024414062 662.331054688 127.024414062 662.331054688 172.329101562 685.340820312 c 0,5,6
 226.05755079 710 226.05755079 710 291.77822242 710 c 0,7,8
 402.855001107 710 402.855001107 710 459.720703125 655.116210938 c 0,9,10
 516.319335938 600.232421875 516.319335938 600.232421875 522.998046875 497.827148438 c 1,11,12
 522.998046875 472.413085938 522.998046875 472.413085938 522.998046875 497 c 1,13,14
 522.998046875 471 522.998046875 471 522.998046875 495 c 2,15,16
 522.998046875 475.008789062 522.998046875 475.008789062 509.357421875 462.504882812 c 128,-1,17
 495.715820312 450 495.715820312 450 477.998046875 450 c 2,18,-1
 405.998046875 450 l 2,19,20
 382.666289728 450 382.666289728 450 366.659826077 462.266601562 c 128,-1,21
 350.653362426 474.533203125 350.653362426 474.533203125 348.027033186 492.647460938 c 0,22,23
 345.135649854 521.8203125 345.135649854 521.8203125 333.55227635 535.41015625 c 128,-1,24
 321.970177144 549 321.970177144 549 298.302630819 549 c 0,25,26
 280.5516525 549 280.5516525 549 265.570999154 535.575195312 c 0,27,28
 247.41224531 519.3046875 247.41224531 519.3046875 247.41224531 488.572265625 c 2,29,30
 247.41224531 349.555664062 247.41224531 349.555664062 247.41224531 210.552734375 c 2,31,32
 248.216327673 162.305664062 248.216327673 162.305664062 277.322580062 152.909179688 c 0,33,34
 286.335693461 150 286.335693461 150 299.607512498 150 c 0,35,36
 323.017650524 150 323.017650524 150 334.139727966 162.252929688 c 0,37,38
 349.116558416 178.750976562 349.116558416 178.750976562 349.193016327 214.666015625 c 1,39,40
 348.975111281 245.866210938 348.975111281 245.866210938 348.755931937 227.065429688 c 1,41,42
 326.534714426 228.016601562 326.534714426 228.016601562 309.809546412 240.833984375 c 128,-1,43
 293.0831041 253.651367188 293.0831041 253.651367188 293.0831041 272 c 2,44,45
 293.0831041 333.5 293.0831041 333.5 293.0831041 345 c 2,46,47
 293.0831041 363.348632812 293.0831041 363.348632812 310.47218164 376.673828125 c 128,-1,48
 327.861259181 390 327.861259181 390 351.802779687 390 c 2,49,-1
 478.998046875 390 l 2,50,51
 497.346679688 390 497.346679688 390 510.672851562 376.673828125 c 128,-1,52
 523.998046875 363.348632812 523.998046875 363.348632812 523.998046875 345 c 2,53,54
 523.998046875 303.3671875 523.998046875 303.3671875 523.998046875 211.734375 c 1,55,56
 522.89453125 105.758789062 522.89453125 105.758789062 465.729492188 46.8798828125 c 128,-1,57
 408.564453125 -12 408.564453125 -12 295.884012237 -12 c 0,58,59
 183.724609375 -12 183.724609375 -12 127.416015625 40.005859375 c 128,-1,60
 71.1142578125 92.0048828125 71.1142578125 92.0048828125 70 185.552734375 c 1,0,1
EndSplineSet
EndChar

StartChar: h
Encoding: 104 104 35
Width: 598
GlyphClass: 1
Flags: W
LayerCount: 2
Fore
SplineSet
83.326171875 13.326171875 m 0,0,1
 70 25.73046875 70 25.73046875 70 42.810546875 c 2,2,3
 70 350 70 350 70 657.189453125 c 2,4,5
 70 674.26953125 70 674.26953125 83.326171875 686.673828125 c 0,6,7
 96.6513671875 700 96.6513671875 700 115 700 c 2,8,-1
 189 700 l 2,9,10
 212.777222402 700 212.777222402 700 230.044783192 686.673828125 c 0,11,12
 247.313609467 674.522460938 247.313609467 674.522460938 247.313609467 657.791015625 c 2,13,-1
 247.313609467 428 l 1,14,-1
 349.686390533 428 l 1,15,-1
 349.686390533 657.791015625 l 2,16,17
 349.686390533 674.522460938 349.686390533 674.522460938 366.955216808 686.673828125 c 0,18,19
 384.222777598 700 384.222777598 700 408 700 c 2,20,-1
 483 700 l 2,21,22
 501.348632812 700 501.348632812 700 514.673828125 686.673828125 c 0,23,24
 528 674.26953125 528 674.26953125 528 657.189453125 c 2,25,26
 528 350 528 350 528 42.810546875 c 2,27,28
 528 25.73046875 528 25.73046875 514.673828125 13.326171875 c 0,29,30
 501.348632812 0 501.348632812 0 483 0 c 2,31,-1
 408 0 l 2,32,33
 384.222777598 0 384.222777598 0 366.955216808 13.326171875 c 0,34,35
 349.686390533 25.447265625 349.686390533 25.447265625 349.686390533 42.1376953125 c 2,36,-1
 349.686390533 265 l 1,37,-1
 247.313609467 265 l 1,38,-1
 247.313609467 42.1376953125 l 2,39,40
 247.313609467 25.447265625 247.313609467 25.447265625 230.044783192 13.326171875 c 0,41,42
 212.777222402 0 212.777222402 0 189 0 c 2,43,-1
 115 0 l 2,44,45
 96.6513671875 0 96.6513671875 0 83.326171875 13.326171875 c 0,0,1
EndSplineSet
EndChar

StartChar: i
Encoding: 105 105 36
Width: 304
GlyphClass: 1
Flags: W
LayerCount: 2
Fore
SplineSet
83.326171875 13.326171875 m 0,0,1
 70 25.73046875 70 25.73046875 70 42.810546875 c 2,2,3
 70 350 70 350 70 657.189453125 c 2,4,5
 70 674.26953125 70 674.26953125 83.326171875 686.673828125 c 0,6,7
 96.6513671875 700 96.6513671875 700 115 700 c 2,8,-1
 189 700 l 2,9,10
 207.348632812 700 207.348632812 700 220.673828125 686.673828125 c 0,11,12
 234 674.26953125 234 674.26953125 234 657.189453125 c 2,13,14
 234 350 234 350 234 42.810546875 c 2,15,16
 234 25.73046875 234 25.73046875 220.673828125 13.326171875 c 0,17,18
 207.348632812 0 207.348632812 0 189 0 c 2,19,-1
 115 0 l 2,20,21
 96.6513671875 0 96.6513671875 0 83.326171875 13.326171875 c 0,0,1
EndSplineSet
EndChar

StartChar: j
Encoding: 106 106 37
Width: 418
GlyphClass: 1
Flags: W
LayerCount: 2
Fore
SplineSet
63.326171875 12.326171875 m 0,0,1
 50 24.7314453125 50 24.7314453125 50 42.744140625 c 2,2,3
 50 95.12109375 50 95.12109375 50 109.774414062 c 2,4,5
 50 126.856445312 50 126.856445312 63.326171875 139.262695312 c 128,-1,6
 76.5263671875 151.551757812 76.5263671875 151.551757812 95.703125 151.666992188 c 0,7,8
 171.44921875 153.052734375 171.44921875 153.052734375 178.838867188 173.161132812 c 0,9,10
 184 187.206054688 184 187.206054688 184 219.62890625 c 2,11,12
 184 432.270507812 184 432.270507812 184 657.186523438 c 2,13,14
 184 674.268554688 184 674.268554688 197.326171875 686.673828125 c 0,15,16
 210.651367188 700 210.651367188 700 229 700 c 2,17,-1
 303 700 l 2,18,19
 321.348632812 700 321.348632812 700 334.673828125 686.673828125 c 0,20,21
 348 674.251953125 348 674.251953125 348 657.146484375 c 2,22,23
 348 447.697265625 348 447.697265625 348 253.49609375 c 2,24,25
 348 167.280273438 348 167.280273438 333.059570312 118.037109375 c 0,26,27
 316.329101562 62.8916015625 316.329101562 62.8916015625 259.138671875 31.5634765625 c 0,28,29
 205.143554688 1.984375 205.143554688 1.984375 97.7548828125 -0.9892578125 c 2,30,31
 97.56640625 24.005859375 97.56640625 24.005859375 97.3779296875 -1 c 2,32,33
 76.6513671875 -1 76.6513671875 -1 63.326171875 12.326171875 c 0,0,1
EndSplineSet
EndChar

StartChar: k
Encoding: 107 107 38
Width: 597
GlyphClass: 1
Flags: W
LayerCount: 2
Fore
SplineSet
83.326171875 13.326171875 m 0,0,1
 70 25.73046875 70 25.73046875 70 42.810546875 c 2,2,3
 70 350 70 350 70 657.189453125 c 2,4,5
 70 674.26953125 70 674.26953125 83.326171875 686.673828125 c 0,6,7
 96.6513671875 700 96.6513671875 700 115 700 c 2,8,-1
 189 700 l 2,9,10
 212.977047786 700 212.977047786 700 230.389726323 686.673828125 c 128,-1,11
 247.803680982 673.348632812 247.803680982 673.348632812 247.803680982 655 c 2,12,13
 247.803680982 568.052734375 247.803680982 568.052734375 247.803680982 531.104492188 c 1,14,15
 300.159119776 579.609375 300.159119776 579.609375 352.513282448 678.114257812 c 2,16,17
 361.21387917 690.098632812 361.21387917 690.098632812 374.69099885 695.049804688 c 128,-1,18
 388.169394651 700 388.169394651 700 402 700 c 2,19,-1
 481 700 l 2,20,21
 501.810546875 700 501.810546875 700 516.405273438 686.447265625 c 0,22,23
 531 673.83203125 531 673.83203125 531 655.3125 c 0,24,25
 531 642.7734375 531 642.7734375 523.891601562 631.038085938 c 2,26,27
 442.161132812 480.373046875 442.161132812 480.373046875 347.67933402 349.095703125 c 1,28,29
 442.20703125 218.68359375 442.20703125 218.68359375 523.984375 68.7841796875 c 2,30,31
 531 56.2587890625 531 56.2587890625 531 45.6005859375 c 0,32,33
 531 25.6708984375 531 25.6708984375 515.659179688 13.294921875 c 0,34,35
 500.319335938 0 500.319335938 0 480 0 c 2,36,-1
 402 0 l 2,37,38
 388.169394651 0 388.169394651 0 376.665158886 4.2255859375 c 0,39,40
 361.215155291 9.900390625 361.215155291 9.900390625 352.415021089 22.021484375 c 0,41,42
 313.54946319 76.3544921875 313.54946319 76.3544921875 247.803680982 168.264648438 c 1,43,44
 247.803680982 131.631835938 247.803680982 131.631835938 247.803680982 45 c 2,45,46
 247.803680982 26.6513671875 247.803680982 26.6513671875 230.389726323 13.326171875 c 128,-1,47
 212.977047786 0 212.977047786 0 189 0 c 2,48,-1
 115 0 l 2,49,50
 96.6513671875 0 96.6513671875 0 83.326171875 13.326171875 c 0,0,1
EndSplineSet
EndChar

StartChar: l
Encoding: 108 108 39
Width: 498
GlyphClass: 1
Flags: W
LayerCount: 2
Fore
SplineSet
83.326171875 13.326171875 m 0,0,1
 70 25.73046875 70 25.73046875 70 42.810546875 c 2,2,3
 70 350 70 350 70 657.189453125 c 2,4,5
 70 674.26953125 70 674.26953125 83.326171875 686.673828125 c 0,6,7
 96.6513671875 700 96.6513671875 700 115 700 c 2,8,-1
 189 700 l 2,9,10
 217.656853494 700 217.656853494 700 238.468113588 686.673828125 c 0,11,12
 259.280898876 674.509765625 259.280898876 674.509765625 259.280898876 657.760742188 c 2,13,14
 259.280898876 411.640625 259.280898876 411.640625 259.280898876 163 c 1,15,-1
 403 163 l 2,16,17
 421.348632812 163 421.348632812 163 434.673828125 149.673828125 c 128,-1,18
 448 136.348632812 448 136.348632812 448 118 c 2,19,20
 448 106.5 448 106.5 448 45 c 2,21,22
 448 26.6513671875 448 26.6513671875 434.673828125 13.326171875 c 128,-1,23
 421.348632812 0 421.348632812 0 403 0 c 2,24,-1
 115 0 l 2,25,26
 96.6513671875 0 96.6513671875 0 83.326171875 13.326171875 c 0,0,1
EndSplineSet
EndChar

StartChar: m
Encoding: 109 109 40
Width: 860
GlyphClass: 1
Flags: W
LayerCount: 2
Fore
SplineSet
83.326171875 13.326171875 m 0,0,1
 70 25.73046875 70 25.73046875 70 42.810546875 c 2,2,3
 70 350 70 350 70 657.189453125 c 2,4,5
 70 674.26953125 70 674.26953125 83.326171875 686.673828125 c 0,6,7
 96.6513671875 700 96.6513671875 700 115 700 c 2,8,-1
 185 700 l 2,9,10
 202.628609254 700 202.628609254 700 213.834588434 691.840820312 c 128,-1,11
 225.041670023 683.681640625 225.041670023 683.681640625 230.490873671 672.095703125 c 2,12,13
 318.223824098 434.78125 318.223824098 434.78125 430.734375 247.466796875 c 1,14,15
 491.714209488 434.740234375 491.714209488 434.740234375 577.470542043 672.012695312 c 2,16,17
 582.958329977 683.681640625 582.958329977 683.681640625 594.165411566 691.840820312 c 128,-1,18
 605.371390746 700 605.371390746 700 623 700 c 2,19,-1
 695 700 l 2,20,21
 713.348632812 700 713.348632812 700 726.673828125 686.673828125 c 0,22,23
 740 674.26953125 740 674.26953125 740 657.189453125 c 2,24,25
 790 350 790 350 790 42.810546875 c 2,26,27
 790 25.73046875 790 25.73046875 776.673828125 13.326171875 c 0,28,29
 763.348632812 0 763.348632812 0 745 0 c 2,30,-1
 672 0 l 2,31,32
 647.655081955 0 647.655081955 0 629.975247651 13.326171875 c 128,-1,33
 612.294117647 26.6513671875 612.294117647 26.6513671875 612.294117647 45 c 2,34,35
 612.294117647 161.43359375 612.294117647 161.43359375 612.294117647 227.866210938 c 1,36,37
 567.352743311 153.295898438 567.352743311 153.295898438 522.412664675 28.724609375 c 1,38,39
 504.822233711 0 504.822233711 0 469 0 c 2,40,-1
 393 0 l 2,41,42
 372.433898133 0 372.433898133 0 357.01514306 10.224609375 c 0,43,44
 346.871803977 16.9501953125 346.871803977 16.9501953125 339.666294643 28.7353515625 c 1,45,46
 294.138342127 155.080078125 294.138342127 155.080078125 248.61038961 231.42578125 c 1,47,48
 248.61038961 163.212890625 248.61038961 163.212890625 248.61038961 45 c 2,49,50
 248.61038961 26.6513671875 248.61038961 26.6513671875 230.957538555 13.326171875 c 128,-1,51
 213.305981128 0 213.305981128 0 189 0 c 2,52,-1
 115 0 l 2,53,54
 96.6513671875 0 96.6513671875 0 83.326171875 13.326171875 c 0,0,1
EndSplineSet
EndChar

StartChar: n
Encoding: 110 110 41
Width: 607
GlyphClass: 1
Flags: W
LayerCount: 2
Fore
SplineSet
83.326171875 13.326171875 m 0,0,1
 70 25.73046875 70 25.73046875 70 42.810546875 c 2,2,3
 70 350 70 350 70 657.189453125 c 2,4,5
 70 674.26953125 70 674.26953125 83.326171875 686.673828125 c 0,6,7
 96.6513671875 700 96.6513671875 700 115 700 c 2,8,-1
 180 700 l 2,9,10
 196.289408366 700 196.289408366 700 211.096842448 692.951171875 c 128,-1,11
 225.90427653 685.90234375 225.90427653 685.90234375 232.290059408 671.592773438 c 2,12,13
 298.785654704 510.247070312 298.785654704 510.247070312 365.28125 398.900390625 c 1,14,15
 365.28125 501.950195312 365.28125 501.950195312 365.28125 655 c 2,16,17
 365.28125 673.348632812 365.28125 673.348632812 382.077779134 686.673828125 c 128,-1,18
 398.873077393 700 398.873077393 700 422 700 c 2,19,-1
 492 700 l 2,20,21
 510.348632812 700 510.348632812 700 523.673828125 686.673828125 c 0,22,23
 537 674.26953125 537 674.26953125 537 657.189453125 c 2,24,25
 537 350 537 350 537 42.810546875 c 2,26,27
 537 25.73046875 537 25.73046875 523.673828125 13.326171875 c 0,28,29
 510.348632812 0 510.348632812 0 492 0 c 2,30,-1
 424 0 l 2,31,32
 409.70232137 0 409.70232137 0 395.968210856 5.9931640625 c 0,33,34
 381.667897542 12.2333984375 381.667897542 12.2333984375 373.872762044 26.6337890625 c 2,35,36
 309.077006022 178.622070312 309.077006022 178.622070312 244.28125 280.611328125 c 1,37,38
 244.28125 187.805664062 244.28125 187.805664062 244.28125 45 c 2,39,40
 244.28125 26.6513671875 244.28125 26.6513671875 227.484720866 13.326171875 c 128,-1,41
 210.689422607 0 210.689422607 0 187.5625 0 c 2,42,-1
 115 0 l 2,43,44
 96.6513671875 0 96.6513671875 0 83.326171875 13.326171875 c 0,0,1
EndSplineSet
EndChar

StartChar: o
Encoding: 111 111 42
Width: 558
GlyphClass: 1
Flags: W
LayerCount: 2
Fore
SplineSet
50 186.634765625 m 1,0,1
 50 349.249023438 50 349.249023438 50 511.897460938 c 2,2,3
 50 573.436523438 50 573.436523438 79.7236328125 618.13671875 c 128,-1,4
 109.337890625 662.666015625 109.337890625 662.666015625 156.086914062 685.485351562 c 0,5,6
 212.608765179 710 212.608765179 710 278.995512449 710 c 128,-1,7
 345.383526932 710 345.383526932 710 401.905273438 685.485351562 c 0,8,9
 448.654296875 662.666015625 448.654296875 662.666015625 478.268554688 618.13671875 c 128,-1,10
 507.99609375 573.436523438 507.99609375 573.436523438 507.99609375 511.897460938 c 2,11,12
 507.99609375 349.249023438 507.99609375 349.249023438 507.99609375 186.634765625 c 1,13,14
 506.8828125 125.489257812 506.8828125 125.489257812 477.8515625 80.4541015625 c 128,-1,15
 448.8203125 35.41796875 448.8203125 35.41796875 401.989257812 12.55859375 c 0,16,17
 345.383526932 -12 345.383526932 -12 278.995512449 -12 c 128,-1,18
 212.608765179 -12 212.608765179 -12 156.00390625 12.55859375 c 0,19,20
 109.171875 35.41796875 109.171875 35.41796875 80.142578125 80.4541015625 c 128,-1,21
 51.11328125 125.489257812 51.11328125 125.489257812 50 186.634765625 c 1,0,1
246.050512535 162.884765625 m 0,22,23
 260.945332482 150 260.945332482 150 278.995512449 150 c 0,24,25
 328.865407312 150 328.865407312 150 330.900551164 210.680664062 c 1,26,27
 330.900551164 349.612304688 330.900551164 349.612304688 330.900551164 488.572265625 c 2,28,29
 330.900551164 520.393554688 330.900551164 520.393554688 313.824857886 536.310546875 c 0,30,31
 300.211190139 549 300.211190139 549 280.650492443 549 c 128,-1,32
 261.089794748 549 261.089794748 549 244.090134241 534.07421875 c 128,-1,33
 227.090473735 519.149414062 227.090473735 519.149414062 227.090473735 488.572265625 c 2,34,35
 227.090473735 349.615234375 227.090473735 349.615234375 227.090473735 210.686523438 c 2,36,37
 228.209422689 178.317382812 228.209422689 178.317382812 246.050512535 162.884765625 c 0,22,23
EndSplineSet
EndChar

StartChar: p
Encoding: 112 112 43
Width: 574
GlyphClass: 1
Flags: W
LayerCount: 2
Fore
SplineSet
83.326171875 13.326171875 m 0,0,1
 70 25.73046875 70 25.73046875 70 42.810546875 c 2,2,3
 70 350 70 350 70 657.189453125 c 2,4,5
 70 674.26953125 70 674.26953125 83.326171875 686.673828125 c 0,6,7
 96.6513671875 700 96.6513671875 700 115 700 c 2,8,-1
 269 700 l 2,9,10
 431.024414062 700 431.024414062 700 485.01171875 643.950195312 c 128,-1,11
 539 587.900390625 539 587.900390625 539 474.5 c 128,-1,12
 539 361.172851562 539 361.172851562 485.551757812 305.0859375 c 128,-1,13
 432.103515625 249 432.103515625 249 269 249 c 2,14,-1
 234 249 l 1,15,-1
 234 41.9619140625 l 2,16,17
 234 25.3740234375 234 25.3740234375 220.673828125 13.326171875 c 0,18,19
 207.348632812 0 207.348632812 0 189 0 c 2,20,-1
 115 0 l 2,21,22
 96.6513671875 0 96.6513671875 0 83.326171875 13.326171875 c 0,0,1
234 411 m 1,23,-1
 293 411 l 2,24,25
 331.53125 411 331.53125 411 339.823730469 420.0546875 c 0,26,27
 354.5 436.077148438 354.5 436.077148438 354.5 474.5 c 128,-1,28
 354.5 512.922851562 354.5 512.922851562 339.823730469 528.9453125 c 0,29,30
 331.53125 538 331.53125 538 293 538 c 2,31,-1
 234 538 l 1,32,-1
 234 411 l 1,23,-1
EndSplineSet
EndChar

StartChar: q
Encoding: 113 113 44
Width: 558
GlyphClass: 1
Flags: W
LayerCount: 2
Fore
SplineSet
480.670898438 24.9013671875 m 2,0,1
 454.670898438 22.3671875 454.670898438 22.3671875 428.670898438 -23.673828125 c 2,2,3
 415.344726562 -37 415.344726562 -37 397.165039062 -37 c 0,4,5
 376.303520698 -37 376.303520698 -37 359.093502856 -24.0693359375 c 2,6,7
 347.542857644 9.1962890625 347.542857644 9.1962890625 335.990945219 -7.5380859375 c 1,8,9
 308.616613034 -12 308.616613034 -12 278.995512449 -12 c 0,10,11
 212.608765179 -12 212.608765179 -12 156.00390625 12.55859375 c 0,12,13
 109.171875 35.41796875 109.171875 35.41796875 80.142578125 80.4541015625 c 128,-1,14
 51.11328125 125.489257812 51.11328125 125.489257812 50 186.634765625 c 1,15,16
 50 349.249023438 50 349.249023438 50 511.897460938 c 2,17,18
 50 573.436523438 50 573.436523438 79.7236328125 618.13671875 c 128,-1,19
 109.337890625 662.666015625 109.337890625 662.666015625 156.086914062 685.485351562 c 0,20,21
 212.608765179 710 212.608765179 710 278.995512449 710 c 128,-1,22
 345.383526932 710 345.383526932 710 401.905273438 685.485351562 c 0,23,24
 448.654296875 662.5859375 448.654296875 662.5859375 478.268554688 617.897460938 c 128,-1,25
 507.99609375 573.0390625 507.99609375 573.0390625 507.99609375 511.282226562 c 2,26,27
 507.99609375 346.965820312 507.99609375 346.965820312 507.99609375 184.913085938 c 2,28,29
 507.0703125 126.935546875 507.0703125 126.935546875 480.924804688 83.837890625 c 1,30,31
 493.99609375 71.42578125 493.99609375 71.42578125 493.99609375 54.3876953125 c 128,-1,32
 493.99609375 37.3486328125 493.99609375 37.3486328125 480.670898438 24.9013671875 c 2,0,1
246.050512535 162.884765625 m 0,33,34
 260.945332482 150 260.945332482 150 278.995512449 150 c 0,35,36
 328.865407312 150 328.865407312 150 330.900551164 210.680664062 c 1,37,38
 330.900551164 349.612304688 330.900551164 349.612304688 330.900551164 488.572265625 c 2,39,40
 330.900551164 520.393554688 330.900551164 520.393554688 313.824857886 536.310546875 c 0,41,42
 300.211190139 549 300.211190139 549 280.650492443 549 c 128,-1,43
 261.089794748 549 261.089794748 549 244.090134241 534.07421875 c 128,-1,44
 227.090473735 519.149414062 227.090473735 519.149414062 227.090473735 488.572265625 c 2,45,46
 227.090473735 349.615234375 227.090473735 349.615234375 227.090473735 210.686523438 c 2,47,48
 228.209422689 178.317382812 228.209422689 178.317382812 246.050512535 162.884765625 c 0,33,34
EndSplineSet
EndChar

StartChar: r
Encoding: 114 114 45
Width: 609
GlyphClass: 1
Flags: W
LayerCount: 2
Fore
SplineSet
83.326171875 13.326171875 m 0,0,1
 70 25.73046875 70 25.73046875 70 42.810546875 c 2,2,3
 70 350 70 350 70 657.189453125 c 2,4,5
 70 674.26953125 70 674.26953125 83.326171875 686.673828125 c 0,6,7
 96.6513671875 700 96.6513671875 700 115 700 c 2,8,-1
 293.242424242 700 l 2,9,10
 431.024414062 700 431.024414062 700 485.01171875 644.859375 c 128,-1,11
 539 589.71875 539 589.71875 539 478.158203125 c 0,12,13
 539 391.95703125 539 391.95703125 508.370117188 340.56640625 c 0,14,15
 482.451171875 297.080078125 482.451171875 297.080078125 431.790039062 275.549804688 c 1,16,17
 477.987304688 181.90234375 477.987304688 181.90234375 524.184570312 62.779296875 c 2,18,19
 528 53.130859375 528 53.130859375 528 44.7294921875 c 0,20,21
 528 26.1845703125 528 26.1845703125 513.405273438 13.552734375 c 0,22,23
 498.810546875 0 498.810546875 0 479 0 c 2,24,-1
 404 0 l 2,25,26
 388.680486506 0 388.680486506 0 374.482037169 5.9931640625 c 0,27,28
 359.677882339 12.2421875 359.677882339 12.2421875 351.620472301 26.6689453125 c 2,29,30
 299.629054214 150.668945312 299.629054214 150.668945312 247.636363636 224.668945312 c 1,31,32
 247.636363636 159.833984375 247.636363636 159.833984375 247.636363636 45 c 2,33,34
 247.636363636 26.6513671875 247.636363636 26.6513671875 230.27195786 13.326171875 c 128,-1,35
 212.908824574 0 212.908824574 0 189 0 c 2,36,-1
 115 0 l 2,37,38
 96.6513671875 0 96.6513671875 0 83.326171875 13.326171875 c 0,0,1
247.636363636 386 m 1,39,-1
 314.090909091 386 l 2,40,41
 347.5625 386 347.5625 386 354.766068892 396.836914062 c 0,42,43
 367.515151515 416.013671875 367.515151515 416.013671875 367.515151515 462 c 128,-1,44
 367.515151515 507.986328125 367.515151515 507.986328125 354.766068892 527.163085938 c 0,45,46
 347.5625 538 347.5625 538 314.090909091 538 c 2,47,-1
 247.636363636 538 l 1,48,49
 247.636363636 437 247.636363636 437 247.636363636 386 c 1,39,-1
EndSplineSet
EndChar

StartChar: s
Encoding: 115 115 46
Width: 527
GlyphClass: 1
Flags: W
LayerCount: 2
Fore
SplineSet
51 163.930664062 m 1,0,1
 51 189.465820312 51 189.465820312 51 165 c 1,2,3
 51 191 51 191 51 167 c 2,4,5
 51 186.991210938 51 186.991210938 64.6416015625 199.495117188 c 128,-1,6
 78.2822265625 212 78.2822265625 212 97 212 c 2,7,-1
 171.364963504 212 l 2,8,9
 195.467766309 212 195.467766309 212 212.148580064 200.890625 c 128,-1,10
 228.829393818 189.780273438 228.829393818 189.780273438 232.27379391 173.435546875 c 0,11,12
 235.39828068 163.201171875 235.39828068 163.201171875 241.833870324 159.100585938 c 128,-1,13
 248.27079294 155 248.27079294 155 255.99270073 155 c 0,14,15
 270.772696168 155 270.772696168 155 284.539632755 165.301757812 c 128,-1,16
 298.306569343 175.603515625 298.306569343 175.603515625 298.306569343 197.706054688 c 128,-1,17
 298.306569343 219.80859375 298.306569343 219.80859375 270.204850023 245.830078125 c 128,-1,18
 242.103130703 271.8515625 242.103130703 271.8515625 179.597399635 314.592773438 c 0,19,20
 116.513671875 371.775390625 116.513671875 371.775390625 84.791015625 414.55078125 c 0,21,22
 50 461.462890625 50 461.462890625 50 519.212890625 c 128,-1,23
 50 576.962890625 50 576.962890625 77.4541015625 620.348632812 c 128,-1,24
 104.907226562 663.734375 104.907226562 663.734375 149.80078125 685.826171875 c 0,25,26
 203.706867302 710 203.706867302 710 271.00729927 710 c 0,27,28
 363.151367188 710 363.151367188 710 416.096679688 665.200195312 c 128,-1,29
 469.04296875 620.399414062 469.04296875 620.399414062 476 538.069335938 c 1,30,31
 476 512.534179688 476 512.534179688 476 537 c 1,32,33
 476 511 476 511 476 535 c 2,34,35
 476 515.008789062 476 515.008789062 462.358398438 502.504882812 c 128,-1,36
 448.717773438 490 448.717773438 490 430 490 c 2,37,-1
 355.635036496 490 l 2,38,39
 331.532233691 490 331.532233691 490 314.851419936 501.109375 c 128,-1,40
 298.171939154 512.21875 298.171939154 512.21875 294.72620609 528.5625 c 0,41,42
 289.399649293 546 289.399649293 546 271.00729927 546 c 0,43,44
 255.955377509 546 255.955377509 546 242.324404083 536.069335938 c 128,-1,45
 228.693430657 526.138671875 228.693430657 526.138671875 228.693430657 505.793945312 c 0,46,47
 228.693430657 480.408203125 228.693430657 480.408203125 252.758910242 458.5703125 c 0,48,49
 281.719063641 432.290039062 281.719063641 432.290039062 340.61643904 394.677734375 c 0,50,51
 388.147460938 357.065429688 388.147460938 357.065429688 413.6875 329.837890625 c 128,-1,52
 439.227539062 302.611328125 439.227539062 302.611328125 458.114257812 265.55859375 c 128,-1,53
 477 228.505859375 477 228.505859375 477 184.1484375 c 0,54,55
 477 125.01953125 477 125.01953125 449.545898438 81.640625 c 128,-1,56
 422.092773438 38.2626953125 422.092773438 38.2626953125 377.19921875 16.173828125 c 0,57,58
 323.293132698 -8 323.293132698 -8 255.99270073 -8 c 0,59,60
 163.848632812 -8 163.848632812 -8 110.903320312 36.7998046875 c 128,-1,61
 57.95703125 81.6005859375 57.95703125 81.6005859375 51 163.930664062 c 1,0,1
EndSplineSet
EndChar

StartChar: t
Encoding: 116 116 47
Width: 558
GlyphClass: 1
Flags: W
LayerCount: 2
Fore
SplineSet
211.688986707 13.326171875 m 0,0,1
 188.417910448 25.4921875 188.417910448 25.4921875 188.417910448 42.244140625 c 2,2,3
 188.417910448 288.864257812 188.417910448 288.864257812 177.288461538 538 c 1,4,-1
 75 538 l 2,5,6
 56.6513671875 538 56.6513671875 538 43.326171875 551.326171875 c 128,-1,7
 30 564.651367188 30 564.651367188 30 583 c 2,8,9
 30 594 30 594 30 655 c 2,10,11
 30 673.348632812 30 673.348632812 43.326171875 686.673828125 c 128,-1,12
 56.6513671875 700 56.6513671875 700 75 700 c 2,13,-1
 483 700 l 2,14,15
 501.348632812 700 501.348632812 700 514.673828125 686.673828125 c 128,-1,16
 528 673.348632812 528 673.348632812 528 655 c 2,17,18
 528 594 528 594 528 583 c 2,19,20
 528 564.651367188 528 564.651367188 514.673828125 551.326171875 c 128,-1,21
 501.348632812 538 501.348632812 538 483 538 c 2,22,-1
 380.711538462 538 l 1,23,24
 419.582089552 288.864257812 419.582089552 288.864257812 419.582089552 42.244140625 c 2,25,26
 419.582089552 25.4921875 419.582089552 25.4921875 396.311013293 13.326171875 c 0,27,28
 373.041642374 0 373.041642374 0 341 0 c 2,29,-1
 267 0 l 2,30,31
 234.958357626 0 234.958357626 0 211.688986707 13.326171875 c 0,0,1
EndSplineSet
EndChar

StartChar: u
Encoding: 117 117 48
Width: 630
GlyphClass: 1
Flags: W
LayerCount: 2
Fore
SplineSet
100.295898438 108.387695312 m 128,-1,1
 70 166.287109375 70 166.287109375 70 245.13671875 c 2,2,3
 70 444.359375 70 444.359375 70 657.2109375 c 2,4,5
 70 674.278320312 70 674.278320312 83.326171875 686.673828125 c 0,6,7
 96.6513671875 700 96.6513671875 700 115 700 c 2,8,-1
 189 700 l 2,9,10
 211.890373608 700 211.890373608 700 228.513884592 686.673828125 c 0,11,12
 245.138613861 674.482421875 245.138613861 674.482421875 245.138613861 657.6953125 c 2,13,14
 245.138613861 451.875 245.138613861 451.875 245.138613861 252.385742188 c 2,15,16
 245.138613861 199.759765625 245.138613861 199.759765625 269.969716894 172.064453125 c 0,17,18
 290.648901609 149 290.648901609 149 315 149 c 128,-1,19
 339.47901841 149 339.47901841 149 360.139928837 171.728515625 c 0,20,21
 384.861386139 198.923828125 384.861386139 198.923828125 384.861386139 251.470703125 c 2,22,23
 384.861386139 451.456054688 384.861386139 451.456054688 384.861386139 657.6953125 c 2,24,25
 384.861386139 674.482421875 384.861386139 674.482421875 401.486115408 686.673828125 c 0,26,27
 418.109626392 700 418.109626392 700 441 700 c 2,28,-1
 515 700 l 2,29,30
 533.348632812 700 533.348632812 700 546.673828125 686.673828125 c 0,31,32
 560 674.278320312 560 674.278320312 560 657.2109375 c 2,33,34
 560 443.922851562 560 443.922851562 560 244.203125 c 2,35,36
 560 165.310546875 560 165.310546875 529.668945312 107.856445312 c 128,-1,37
 499.336914062 50.4013671875 499.336914062 50.4013671875 448.349609375 20.3642578125 c 0,38,39
 386.419573793 -12 386.419573793 -12 314.333597618 -12 c 128,-1,40
 242.247621442 -12 242.247621442 -12 181.04296875 20.431640625 c 0,41,0
 130.592773438 50.4873046875 130.592773438 50.4873046875 100.295898438 108.387695312 c 128,-1,1
EndSplineSet
EndChar

StartChar: v
Encoding: 118 118 49
Width: 579
GlyphClass: 1
Flags: W
LayerCount: 2
Fore
SplineSet
64.6025390625 683.860351562 m 0,0,1
 78.58984375 700 78.58984375 700 100 700 c 2,2,-1
 169 700 l 2,3,4
 191.280769388 700 191.280769388 700 206.902691427 688.744140625 c 128,-1,5
 222.525845672 677.489257812 222.525845672 677.489257812 225.437551129 661.69140625 c 2,6,7
 257.784220591 467.69921875 257.784220591 467.69921875 290.130890052 323.708007812 c 1,8,9
 322.477559514 467.698242188 322.477559514 467.698242188 354.822996769 661.689453125 c 2,10,11
 357.610249305 676.828125 357.610249305 676.828125 372.229154737 688.4140625 c 128,-1,12
 386.848060169 700 386.848060169 700 410 700 c 2,13,-1
 479 700 l 2,14,15
 500.41015625 700 500.41015625 700 514.397460938 683.860351562 c 0,16,17
 525.470703125 671.96875 525.470703125 671.96875 525.470703125 656.595703125 c 0,18,19
 525.470703125 652.53515625 525.470703125 652.53515625 524.650390625 648.418945312 c 2,20,21
 475.69921875 342.86328125 475.69921875 342.86328125 426.748046875 36.58203125 c 2,22,23
 424.57421875 22.421875 424.57421875 22.421875 412.961914062 11.61328125 c 0,24,25
 399.083877004 0 399.083877004 0 375.931937173 0 c 2,26,-1
 204.329842932 0 l 2,27,28
 181.1779031 0 181.1779031 0 167.0390625 11.6123046875 c 0,29,30
 155.42578125 22.421875 155.42578125 22.421875 153.279296875 36.4111328125 c 0,31,32
 153.251953125 36.58203125 153.251953125 36.58203125 54.353515625 648.3984375 c 0,33,34
 53.529296875 652.525390625 53.529296875 652.525390625 53.529296875 656.595703125 c 0,35,36
 53.529296875 671.96875 53.529296875 671.96875 64.6025390625 683.860351562 c 0,0,1
EndSplineSet
EndChar

StartChar: w
Encoding: 119 119 50
Width: 844
GlyphClass: 1
Flags: W
LayerCount: 2
Fore
SplineSet
66.3173828125 686.228515625 m 0,0,1
 79.1044921875 700 79.1044921875 700 100 700 c 2,2,-1
 174 700 l 2,3,4
 197.246242089 700 197.246242089 700 213.583662975 688.717773438 c 128,-1,5
 229.922369462 677.435546875 229.922369462 677.435546875 232.872824367 661.749023438 c 0,6,7
 232.897250791 661.62109375 232.897250791 661.62109375 277.192642405 438.271484375 c 1,8,9
 300.159909019 525.510742188 300.159909019 525.510742188 323.127175633 662.749023438 c 2,10,11
 326.336036392 679.24609375 326.336036392 679.24609375 343.032140032 689.623046875 c 128,-1,12
 359.728243671 700 359.728243671 700 382 700 c 2,13,-1
 463 700 l 2,14,15
 485.305856887 700 485.305856887 700 502.027524134 689.623046875 c 128,-1,16
 518.749191381 679.24609375 518.749191381 679.24609375 521.962965267 662.749023438 c 2,17,18
 544.965397343 525.510742188 544.965397343 525.510742188 567.967829419 438.271484375 c 1,19,20
 590.14364177 524.916015625 590.14364177 524.916015625 612.31945412 661.560546875 c 2,21,22
 615.185584196 676.7734375 615.185584196 676.7734375 630.49607509 688.38671875 c 128,-1,23
 645.807853553 700 645.807853553 700 670 700 c 2,24,-1
 744 700 l 2,25,26
 764.895507812 700 764.895507812 700 777.682617188 686.228515625 c 0,27,28
 790.470703125 673.405273438 790.470703125 673.405273438 790.470703125 657.108398438 c 0,29,30
 790.470703125 652.89453125 790.470703125 652.89453125 789.639648438 648.536132812 c 2,31,32
 685.5390625 341.6328125 685.5390625 341.6328125 631.4375 33.7626953125 c 1,33,34
 627.073242188 19.5419921875 627.073242188 19.5419921875 615.830078125 10.119140625 c 0,35,36
 604.586914062 0 604.586914062 0 588 0 c 2,37,-1
 506 0 l 2,38,39
 484.476504371 0 484.476504371 0 469.887160528 10.119140625 c 128,-1,40
 455.297816685 20.23828125 455.297816685 20.23828125 449.651146298 35.46875 c 1,41,42
 423.727911086 179.70703125 423.727911086 179.70703125 397.80594308 273.944335938 c 1,43,44
 371.066627139 179.67578125 371.066627139 179.67578125 344.326043992 35.4072265625 c 1,45,46
 338.702183315 20.23828125 338.702183315 20.23828125 324.112839472 10.119140625 c 128,-1,47
 309.523495629 0 309.523495629 0 288 0 c 2,48,-1
 207 0 l 2,49,50
 190.413085938 0 190.413085938 0 179.169921875 10.119140625 c 0,51,52
 167.926757812 19.5419921875 167.926757812 19.5419921875 163.567382812 33.74609375 c 1,53,54
 108.965820312 341.616210938 108.965820312 341.616210938 54.36328125 648.517578125 c 2,55,56
 54 653.42578125 54 653.42578125 53.529296875 657.108398438 c 0,57,58
 53.529296875 673.405273438 53.529296875 673.405273438 66.3173828125 686.228515625 c 0,0,1
EndSplineSet
EndChar

StartChar: x
Encoding: 120 120 51
Width: 599
GlyphClass: 1
Flags: W
LayerCount: 2
Fore
SplineSet
75.5947265625 13.552734375 m 0,0,1
 61 26.166015625 61 26.166015625 61 44.68359375 c 0,2,3
 61 52.197265625 61 52.197265625 64.5234375 62.037109375 c 2,4,5
 127.751953125 217.203125 127.751953125 217.203125 194.101613363 352.668945312 c 1,6,7
 127.767578125 484.729492188 127.767578125 484.729492188 64.5537109375 636.89453125 c 2,8,9
 61 646.818359375 61 646.818359375 61 654.33203125 c 0,10,11
 61 672.33984375 61 672.33984375 75.326171875 685.673828125 c 0,12,13
 89.6513671875 700 89.6513671875 700 110 700 c 2,14,-1
 179 700 l 2,15,16
 195.289408366 700 195.289408366 700 210.091918945 692.953125 c 128,-1,17
 224.894429525 685.907226562 224.894429525 685.907226562 231.282674154 671.607421875 c 2,18,19
 265.641337077 576.361328125 265.641337077 576.361328125 300 531.115234375 c 1,20,21
 334.358662923 576.361328125 334.358662923 576.361328125 368.717325846 671.607421875 c 2,22,23
 375.105570475 685.907226562 375.105570475 685.907226562 389.908081055 692.953125 c 128,-1,24
 404.710591634 700 404.710591634 700 421 700 c 2,25,-1
 489 700 l 2,26,27
 508.810546875 700 508.810546875 700 523.405273438 686.447265625 c 0,28,29
 538 673.833007812 538 673.833007812 538 655.313476562 c 0,30,31
 538 647.799804688 538 647.799804688 534.4609375 637.916992188 c 2,32,33
 471.721679688 485.262695312 471.721679688 485.262695312 405.854075114 352.709960938 c 1,34,35
 471.595703125 217.52734375 471.595703125 217.52734375 534.20703125 62.658203125 c 2,36,37
 538 53.044921875 538 53.044921875 538 44.6865234375 c 0,38,39
 538 26.1669921875 538 26.1669921875 523.405273438 13.552734375 c 0,40,41
 508.810546875 0 508.810546875 0 489 0 c 2,42,-1
 421 0 l 2,43,44
 401.317067464 0 401.317067464 0 388.805216471 8.1591796875 c 128,-1,45
 376.292134603 16.318359375 376.292134603 16.318359375 370.290384928 27.748046875 c 2,46,47
 335.145192464 125.810546875 335.145192464 125.810546875 300 173.873046875 c 1,48,49
 265.034515381 126.18359375 265.034515381 126.18359375 230.067799886 28.4931640625 c 2,50,51
 223.419840495 13.400390625 223.419840495 13.400390625 207.354451497 5.8466796875 c 0,52,53
 194.917683919 0 194.917683919 0 179 0 c 2,54,-1
 110 0 l 2,55,56
 90.189453125 0 90.189453125 0 75.5947265625 13.552734375 c 0,0,1
EndSplineSet
EndChar

StartChar: y
Encoding: 121 121 52
Width: 579
GlyphClass: 1
Flags: W
LayerCount: 2
Fore
SplineSet
203.442362467 13.326171875 m 0,0,1
 186.645833333 25.73046875 186.645833333 25.73046875 186.645833333 42.8095703125 c 2,2,3
 186.645833333 203.599609375 186.645833333 203.599609375 186.645833333 342.65625 c 1,4,5
 118.909179688 480.283203125 118.909179688 480.283203125 54.8173828125 637.283203125 c 2,6,7
 51 646.919921875 51 646.919921875 51 655.3125 c 0,8,9
 51 673.83203125 51 673.83203125 65.5947265625 686.447265625 c 0,10,11
 80.189453125 700 80.189453125 700 100 700 c 2,12,-1
 169 700 l 2,13,14
 188.682932536 700 188.682932536 700 201.194783529 691.840820312 c 128,-1,15
 213.707865397 683.681640625 213.707865397 683.681640625 219.709615072 672.251953125 c 2,16,17
 254.854807536 574.189453125 254.854807536 574.189453125 290 526.126953125 c 1,18,19
 325.06149292 574.014648438 325.06149292 574.014648438 360.121754964 671.90234375 c 2,20,21
 365.926564535 683.442382812 365.926564535 683.442382812 378.621815999 691.721679688 c 128,-1,22
 391.317067464 700 391.317067464 700 411 700 c 2,23,-1
 479 700 l 2,24,25
 498.810546875 700 498.810546875 700 513.405273438 686.447265625 c 0,26,27
 528 673.83203125 528 673.83203125 528 655.3125 c 0,28,29
 528 647.798828125 528 647.798828125 524.486328125 637.987304688 c 2,30,31
 460.743164062 480.626953125 460.743164062 480.626953125 393.354166667 342.688476562 c 1,32,33
 393.354166667 203.614257812 393.354166667 203.614257812 393.354166667 42.8095703125 c 2,34,35
 393.354166667 25.73046875 393.354166667 25.73046875 376.557637533 13.326171875 c 0,36,37
 359.762339274 0 359.762339274 0 336.635416667 0 c 2,38,-1
 243.364583333 0 l 2,39,40
 220.237660726 0 220.237660726 0 203.442362467 13.326171875 c 0,0,1
EndSplineSet
EndChar

StartChar: z
Encoding: 122 122 53
Width: 539
GlyphClass: 1
Flags: W
LayerCount: 2
Fore
SplineSet
63.326171875 13.326171875 m 0,0,1
 50 25.494140625 50 25.494140625 50 42.2490234375 c 2,2,3
 50 99.25390625 50 99.25390625 50 122.60546875 c 2,4,5
 50 131.298828125 50 131.298828125 53.255859375 137.579101562 c 2,6,7
 148.580078125 332.893554688 148.580078125 332.893554688 268.704396497 539 c 1,8,-1
 95 539 l 2,9,10
 76.6513671875 539 76.6513671875 539 63.326171875 552.326171875 c 128,-1,11
 50 565.651367188 50 565.651367188 50 584 c 2,12,13
 50 594.5 50 594.5 50 655 c 2,14,15
 50 673.348632812 50 673.348632812 63.326171875 686.673828125 c 128,-1,16
 76.6513671875 700 76.6513671875 700 95 700 c 2,17,-1
 444 700 l 2,18,19
 462.348632812 700 462.348632812 700 475.673828125 686.673828125 c 0,20,21
 489 674.505859375 489 674.505859375 489 657.750976562 c 2,22,23
 489 600.74609375 489 600.74609375 489 577.39453125 c 2,24,25
 489 568.643554688 489 568.643554688 485.685546875 562.307617188 c 2,26,27
 388.075195312 367.0546875 388.075195312 367.0546875 264.110764471 161 c 1,28,-1
 444 161 l 2,29,30
 462.348632812 161 462.348632812 161 475.673828125 147.673828125 c 128,-1,31
 489 134.348632812 489 134.348632812 489 116 c 2,32,33
 489 105.5 489 105.5 489 45 c 2,34,35
 489 26.6513671875 489 26.6513671875 475.673828125 13.326171875 c 128,-1,36
 462.348632812 0 462.348632812 0 444 0 c 2,37,-1
 95 0 l 2,38,39
 76.6513671875 0 76.6513671875 0 63.326171875 13.326171875 c 0,0,1
EndSplineSet
EndChar

StartChar: zero
Encoding: 48 48 54
Width: 558
GlyphClass: 1
Flags: W
LayerCount: 2
Fore
SplineSet
50 186.634765625 m 1,0,1
 50 349.249023438 50 349.249023438 50 511.897460938 c 2,2,3
 50 573.436523438 50 573.436523438 79.7236328125 618.13671875 c 128,-1,4
 109.337890625 662.666015625 109.337890625 662.666015625 156.086914062 685.485351562 c 0,5,6
 212.608765179 710 212.608765179 710 278.995512449 710 c 128,-1,7
 345.383526932 710 345.383526932 710 401.905273438 685.485351562 c 0,8,9
 448.654296875 662.666015625 448.654296875 662.666015625 478.268554688 618.13671875 c 128,-1,10
 507.99609375 573.436523438 507.99609375 573.436523438 507.99609375 511.897460938 c 2,11,12
 507.99609375 349.249023438 507.99609375 349.249023438 507.99609375 186.634765625 c 1,13,14
 506.8828125 125.489257812 506.8828125 125.489257812 477.8515625 80.4541015625 c 128,-1,15
 448.8203125 35.41796875 448.8203125 35.41796875 401.989257812 12.55859375 c 0,16,17
 345.383526932 -12 345.383526932 -12 278.995512449 -12 c 128,-1,18
 212.608765179 -12 212.608765179 -12 156.00390625 12.55859375 c 0,19,20
 109.171875 35.41796875 109.171875 35.41796875 80.142578125 80.4541015625 c 128,-1,21
 51.11328125 125.489257812 51.11328125 125.489257812 50 186.634765625 c 1,0,1
246.050512535 162.884765625 m 0,22,23
 260.945332482 150 260.945332482 150 278.995512449 150 c 0,24,25
 328.865407312 150 328.865407312 150 330.900551164 210.680664062 c 1,26,27
 330.900551164 349.612304688 330.900551164 349.612304688 330.900551164 488.572265625 c 2,28,29
 330.900551164 520.393554688 330.900551164 520.393554688 313.824857886 536.310546875 c 0,30,31
 300.211190139 549 300.211190139 549 280.650492443 549 c 128,-1,32
 261.089794748 549 261.089794748 549 244.090134241 534.07421875 c 128,-1,33
 227.090473735 519.149414062 227.090473735 519.149414062 227.090473735 488.572265625 c 2,34,35
 227.090473735 349.615234375 227.090473735 349.615234375 227.090473735 210.686523438 c 2,36,37
 228.209422689 178.317382812 228.209422689 178.317382812 246.050512535 162.884765625 c 0,22,23
EndSplineSet
EndChar

StartChar: one
Encoding: 49 49 55
Width: 401
GlyphClass: 1
Flags: W
LayerCount: 2
Fore
SplineSet
200.326171875 13.326171875 m 0,0,1
 187 25.7265625 187 25.7265625 187 42.8017578125 c 2,2,3
 187 249.202148438 187 249.202148438 187 440.776367188 c 1,4,5
 174.252929688 430.8671875 174.252929688 430.8671875 159.123046875 430.8671875 c 0,6,7
 142.822265625 430.8671875 142.822265625 430.8671875 128.772460938 441.092773438 c 2,8,9
 100.897460938 455.305664062 100.897460938 455.305664062 73.0234375 485.427734375 c 1,10,11
 57 500.338867188 57 500.338867188 57 514.928710938 c 0,12,13
 57 530.13671875 57 530.13671875 67.3681640625 542.98046875 c 2,14,15
 127.145507812 595.069335938 127.145507812 595.069335938 186.922851562 683.909179688 c 2,16,17
 198.5078125 700 198.5078125 700 220 700 c 2,18,-1
 306 700 l 2,19,20
 324.348632812 700 324.348632812 700 337.673828125 686.673828125 c 0,21,22
 351 674.26953125 351 674.26953125 351 657.189453125 c 2,23,24
 351 350 351 350 351 42.810546875 c 2,25,26
 351 25.73046875 351 25.73046875 337.673828125 13.326171875 c 0,27,28
 324.348632812 0 324.348632812 0 306 0 c 2,29,-1
 232 0 l 2,30,31
 213.651367188 0 213.651367188 0 200.326171875 13.326171875 c 0,0,1
EndSplineSet
EndChar

StartChar: two
Encoding: 50 50 56
Width: 563
GlyphClass: 1
Flags: W
LayerCount: 2
Fore
SplineSet
63.326171875 13.326171875 m 0,0,1
 50 25.513671875 50 25.513671875 50 42.2958984375 c 2,2,3
 50 98.66015625 50 98.66015625 50 120.954101562 c 2,4,5
 50 127.421875 50 127.421875 54.306640625 139.240234375 c 1,6,7
 83.8330078125 180.248046875 83.8330078125 180.248046875 144.588867188 247.856445312 c 0,8,9
 236.565661127 334.59375 236.565661127 334.59375 286.424449061 390.680664062 c 128,-1,10
 336.283236994 446.766601562 336.283236994 446.766601562 336.283236994 490.463867188 c 0,11,12
 336.283236994 521.575195312 336.283236994 521.575195312 320.319059339 535.288085938 c 128,-1,13
 304.354881684 549 304.354881684 549 286.011560694 549 c 0,14,15
 262.633015715 549 262.633015715 549 251.190469202 535.41015625 c 0,16,17
 240.506982704 522.720703125 240.506982704 522.720703125 236.830010387 492.213867188 c 0,18,19
 234.298551526 474.533203125 234.298551526 474.533203125 218.486689397 462.266601562 c 128,-1,20
 202.674827267 450 202.674827267 450 179.023121387 450 c 2,21,-1
 105 450 l 2,22,23
 85.6513671875 450 85.6513671875 450 72.75390625 462.897460938 c 128,-1,24
 59.857421875 475.794921875 59.857421875 475.794921875 59.857421875 494.224609375 c 0,25,26
 59.857421875 496.59765625 59.857421875 496.59765625 60.078125 499.024414062 c 0,27,28
 66.7841796875 600.334960938 66.7841796875 600.334960938 123.330078125 655.16796875 c 0,29,30
 182.730305049 710 182.730305049 710 292.456647399 710 c 0,31,32
 357.378307894 710 357.378307894 710 410.669921875 685.340820312 c 0,33,34
 455.973632812 662.828125 455.973632812 662.828125 484.498046875 619.079101562 c 128,-1,35
 513 575.364257812 513 575.364257812 513 515.521484375 c 128,-1,36
 513 455.6796875 513 455.6796875 485.909179688 398.939453125 c 128,-1,37
 458.817382812 342.200195312 458.817382812 342.200195312 423.24609375 297.958984375 c 0,38,39
 386.134472092 253.716796875 386.134472092 253.716796875 317.081410314 195.583007812 c 0,40,41
 294.171141167 176.376953125 294.171141167 176.376953125 276.541563177 161 c 1,42,-1
 444 161 l 2,43,44
 462.348632812 161 462.348632812 161 475.673828125 147.673828125 c 128,-1,45
 489 134.348632812 489 134.348632812 489 116 c 2,46,47
 489 105.5 489 105.5 489 45 c 2,48,49
 489 26.6513671875 489 26.6513671875 475.673828125 13.326171875 c 128,-1,50
 462.348632812 0 462.348632812 0 444 0 c 2,51,-1
 95 0 l 2,52,53
 76.6513671875 0 76.6513671875 0 63.326171875 13.326171875 c 0,0,1
EndSplineSet
EndChar

StartChar: three
Encoding: 51 51 57
Width: 557
GlyphClass: 1
Flags: W
LayerCount: 2
Fore
SplineSet
53 192.125976562 m 1,0,1
 53 217.563476562 53 217.563476562 53 193 c 1,2,3
 53 219 53 219 53 195 c 2,4,5
 53 213.991210938 53 213.991210938 66.59375 226.452148438 c 128,-1,6
 80.1865234375 238.912109375 80.1865234375 238.912109375 97.78515625 238.999023438 c 2,7,8
 133.892578125 264.500976562 133.892578125 264.500976562 170 240.002929688 c 2,9,10
 193.612548642 240.002929688 193.612548642 240.002929688 209.570738989 227.734375 c 128,-1,11
 225.528929337 215.466796875 225.528929337 215.466796875 228.072381058 197.864257812 c 0,12,13
 231.726210804 173.295898438 231.726210804 173.295898438 242.809663761 161.647460938 c 128,-1,14
 253.893116718 150 253.893116718 150 276.419561512 150 c 0,15,16
 289.651354559 150 289.651354559 150 299.175958734 153.083984375 c 128,-1,17
 308.700562908 156.16796875 308.700562908 156.16796875 315.253571889 164.141601562 c 0,18,19
 327.942880479 179.584960938 327.942880479 179.584960938 328.457414918 210.55078125 c 0,20,21
 328.434546721 252.926757812 328.434546721 252.926757812 313.330102406 282.690429688 c 0,22,23
 308.222871676 292.751953125 308.222871676 292.751953125 298.712242511 299.323242188 c 128,-1,24
 289.20034289 305.895507812 289.20034289 305.895507812 271.960263039 308.51171875 c 0,25,26
 250.690298641 310.752929688 250.690298641 310.752929688 236.235057038 321.614257812 c 128,-1,27
 221.779815435 332.475585938 221.779815435 332.475585938 221.779815435 348.166992188 c 2,28,29
 221.784897257 348.5546875 221.784897257 348.5546875 221.788708623 348.705078125 c 1,30,31
 222.435370424 365.280273438 222.435370424 365.280273438 223.082032226 385.809570312 c 2,32,33
 223.273870992 403.1875 223.273870992 403.1875 240.29924388 413.99609375 c 0,34,35
 252.697618182 421.8671875 252.697618182 421.8671875 271.723958333 424.212890625 c 0,36,37
 297.143230085 427.616210938 297.143230085 427.616210938 309.860488693 443.028320312 c 0,38,39
 325.855522248 462.412109375 325.855522248 462.412109375 325.855522248 490.858398438 c 128,-1,40
 325.855522248 519.3046875 325.855522248 519.3046875 307.752803176 535.575195312 c 0,41,42
 292.816058974 549 292.816058974 549 275.118615177 549 c 0,43,44
 251.523717387 549 251.523717387 549 239.975277752 535.41015625 c 0,45,46
 229.192922726 522.720703125 229.192922726 522.720703125 225.481922487 492.213867188 c 0,47,48
 222.927036666 474.533203125 222.927036666 474.533203125 206.968846319 462.266601562 c 128,-1,49
 191.010655971 450 191.010655971 450 168 450 c 2,50,-1
 96 450 l 2,51,52
 76.6513671875 450 76.6513671875 450 63.75390625 462.897460938 c 128,-1,53
 50.857421875 475.794921875 50.857421875 475.794921875 50.857421875 494.224609375 c 0,54,55
 50.857421875 496.59765625 50.857421875 496.59765625 51.078125 499.024414062 c 0,56,57
 57.7841796875 600.334960938 57.7841796875 600.334960938 114.330078125 655.16796875 c 128,-1,58
 170.881560528 710 170.881560528 710 281.623346852 710 c 0,59,60
 347.161059397 710 347.161059397 710 400.837890625 685.749023438 c 0,61,62
 445.298828125 661.48828125 445.298828125 661.48828125 472.149414062 613.482421875 c 128,-1,63
 499 565.4765625 499 565.4765625 499 499.932617188 c 0,64,65
 499 451.383789062 499 451.383789062 480.427734375 401.657226562 c 0,66,67
 467.395507812 366.764648438 467.395507812 366.764648438 449.802734375 342.4140625 c 1,68,69
 475.192382812 315.822265625 475.192382812 315.822265625 489.068359375 276.704101562 c 0,70,71
 507 226.150390625 507 226.150390625 507 149.8046875 c 0,72,73
 507 50.2724609375 507 50.2724609375 449.600585938 -6 c 0,74,75
 392.201171875 -12 392.201171875 -12 283.076747836 -12 c 0,76,77
 172.387050183 -12 172.387050183 -12 115.797851562 41.3662109375 c 0,78,79
 59.7275390625 94.5751953125 59.7275390625 94.5751953125 53 192.125976562 c 1,0,1
EndSplineSet
EndChar

StartChar: four
Encoding: 52 52 58
Width: 561
GlyphClass: 1
Flags: W
LayerCount: 2
Fore
SplineSet
298.391082764 13.326171875 m 0,0,1
 279.859375 23.8681640625 279.859375 23.8681640625 279.859375 38.3828125 c 2,2,-1
 279.859375 108 l 1,3,-1
 95 108 l 2,4,5
 76.6513671875 108 76.6513671875 108 63.326171875 120.763671875 c 128,-1,6
 50 133.52734375 50 133.52734375 50 151.1015625 c 2,7,8
 50 190.565429688 50 190.565429688 50 237.303710938 c 2,9,10
 50 246.599609375 50 246.599609375 53.4296875 253.357421875 c 2,11,12
 155.873046875 449.397460938 155.873046875 449.397460938 292.815002441 675.516601562 c 2,13,14
 301.88394165 689.0390625 301.88394165 689.0390625 319.575027466 695.400390625 c 0,15,16
 332.369049072 700 332.369049072 700 348 700 c 2,17,-1
 417 700 l 2,18,19
 435.348632812 700 435.348632812 700 448.673828125 686.673828125 c 0,20,21
 462 674.104492188 462 674.104492188 462 656.796875 c 2,22,-1
 462 271 l 1,23,-1
 466 271 l 2,24,25
 484.348632812 271 484.348632812 271 497.673828125 257.673828125 c 128,-1,26
 511 244.348632812 511 244.348632812 511 226 c 2,27,-1
 511 153 l 2,28,29
 511 134.651367188 511 134.651367188 497.673828125 121.326171875 c 128,-1,30
 484.348632812 108 484.348632812 108 466 108 c 2,31,-1
 462 108 l 1,32,-1
 462 38.3828125 l 2,33,34
 462 23.8681640625 462 23.8681640625 448.673828125 13.326171875 c 0,35,36
 435.348632812 0 435.348632812 0 417 0 c 2,37,-1
 342.4375 0 l 2,38,39
 316.921432495 0 316.921432495 0 298.391082764 13.326171875 c 0,0,1
259.473953247 271 m 1,40,-1
 279.859375 271 l 1,41,-1
 279.859375 304.265625 l 1,42,-1
 259.473953247 271 l 1,40,-1
EndSplineSet
EndChar

StartChar: five
Encoding: 53 53 59
Width: 543
GlyphClass: 1
Flags: W
LayerCount: 2
Fore
SplineSet
51 191.125976562 m 1,0,1
 51 216.563476562 51 216.563476562 51 192 c 1,2,3
 51 218 51 218 51 194 c 2,4,5
 51 213.991210938 51 213.991210938 64.5927734375 226.451171875 c 128,-1,6
 78.185546875 238.911132812 78.185546875 238.911132812 95.78125 238.999023438 c 2,7,8
 131.211914062 264.498046875 131.211914062 264.498046875 166.641601562 239.997070312 c 1,9,-1
 167 239.997070312 l 2,10,11
 190.068699118 239.997070312 190.068699118 239.997070312 206.370470683 227.732421875 c 128,-1,12
 222.672242249 215.466796875 222.672242249 215.466796875 225.293815258 197.712890625 c 0,13,14
 229.540244409 168.157226562 229.540244409 168.157226562 245.756360619 153.442382812 c 0,15,16
 258.365867229 142 258.365867229 142 273.041484845 142 c 128,-1,17
 287.71710246 142 287.71710246 142 302.383635417 156.33203125 c 0,18,19
 321.172007915 174.693359375 321.172007915 174.693359375 321.172007915 209.629882812 c 2,20,21
 321.172007915 257.291015625 321.172007915 257.291015625 321.172007915 283.489257812 c 2,22,23
 321.172007915 313.955078125 321.172007915 313.955078125 303.223317464 328.977539062 c 128,-1,24
 285.275924822 344 285.275924822 344 266.684819203 344 c 0,25,26
 255.264105105 344 255.264105105 344 246.232656309 340.78125 c 128,-1,27
 237.201207513 337.5625 237.201207513 337.5625 229.919204468 328.963867188 c 0,28,29
 212.205417341 306.713867188 212.205417341 306.713867188 180.736158768 306.713867188 c 0,30,31
 176.902432695 306.713867188 176.902432695 306.713867188 89.439453125 318.250976562 c 0,32,33
 74.2255859375 320.424804688 74.2255859375 320.424804688 62.61328125 332.038085938 c 0,34,35
 51 343.176757812 51 343.176757812 51 360.776367188 c 2,36,37
 51 497.748046875 51 497.748046875 51 657.153320312 c 2,38,39
 51 674.254882812 51 674.254882812 64.326171875 686.673828125 c 0,40,41
 77.6513671875 700 77.6513671875 700 96 700 c 2,42,-1
 412 700 l 2,43,44
 430.348632812 700 430.348632812 700 443.673828125 686.673828125 c 128,-1,45
 457 673.348632812 457 673.348632812 457 655 c 2,46,47
 457 593 457 593 457 581 c 2,48,49
 457 562.651367188 457 562.651367188 443.673828125 549.326171875 c 128,-1,50
 430.348632812 536 430.348632812 536 412 536 c 2,51,-1
 229.474056179 536 l 1,52,-1
 229.474056179 502.58203125 l 1,53,54
 250.772390163 505 250.772390163 505 273.329598314 505 c 0,55,56
 340.375679109 505 340.375679109 505 392.392578125 481.885742188 c 0,57,58
 436.334960938 458.771484375 436.334960938 458.771484375 463.112304688 413.21875 c 128,-1,59
 489.889648438 367.665039062 489.889648438 367.665039062 490.99609375 305.516601562 c 2,60,61
 491.99609375 260.763671875 491.99609375 260.763671875 492.99609375 191.295898438 c 1,62,63
 492.99609375 206.2109375 492.99609375 206.2109375 492.99609375 190.892578125 c 2,64,65
 492.99609375 127.701171875 492.99609375 127.701171875 466.2578125 81.1279296875 c 128,-1,66
 439.518554688 34.5546875 439.518554688 34.5546875 395.55078125 10.876953125 c 0,67,68
 344.539048521 -14 344.539048521 -14 278.871240268 -14 c 128,-1,69
 213.202134207 -14 213.202134207 -14 158.590820312 9.5166015625 c 0,70,71
 114.42578125 33.033203125 114.42578125 33.033203125 84.9599609375 79.498046875 c 128,-1,72
 55.494140625 125.963867188 55.494140625 125.963867188 51 191.125976562 c 1,0,1
EndSplineSet
EndChar

StartChar: six
Encoding: 54 54 60
Width: 554
GlyphClass: 1
Flags: W
LayerCount: 2
Fore
SplineSet
155.333984375 685.340820312 m 0,0,1
 209.978177982 710 209.978177982 710 275.698209577 710 c 0,2,3
 385.275390625 710 385.275390625 710 440.860351562 654.989257812 c 128,-1,4
 496.444335938 599.977539062 496.444335938 599.977539062 501.965820312 498.375976562 c 1,5,6
 501.984375 472.6875 501.984375 472.6875 502.002929688 497 c 1,7,8
 502.002929688 471 502.002929688 471 502.002929688 495 c 2,9,10
 502.002929688 475.008789062 502.002929688 475.008789062 488.362304688 462.504882812 c 128,-1,11
 474.720703125 450 474.720703125 450 457.002929688 450 c 2,12,-1
 386.002929688 450 l 2,13,14
 363.492699375 450 363.492699375 450 346.466962722 461.9609375 c 128,-1,15
 329.441226069 473.921875 329.441226069 473.921875 326.679848079 492.970703125 c 1,16,17
 324.512287414 526.178710938 324.512287414 526.178710938 311.486534845 539.603515625 c 0,18,19
 302.369017762 549 302.369017762 549 283.011337536 549 c 128,-1,20
 263.65365731 549 263.65365731 549 247.493160922 537.793945312 c 128,-1,21
 231.332664535 526.587890625 231.332664535 526.587890625 231.332664535 501.161132812 c 2,22,-1
 231.332664535 472.345703125 l 1,23,24
 252.267910959 475 252.267910959 475 274.393340606 475 c 0,25,26
 343.682647582 475 343.682647582 475 399.470703125 452.185546875 c 0,27,28
 445.837890625 429.372070312 445.837890625 429.372070312 474.404296875 383.830078125 c 128,-1,29
 502.971679688 338.2890625 502.971679688 338.2890625 503.002929688 275.864257812 c 2,30,31
 503.50390625 245.451171875 503.50390625 245.451171875 504.004882812 190.32421875 c 2,32,33
 504.004882812 126.883789062 504.004882812 126.883789062 474.947265625 80.388671875 c 128,-1,34
 445.889648438 33.8935546875 445.889648438 33.8935546875 399.026367188 10.57421875 c 0,35,36
 342.456784349 -14 342.456784349 -14 274.95784935 -14 c 128,-1,37
 207.458914352 -14 207.458914352 -14 152.825195312 10.6611328125 c 0,38,39
 106.943359375 33.6220703125 106.943359375 33.6220703125 78.4716796875 79.2119140625 c 128,-1,40
 50 124.801757812 50 124.801757812 50 186.936523438 c 2,41,42
 50.501953125 237.138671875 50.501953125 237.138671875 51.00390625 270.91015625 c 2,43,44
 51.00390625 270.979492188 51.00390625 270.979492188 52.001953125 391.2890625 c 128,-1,45
 53 511.599609375 53 511.599609375 53.0029296875 511.950195312 c 0,46,47
 53.025390625 573.223632812 53.025390625 573.223632812 81.5048828125 617.767578125 c 128,-1,48
 110.029296875 662.3828125 110.029296875 662.3828125 155.333984375 685.340820312 c 0,0,1
335.722182282 190.671875 m 2,49,50
 335.06847351 241.961914062 335.06847351 241.961914062 334.416039024 272.21875 c 2,51,52
 334.416039024 295.015625 334.416039024 295.015625 319.583348758 305.5078125 c 128,-1,53
 304.749384206 316 304.749384206 316 284.048606426 316 c 128,-1,54
 263.346554359 316 263.346554359 316 247.34024659 304.983398438 c 128,-1,55
 231.332664535 293.966796875 231.332664535 293.966796875 231.332664535 272.21875 c 2,56,57
 231.332664535 242.01171875 231.332664535 242.01171875 231.332664535 190.786132812 c 2,58,59
 231.332664535 163.876953125 231.332664535 163.876953125 246.641937804 151.938476562 c 128,-1,60
 261.949936787 140 261.949936787 140 281.729405714 140 c 128,-1,61
 301.507600354 140 301.507600354 140 318.595777027 152.900390625 c 128,-1,62
 335.683953699 165.799804688 335.683953699 165.799804688 335.722182282 190.671875 c 2,49,50
EndSplineSet
EndChar

StartChar: seven
Encoding: 55 55 61
Width: 474
GlyphClass: 1
Flags: W
LayerCount: 2
Fore
SplineSet
66.0888671875 17.251953125 m 0,0,1
 56.052734375 28.51953125 56.052734375 28.51953125 56.052734375 43.3125 c 0,2,3
 56.05078125 49.2314453125 56.05078125 49.2314453125 57.7421875 55.404296875 c 2,4,5
 127.627929688 294.528320312 127.627929688 294.528320312 210.353232936 537 c 1,6,-1
 95 537 l 2,7,8
 76.6513671875 537 76.6513671875 537 63.326171875 550.326171875 c 128,-1,9
 50 563.651367188 50 563.651367188 50 582 c 2,10,11
 50 593.5 50 593.5 50 655 c 2,12,13
 50 673.348632812 50 673.348632812 63.326171875 686.673828125 c 128,-1,14
 76.6513671875 700 76.6513671875 700 95 700 c 2,15,-1
 378 700 l 2,16,17
 397.348632812 700 397.348632812 700 410.673828125 686.673828125 c 0,18,19
 424 674.263671875 424 674.263671875 424 656.244140625 c 2,20,21
 423.997070312 634.8125 423.997070312 634.8125 423.994140625 655.729492188 c 1,22,23
 422.997070312 594.795898438 422.997070312 594.795898438 422 570.306640625 c 1,24,25
 422 553.404296875 422 553.404296875 422 566.83984375 c 1,26,27
 422 550.375976562 422 550.375976562 422 563.8046875 c 1,28,29
 346.69140625 301.193359375 346.69140625 301.193359375 249.924136513 31.7138671875 c 2,30,31
 244.438836349 17.0654296875 244.438836349 17.0654296875 222.465254934 8.8359375 c 0,32,33
 200.49167352 0 200.49167352 0 178 0 c 2,34,-1
 104 0 l 2,35,36
 80.10546875 0 80.10546875 0 66.0888671875 17.251953125 c 0,0,1
EndSplineSet
EndChar

StartChar: eight
Encoding: 56 56 62
Width: 558
GlyphClass: 1
Flags: W
LayerCount: 2
Fore
SplineSet
76.111328125 88.1015625 m 128,-1,1
 50 133.748046875 50 133.748046875 50 190.103515625 c 0,2,3
 50 229.32421875 50 229.32421875 63.1669921875 259.301757812 c 128,-1,4
 76.333984375 289.278320312 76.333984375 289.278320312 94.330078125 309.362304688 c 0,5,6
 106.939453125 323.435546875 106.939453125 323.435546875 133.822265625 350.7890625 c 1,7,8
 103.991210938 380.606445312 103.991210938 380.606445312 87.953125 399.740234375 c 128,-1,9
 71.9150390625 418.874023438 71.9150390625 418.874023438 60.9580078125 446.375976562 c 128,-1,10
 50 473.87890625 50 473.87890625 50 508.9609375 c 0,11,12
 50 598.717773438 50 598.717773438 106.64453125 654.358398438 c 128,-1,13
 163.2890625 710 163.2890625 710 281.140311105 710 c 0,14,15
 398.010742188 710 398.010742188 710 453.004882812 653.754882812 c 128,-1,16
 508 597.510742188 508 597.510742188 508 508.9609375 c 0,17,18
 508 473.87890625 508 473.87890625 497.041992188 446.375976562 c 128,-1,19
 486.084960938 418.874023438 486.084960938 418.874023438 470.067382812 399.764648438 c 128,-1,20
 454.049804688 380.655273438 454.049804688 380.655273438 424.370117188 350.98046875 c 1,21,22
 431.977539062 343.337890625 431.977539062 343.337890625 444.372070312 330.783203125 c 0,23,24
 477.34765625 297.377929688 477.34765625 297.377929688 492.673828125 263.409179688 c 128,-1,25
 508 229.439453125 508 229.439453125 508 190.103515625 c 0,26,27
 508 132.813476562 508 132.813476562 481.876953125 87.146484375 c 128,-1,28
 455.75390625 41.478515625 455.75390625 41.478515625 409.217773438 15.6923828125 c 0,29,30
 355.366908482 -10 355.366908482 -10 279.617129371 -10 c 128,-1,31
 203.86735026 -10 203.86735026 -10 149.203125 16.2041015625 c 0,32,0
 102.22265625 42.4541015625 102.22265625 42.4541015625 76.111328125 88.1015625 c 128,-1,1
310.683954148 463.616210938 m 0,33,34
 328.30952381 486.788085938 328.30952381 486.788085938 328.30952381 508 c 128,-1,35
 328.30952381 529.067382812 328.30952381 529.067382812 315.482863653 539.534179688 c 128,-1,36
 302.656203497 550 302.656203497 550 279.375093006 550 c 128,-1,37
 256.095249721 550 256.095249721 550 244.1898484 540.826171875 c 128,-1,38
 232.285714286 531.651367188 232.285714286 531.651367188 232.285714286 509.045898438 c 128,-1,39
 232.285714286 486.44140625 232.285714286 486.44140625 249.031842913 463.05078125 c 0,40,41
 260.820661272 446.583007812 260.820661272 446.583007812 279.053222656 434.736328125 c 1,42,43
 297.904180618 446.815429688 297.904180618 446.815429688 310.683954148 463.616210938 c 0,33,34
315.482863653 163.465820312 m 128,-1,45
 328.30952381 173.932617188 328.30952381 173.932617188 328.30952381 195 c 128,-1,46
 328.30952381 216.211914062 328.30952381 216.211914062 310.683954148 239.383789062 c 0,47,48
 297.904180618 256.184570312 297.904180618 256.184570312 279.053222656 268.263671875 c 1,49,50
 260.820661272 256.416992188 260.820661272 256.416992188 249.031842913 239.94921875 c 0,51,52
 232.285714286 216.55859375 232.285714286 216.55859375 232.285714286 193.954101562 c 128,-1,53
 232.285714286 171.348632812 232.285714286 171.348632812 244.1898484 162.173828125 c 128,-1,54
 256.095249721 153 256.095249721 153 279.375093006 153 c 128,-1,44
 302.656203497 153 302.656203497 153 315.482863653 163.465820312 c 128,-1,45
EndSplineSet
EndChar

StartChar: nine
Encoding: 57 57 63
Width: 548
GlyphClass: 1
Flags: W
LayerCount: 2
Fore
SplineSet
55.001953125 204 m 1,0,1
 55.001953125 230 55.001953125 230 55.001953125 206 c 2,2,3
 55.001953125 225.991210938 55.001953125 225.991210938 68.642578125 238.495117188 c 128,-1,4
 82.2841796875 251 82.2841796875 251 100.001953125 251 c 2,5,-1
 171.3190171 251 l 2,6,7
 195.472714253 251 195.472714253 251 212.806347355 237.833984375 c 128,-1,8
 230.138694865 224.666992188 230.138694865 224.666992188 230.550084214 205.756835938 c 0,9,10
 232.84743661 171.310546875 232.84743661 171.310546875 243.070461933 158.25 c 0,11,12
 247.96213841 152 247.96213841 152 265.741871838 152 c 128,-1,13
 283.520319673 152 283.520319673 152 299.82419381 163.206054688 c 128,-1,14
 316.128067948 174.412109375 316.128067948 174.412109375 316.128067948 199.838867188 c 2,15,-1
 316.128067948 228.654296875 l 1,16,17
 295.007081652 226 295.007081652 226 272.685352694 226 c 0,18,19
 205.14422073 226 205.14422073 226 151.825195312 248.926757812 c 0,20,21
 106.954101562 271.853515625 106.954101562 271.853515625 78.9931640625 317.337890625 c 128,-1,22
 51.0322265625 362.821289062 51.0322265625 362.821289062 51.001953125 425.133789062 c 2,23,24
 50.5009765625 455.544921875 50.5009765625 455.544921875 50 510.672851562 c 2,25,26
 50 574.002929688 50 574.002929688 78.470703125 620.469726562 c 128,-1,27
 106.94140625 666.936523438 106.94140625 666.936523438 152.823242188 690.338867188 c 0,28,29
 207.789968481 715 207.789968481 715 274.00179861 715 c 128,-1,30
 340.21362874 715 340.21362874 715 395.1796875 690.338867188 c 0,31,32
 441.061523438 667.377929688 441.061523438 667.377929688 469.533203125 621.788085938 c 128,-1,33
 498.004882812 576.198242188 498.004882812 576.198242188 498.004882812 514.063476562 c 2,34,35
 497.502929688 463.861328125 497.502929688 463.861328125 497.000976562 430.08984375 c 2,36,37
 497.000976562 430.020507812 497.000976562 430.020507812 496.002929688 309.7109375 c 128,-1,38
 495.004882812 189.400390625 495.004882812 189.400390625 495.001953125 189.049804688 c 0,39,40
 494.979492188 127.776367188 494.979492188 127.776367188 466.5 83.232421875 c 128,-1,41
 437.975585938 38.6171875 437.975585938 38.6171875 392.670898438 15.6591796875 c 0,42,43
 337.672013918 -9 337.672013918 -9 271.368906777 -9 c 0,44,45
 163.254882812 -9 163.254882812 -9 111.33984375 45.798828125 c 128,-1,46
 59.42578125 100.59765625 59.42578125 100.59765625 55.025390625 202.909179688 c 1,47,48
 55.013671875 228.455078125 55.013671875 228.455078125 55.001953125 204 c 1,0,1
299.932183514 395.756835938 m 128,-1,50
 316.128067948 408.512695312 316.128067948 408.512695312 316.128067948 433.786132812 c 2,51,52
 316.128067948 463.12109375 316.128067948 463.12109375 316.128067948 515.21875 c 2,53,54
 316.128067948 538.365234375 316.128067948 538.365234375 302.206395259 548.682617188 c 128,-1,55
 288.286008163 559 288.286008163 559 269.773487458 559 c 128,-1,56
 251.260966753 559 251.260966753 559 235.643598591 548.065429688 c 128,-1,57
 220.027516022 537.131835938 220.027516022 537.131835938 220.027516022 515.21875 c 2,58,59
 220.027516022 463.12109375 220.027516022 463.12109375 220.027516022 433.786132812 c 2,60,61
 220.027516022 406.708984375 220.027516022 406.708984375 234.948093473 394.854492188 c 128,-1,62
 249.869956516 383 249.869956516 383 266.803770595 383 c 128,-1,49
 283.737584673 383 283.737584673 383 299.932183514 395.756835938 c 128,-1,50
EndSplineSet
EndChar

StartChar: fraction
Encoding: 8260 8260 64
Width: 485
GlyphClass: 1
Flags: W
LayerCount: 2
Fore
SplineSet
53.5454545455 21.6694214876 m 0
 53.5454545455 29.7082415161 53.5454545455 29.7082415161 56.2550385456 37.8369935167 c 2
 272.827369818 693.542162391 l 1
 276.342979332 708.353734898 276.342979332 708.353734898 288.233168691 716.676867449 c 0
 300.12335805 725 300.12335805 725 314 725 c 2
 383 725 l 2
 407.222674172 725 407.222674172 725 421.744323963 706.329307411 c 0
 431.454545455 693.844736922 431.454545455 693.844736922 431.454545455 678.330578512 c 0
 431.454545455 670.291758484 431.454545455 670.291758484 428.744961454 662.163006483 c 2
 212.172630182 6.45783760852 l 1
 208.657020668 -8.35373489752 208.657020668 -8.35373489752 196.766831309 -16.6768674488 c 0
 184.87664195 -25 184.87664195 -25 171 -25 c 2
 102 -25 l 2
 77.7773258283 -25 77.7773258283 -25 63.2556760367 -6.32930741087 c 0
 53.5454545455 6.15526307789 53.5454545455 6.15526307789 53.5454545455 21.6694214876 c 0
EndSplineSet
EndChar

StartChar: asterisk
Encoding: 42 42 65
Width: 439
GlyphClass: 1
Flags: W
LayerCount: 2
Fore
SplineSet
245 419 m 2
 193 419 l 2
 174.65159375 419 174.65159375 419 161.325796875 432.325796875 c 0
 155.247918359 438.403675391 155.247918359 438.403675391 151.753606355 446.388452955 c 1
 143.563033909 443 143.563033909 443 135 443 c 0
 116.65159375 443 116.65159375 443 103.325796875 456.325796875 c 2
 66.325796875 493.325796875 l 2
 53 506.65159375 53 506.65159375 53 525 c 0
 53 543.34840625 53 543.34840625 66.325796875 556.674203125 c 2
 119.280040906 609.628447156 l 1
 66.1623747028 663.504937161 l 1
 53 680.427990351 53 680.427990351 53 696.3881983 c 0
 53 712.34840625 53 712.34840625 67.325796875 726.674203125 c 2
 103.325796875 762.674203125 l 2
 116.65159375 776 116.65159375 776 135 776 c 0
 143.698741934 776 143.698741934 776 151.81559133 772.752546076 c 1
 155.304395051 780.652801301 155.304395051 780.652801301 161.325796875 786.674203125 c 0
 174.65159375 800 174.65159375 800 193 800 c 2
 245 800 l 2
 263.34840625 800 263.34840625 800 276.674203125 786.674203125 c 0
 282.895900265 780.452505985 282.895900265 780.452505985 286.401819309 772.252240532 c 1
 294.973126847 776 294.973126847 776 304 776 c 0
 322.34840625 776 322.34840625 776 335.674203125 762.674203125 c 2
 372.674203125 725.674203125 l 2
 386 712.34840625 386 712.34840625 386 694 c 0
 386 675.65159375 386 675.65159375 372.674203125 662.325796875 c 2
 319.84840625 609.5 l 1
 372.674203125 556.674203125 l 2
 386 543.34840625 386 543.34840625 386 525 c 0
 386 506.65159375 386 506.65159375 372.674203125 493.325796875 c 2
 335.674203125 456.325796875 l 2
 322.34840625 443 322.34840625 443 304 443 c 0
 294.973126847 443 294.973126847 443 286.401819309 446.747759468 c 1
 282.895900265 438.547494015 282.895900265 438.547494015 276.674203125 432.325796875 c 0
 263.34840625 419 263.34840625 419 245 419 c 2
EndSplineSet
EndChar

StartChar: backslash
Encoding: 92 92 66
Width: 378
GlyphClass: 1
Flags: W
LayerCount: 2
Fore
SplineSet
48.8571428571 677.806122449 m 0
 48.8571428571 694.834916182 48.8571428571 694.834916182 59.4689561643 708.099682816 c 0
 72.9892099118 725 72.9892099118 725 96 725 c 2
 168 725 l 2
 184.586464757 725 184.586464757 725 195.830022587 714.880797953 c 0
 207.073580416 704.761595907 207.073580416 704.761595907 211.391786281 689.64787538 c 1
 328.780440791 28.4587871567 l 2
 329.142857143 24.8346236379 329.142857143 24.8346236379 329.142857143 22.193877551 c 0
 329.142857143 5.16508381828 329.142857143 5.16508381828 318.531043836 -8.09968281562 c 0
 305.010790088 -25 305.010790088 -25 282 -25 c 2
 210 -25 l 2
 193.413535243 -25 193.413535243 -25 182.169977413 -14.8807979533 c 0
 170.926419584 -4.76159590658 170.926419584 -4.76159590658 166.608213719 10.3521246198 c 1
 49.219559209 671.541212843 l 2
 48.8571428571 675.165376362 48.8571428571 675.165376362 48.8571428571 677.806122449 c 0
EndSplineSet
EndChar

StartChar: periodcentered
Encoding: 183 183 67
Width: 257
GlyphClass: 1
Flags: W
LayerCount: 2
Fore
SplineSet
69.325796875 279.325796875 m 0
 45 303.65159375 45 303.65159375 45 338.5 c 0
 45 373.34840625 45 373.34840625 69.325796875 397.674203125 c 0
 93.65159375 422 93.65159375 422 128.5 422 c 0
 163.34840625 422 163.34840625 422 187.674203125 397.674203125 c 0
 212 373.34840625 212 373.34840625 212 338.5 c 0
 212 303.65159375 212 303.65159375 187.674203125 279.325796875 c 0
 163.34840625 255 163.34840625 255 128.5 255 c 0
 93.65159375 255 93.65159375 255 69.325796875 279.325796875 c 0
EndSplineSet
EndChar

StartChar: bullet
Encoding: 8226 8226 68
Width: 448
GlyphClass: 1
Flags: W
LayerCount: 2
Fore
SplineSet
45 329 m 0
 45 377.700624328 45 377.700624328 68.8345424027 418.975075806 c 0
 92.6988785941 460.301121406 92.6988785941 460.301121406 134.024924194 484.165457597 c 0
 175.299375672 508 175.299375672 508 224 508 c 0
 272.700624328 508 272.700624328 508 313.975075806 484.165457597 c 0
 355.301121406 460.301121406 355.301121406 460.301121406 379.165457597 418.975075806 c 0
 403 377.700624328 403 377.700624328 403 329 c 0
 403 280.299375672 403 280.299375672 379.165457597 239.024924194 c 0
 355.301121406 197.698878594 355.301121406 197.698878594 313.975075806 173.834542403 c 0
 272.700624328 150 272.700624328 150 224 150 c 0
 175.299375672 150 175.299375672 150 134.024924194 173.834542403 c 0
 92.6988785941 197.698878594 92.6988785941 197.698878594 68.8345424027 239.024924194 c 0
 45 280.299375672 45 280.299375672 45 329 c 0
EndSplineSet
EndChar

StartChar: colon
Encoding: 58 58 69
Width: 257
GlyphClass: 1
Flags: W
LayerCount: 2
Fore
SplineSet
69.325796875 389.325796875 m 0
 45 413.65159375 45 413.65159375 45 448.5 c 0
 45 483.34840625 45 483.34840625 69.325796875 507.674203125 c 0
 93.65159375 532 93.65159375 532 128.5 532 c 0
 163.34840625 532 163.34840625 532 187.674203125 507.674203125 c 0
 212 483.34840625 212 483.34840625 212 448.5 c 0
 212 413.65159375 212 413.65159375 187.674203125 389.325796875 c 0
 163.34840625 365 163.34840625 365 128.5 365 c 0
 93.65159375 365 93.65159375 365 69.325796875 389.325796875 c 0
69.325796875 -0.674203125 m 0
 45 23.65159375 45 23.65159375 45 58.5 c 0
 45 93.34840625 45 93.34840625 69.325796875 117.674203125 c 0
 93.65159375 142 93.65159375 142 128.5 142 c 0
 163.34840625 142 163.34840625 142 187.674203125 117.674203125 c 0
 212 93.34840625 212 93.34840625 212 58.5 c 0
 212 23.65159375 212 23.65159375 187.674203125 -0.674203125 c 0
 163.34840625 -25 163.34840625 -25 128.5 -25 c 0
 93.65159375 -25 93.65159375 -25 69.325796875 -0.674203125 c 0
EndSplineSet
EndChar

StartChar: comma
Encoding: 44 44 70
Width: 257
GlyphClass: 1
Flags: W
LayerCount: 2
Fore
SplineSet
69.325796875 117.674203125 m 0
 93.65159375 142 93.65159375 142 128.5 142 c 0
 163.34840625 142 163.34840625 142 187.674203125 117.674203125 c 0
 212 93.34840625 212 93.34840625 212 60.4011759108 c 0
 212 27.4539455715 212 27.4539455715 195.52298733 -16.4847548811 c 0
 179.045974661 -60.4234553337 179.045974661 -60.4234553337 156.705864889 -88.6425413614 c 1
 142.34840625 -103 142.34840625 -103 124 -103 c 0
 111.45789392 -103 111.45789392 -103 102.814856849 -97.8607123156 c 0
 78 -85.4532838913 78 -85.4532838913 78 -58 c 0
 78 -50.175058459 78 -50.175058459 80.5 -39.175058459 c 0
 83 -28.175058459 83 -28.175058459 83 -24 c 0
 83 -14.5003343903 83 -14.5003343903 76.9189062951 -7.38707622977 c 0
 45.000000776 18.0372930317 45.000000776 18.0372930317 45 59 c 0
 45 93.34840625 45 93.34840625 69.325796875 117.674203125 c 0
EndSplineSet
EndChar

StartChar: ellipsis
Encoding: 8230 8230 71
Width: 607
GlyphClass: 1
Flags: W
LayerCount: 2
Fore
SplineSet
69.325796875 -0.674203125 m 0
 45 23.65159375 45 23.65159375 45 58.5 c 0
 45 93.34840625 45 93.34840625 69.325796875 117.674203125 c 0
 93.65159375 142 93.65159375 142 128.5 142 c 0
 163.34840625 142 163.34840625 142 187.674203125 117.674203125 c 0
 212 93.34840625 212 93.34840625 212 58.5 c 0
 212 23.65159375 212 23.65159375 187.674203125 -0.674203125 c 0
 163.34840625 -25 163.34840625 -25 128.5 -25 c 0
 93.65159375 -25 93.65159375 -25 69.325796875 -0.674203125 c 0
249.325796875 -0.674203125 m 0
 225 23.65159375 225 23.65159375 225 58.5 c 0
 225 93.34840625 225 93.34840625 249.325796875 117.674203125 c 0
 273.65159375 142 273.65159375 142 308.5 142 c 0
 343.34840625 142 343.34840625 142 367.674203125 117.674203125 c 0
 392 93.34840625 392 93.34840625 392 58.5 c 0
 392 23.65159375 392 23.65159375 367.674203125 -0.674203125 c 0
 343.34840625 -25 343.34840625 -25 308.5 -25 c 0
 273.65159375 -25 273.65159375 -25 249.325796875 -0.674203125 c 0
419.325796875 -0.674203125 m 0
 395 23.65159375 395 23.65159375 395 58.5 c 0
 395 93.34840625 395 93.34840625 419.325796875 117.674203125 c 0
 443.65159375 142 443.65159375 142 478.5 142 c 0
 513.34840625 142 513.34840625 142 537.674203125 117.674203125 c 0
 562 93.34840625 562 93.34840625 562 58.5 c 0
 562 23.65159375 562 23.65159375 537.674203125 -0.674203125 c 0
 513.34840625 -25 513.34840625 -25 478.5 -25 c 0
 443.65159375 -25 443.65159375 -25 419.325796875 -0.674203125 c 0
EndSplineSet
EndChar

StartChar: exclam
Encoding: 33 33 72
Width: 257
GlyphClass: 1
Flags: W
LayerCount: 2
Fore
SplineSet
69.325796875 -0.674203125 m 0
 45 23.65159375 45 23.65159375 45 58.5 c 0
 45 93.34840625 45 93.34840625 69.325796875 117.674203125 c 0
 76.5628035422 124.911209792 76.5628035422 124.911209792 84.7311480356 129.995182552 c 1
 76.3339047509 133.317688999 76.3339047509 133.317688999 69.325796875 140.325796875 c 0
 56.1362106762 153.515383074 56.1362106762 153.515383074 56.0011495605 171.690692697 c 2
 46.0000019224 678.748877953 l 2
 46.0000019224 698.348308786 46.0000019224 698.348308786 59.325796875 711.674203125 c 0
 72.65159375 725 72.65159375 725 92 725 c 2
 164 725 l 2
 183.34840625 725 183.34840625 725 196.674203125 711.674203125 c 0
 210 698.34840625 210 698.34840625 210 679 c 2
 210 678.498348637 l 1
 199.998850439 171.690692697 l 2
 199.863789324 153.515383074 199.863789324 153.515383074 186.674203125 140.325796875 c 0
 179.919043742 133.570637492 179.919043742 133.570637492 171.873217302 130.239827041 c 1
 180.262175156 125.086231094 180.262175156 125.086231094 187.674203125 117.674203125 c 0
 212 93.34840625 212 93.34840625 212 58.5 c 0
 212 23.65159375 212 23.65159375 187.674203125 -0.674203125 c 0
 163.34840625 -25 163.34840625 -25 128.5 -25 c 0
 93.65159375 -25 93.65159375 -25 69.325796875 -0.674203125 c 0
EndSplineSet
EndChar

StartChar: exclamdown
Encoding: 161 161 73
Width: 257
GlyphClass: 1
Flags: W
LayerCount: 2
Fore
SplineSet
69.325796875 441.325796875 m 0
 45 465.65159375 45 465.65159375 45 500.5 c 0
 45 535.34840625 45 535.34840625 69.325796875 559.674203125 c 0
 93.65159375 584 93.65159375 584 128.5 584 c 0
 163.34840625 584 163.34840625 584 187.674203125 559.674203125 c 0
 212 535.34840625 212 535.34840625 212 500.5 c 0
 212 465.65159375 212 465.65159375 187.674203125 441.325796875 c 0
 180.262175156 433.913768906 180.262175156 433.913768906 171.873217302 428.760172959 c 1
 179.919043742 425.429362508 179.919043742 425.429362508 186.674203125 418.674203125 c 0
 199.863789324 405.484616926 199.863789324 405.484616926 199.998850439 387.309307304 c 2
 209.999998078 -119.748877953 l 2
 209.999998078 -139.348308786 209.999998078 -139.348308786 196.674203125 -152.674203125 c 0
 183.34840625 -166 183.34840625 -166 164 -166 c 2
 92 -166 l 2
 72.65159375 -166 72.65159375 -166 59.325796875 -152.674203125 c 0
 46 -139.34840625 46 -139.34840625 46 -120 c 2
 46 -119.498348637 l 1
 56.0011495605 387.309307303 l 2
 56.1362106762 405.484616926 56.1362106762 405.484616926 69.325796875 418.674203125 c 0
 76.3339047509 425.682311001 76.3339047509 425.682311001 84.7311480356 429.004817448 c 1
 76.5628035422 434.088790208 76.5628035422 434.088790208 69.325796875 441.325796875 c 0
EndSplineSet
EndChar

StartChar: numbersign
Encoding: 35 35 74
Width: 831
GlyphClass: 1
Flags: W
LayerCount: 2
Fore
SplineSet
142.857142857 22.193877551 m 0
 142.857142857 25.5747909184 142.857142857 25.5747909184 143.382499115 29.3765125792 c 2
 164.186653353 147 l 1
 96 147 l 2
 72.9892099118 147 72.9892099118 147 59.4689561643 163.900317184 c 0
 48.8571428571 177.165083818 48.8571428571 177.165083818 48.8571428571 194.193877551 c 0
 48.8571428571 197.583131857 48.8571428571 197.583131857 49.3876047923 201.405280784 c 2
 62.6100056499 275.654147138 l 1
 66.9264195838 290.761595907 66.9264195838 290.761595907 78.1699774135 300.880797953 c 0
 89.4135352432 311 89.4135352432 311 106 311 c 2
 193.145535685 311 l 1
 209.021448094 398 l 1
 150 398 l 2
 126.989209912 398 126.989209912 398 113.468956164 414.900317184 c 0
 102.857142857 428.165083818 102.857142857 428.165083818 102.857142857 445.193877551 c 0
 102.857142857 448.583131857 102.857142857 448.583131857 103.387604792 452.405280784 c 2
 116.61000565 526.654147138 l 1
 120.926419584 541.761595907 120.926419584 541.761595907 132.169977413 551.880797953 c 0
 143.413535243 562 143.413535243 562 160 562 c 2
 238.030190768 562 l 1
 260.605988469 689.640087006 l 1
 264.926419584 704.761595907 264.926419584 704.761595907 276.169977413 714.880797953 c 0
 287.413535243 725 287.413535243 725 304 725 c 2
 376 725 l 2
 396.895226485 725 396.895226485 725 409.68290736 711.228651365 c 0
 422.470588235 697.45730273 422.470588235 697.45730273 422.470588235 679.955017301 c 0
 422.470588235 675.317953491 422.470588235 675.317953491 422.036739584 672.93013806 c 0
 421.602890933 670.542322629 421.602890933 670.542322629 402.726425437 562 c 1
 499.169937662 562 l 1
 522.628519525 689.718945701 l 1
 526.926419584 704.761595907 526.926419584 704.761595907 538.169977413 714.880797953 c 0
 549.413535243 725 549.413535243 725 566 725 c 2
 638 725 l 2
 661.010790088 725 661.010790088 725 674.531043836 708.099682816 c 0
 684.5 695.63848761 684.5 695.63848761 684.5 679.28125 c 0
 684.5 674.475664387 684.5 674.475664387 684.046795567 671.983039681 c 0
 683.593591134 669.490414974 683.593591134 669.490414974 663.978550923 562 c 1
 735 562 l 2
 758.010790088 562 758.010790088 562 771.531043836 545.099682816 c 0
 782.142857143 531.834916182 782.142857143 531.834916182 782.142857143 514.806122449 c 0
 782.142857143 511.416868143 782.142857143 511.416868143 781.612395208 507.594719216 c 2
 768.38999435 433.345852862 l 1
 764.073580416 418.238404093 764.073580416 418.238404093 752.830022587 408.119202047 c 0
 741.586464757 398 741.586464757 398 725 398 c 2
 635.004661042 398 l 1
 619.763785129 311 l 1
 681 311 l 2
 704.010790088 311 704.010790088 311 717.531043836 294.099682816 c 0
 728.142857143 280.834916182 728.142857143 280.834916182 728.142857143 263.806122449 c 0
 728.142857143 260.416868143 728.142857143 260.416868143 727.612395208 256.594719216 c 2
 714.38999435 182.345852862 l 1
 710.073580416 167.238404093 710.073580416 167.238404093 698.830022587 157.119202047 c 0
 687.586464757 147 687.586464757 147 671 147 c 2
 591.048222221 147 l 1
 567.406605328 10.4039912844 l 1
 563.073580416 -4.76159590658 563.073580416 -4.76159590658 551.830022587 -14.8807979533 c 0
 540.586464757 -25 540.586464757 -25 524 -25 c 2
 452 -25 l 2
 428.989209912 -25 428.989209912 -25 415.468956164 -8.09968281562 c 0
 404.857142857 5.16508381828 404.857142857 5.16508381828 404.857142857 22.193877551 c 0
 404.857142857 25.5747909184 404.857142857 25.5747909184 405.382499115 29.3765125792 c 2
 426.186653353 147 l 1
 329.048222221 147 l 1
 305.406605328 10.4039912844 l 1
 301.073580416 -4.76159590658 301.073580416 -4.76159590658 289.830022587 -14.8807979533 c 0
 278.586464757 -25 278.586464757 -25 262 -25 c 2
 190 -25 l 2
 166.989209912 -25 166.989209912 -25 153.468956164 -8.09968281562 c 0
 142.857142857 5.16508381828 142.857142857 5.16508381828 142.857142857 22.193877551 c 0
683.593591134 669.490414974 m 1
 683.593591134 669.490414974 l 1
373.854464315 398 m 1
 357.978551906 311 l 1
 454.995338958 311 l 1
 470.236214871 398 l 1
 373.854464315 398 l 1
EndSplineSet
EndChar

StartChar: period
Encoding: 46 46 75
Width: 257
GlyphClass: 1
Flags: W
LayerCount: 2
Fore
SplineSet
69.325796875 -0.674203125 m 0
 45 23.65159375 45 23.65159375 45 58.5 c 0
 45 93.34840625 45 93.34840625 69.325796875 117.674203125 c 0
 93.65159375 142 93.65159375 142 128.5 142 c 0
 163.34840625 142 163.34840625 142 187.674203125 117.674203125 c 0
 212 93.34840625 212 93.34840625 212 58.5 c 0
 212 23.65159375 212 23.65159375 187.674203125 -0.674203125 c 0
 163.34840625 -25 163.34840625 -25 128.5 -25 c 0
 93.65159375 -25 93.65159375 -25 69.325796875 -0.674203125 c 0
EndSplineSet
EndChar

StartChar: question
Encoding: 63 63 76
Width: 490
GlyphClass: 1
Flags: W
LayerCount: 2
Fore
SplineSet
158.325796875 -0.674203125 m 0
 134 23.65159375 134 23.65159375 134 58.5 c 0
 134 93.34840625 134 93.34840625 158.325796875 117.674203125 c 0
 162.860928796 122.209335046 162.860928796 122.209335046 167.761797925 125.898968599 c 1
 160.665195461 128.982434128 160.665195461 128.982434128 154.641198164 134.50443165 c 0
 141 147.0088633 141 147.0088633 141 167 c 2
 141 307 l 2
 141 328.79218797 141 328.79218797 158.501074646 340.412204332 c 0
 206.799855362 379.099891268 206.799855362 379.099891268 231.70670413 403.084263059 c 0
 256.613552899 427.06863485 256.613552899 427.06863485 269.306776449 452.031974499 c 0
 282 476.995314149 282 476.995314149 282 505.758703258 c 0
 282 534.522092366 282 534.522092366 269.379109117 548.761046183 c 0
 256.758218234 563 256.758218234 563 240 563 c 0
 228.135793276 563 228.135793276 563 215.465662981 555.12397306 c 0
 202.795532686 547.24794612 202.795532686 547.24794612 193.532074991 530.264940345 c 0
 176.647470483 504 176.647470483 504 151 504 c 0
 136.360129254 504 136.360129254 504 122.573135425 514.331940227 c 2
 67.3910431512 557.689298442 l 2
 49 570.229543723 49 570.229543723 49 593 c 2
 49 596.096824125 l 1
 49.7443945165 599.074402191 l 1
 51.7443945165 607.074402191 l 1
 52.3536781408 609.511536688 l 1
 53.4407070107 611.780118678 l 2
 79.8357938764 666.865517354 79.8357938764 666.865517354 130.114138605 695.432758677 c 0
 180.392483334 724 180.392483334 724 238.429437727 724 c 0
 296.46639212 724 296.46639212 724 343.843451823 697.742834381 c 0
 391.220511526 671.485668763 391.220511526 671.485668763 418.110255763 624.571646903 c 0
 445 577.657625042 445 577.657625042 445 517 c 0
 445 436.760382851 445 436.760382851 398.145435044 362.664791757 c 0
 355.985335871 295.993007019 355.985335871 295.993007019 292 238.70816576 c 1
 292 169 l 2
 292 150.65159375 292 150.65159375 278.788973776 137.440567526 c 0
 272.367541776 131.019135526 272.367541776 131.019135526 264.80142495 127.665485413 c 1
 271.021876472 123.326529778 271.021876472 123.326529778 276.674203125 117.674203125 c 0
 301 93.34840625 301 93.34840625 301 58.5 c 0
 301 23.65159375 301 23.65159375 276.674203125 -0.674203125 c 0
 252.34840625 -25 252.34840625 -25 217.5 -25 c 0
 182.65159375 -25 182.65159375 -25 158.325796875 -0.674203125 c 0
EndSplineSet
EndChar

StartChar: questiondown
Encoding: 191 191 77
Width: 490
GlyphClass: 1
Flags: W
LayerCount: 2
Fore
SplineSet
45 41 m 0
 45 121.239617149 45 121.239617149 91.8545649565 195.335208243 c 0
 134.014664129 262.006992981 134.014664129 262.006992981 198 319.29183424 c 1
 198 389 l 2
 198 406.767593109 198 406.767593109 210.973100793 420.821785635 c 0
 217.037801604 427.391878181 217.037801604 427.391878181 224.373660358 430.917480366 c 1
 218.602194881 435.049398869 218.602194881 435.049398869 213.325796875 440.325796875 c 0
 189 464.65159375 189 464.65159375 189 499.5 c 0
 189 534.34840625 189 534.34840625 213.325796875 558.674203125 c 0
 237.65159375 583 237.65159375 583 272.5 583 c 0
 307.34840625 583 307.34840625 583 331.674203125 558.674203125 c 0
 356 534.34840625 356 534.34840625 356 499.5 c 0
 356 464.65159375 356 464.65159375 331.674203125 440.325796875 c 0
 327.151990117 435.803583867 327.151990117 435.803583867 322.266120633 432.122059063 c 1
 329.311312913 429.036551347 329.311312913 429.036551347 335.358801836 423.493802625 c 0
 349 410.9911367 349 410.9911367 349 391 c 2
 349 251 l 2
 349 229.20781203 349 229.20781203 331.498925354 217.587795668 c 0
 283.200144638 178.900108732 283.200144638 178.900108732 258.29329587 154.915736941 c 0
 233.386447101 130.93136515 233.386447101 130.93136515 220.693223551 105.968025501 c 0
 208 81.0046858509 208 81.0046858509 208 52.2412967424 c 0
 208 23.4779076339 208 23.4779076339 220.620890883 9.23895381696 c 0
 233.241781766 -5 233.241781766 -5 250 -5 c 0
 261.864206724 -5 261.864206724 -5 274.534337019 2.87602693994 c 0
 287.204467314 10.7520538799 287.204467314 10.7520538799 296.467925009 27.7350596549 c 0
 313.352529517 54 313.352529517 54 339 54 c 0
 353.639870746 54 353.639870746 54 367.426864575 43.668059773 c 2
 422.370664881 0.497930960745 l 2
 440 -11.1081575727 440 -11.1081575727 440 -35 c 0
 440 -48.7138104134 440 -48.7138104134 434.753319639 -57.3694676631 c 0
 407.380131595 -110.301429 407.380131595 -110.301429 358.501795882 -138.1507145 c 0
 309.62346017 -166 309.62346017 -166 251.578534025 -166 c 0
 193.53360788 -166 193.53360788 -166 146.156548177 -139.742834381 c 0
 98.7794884739 -113.485668763 98.7794884739 -113.485668763 71.889744237 -66.5716469026 c 0
 45 -19.6576250423 45 -19.6576250423 45 41 c 0
EndSplineSet
EndChar

StartChar: quotedbl
Encoding: 34 34 78
Width: 372
GlyphClass: 1
Flags: W
LayerCount: 2
Fore
SplineSet
45 520 m 2
 45 680 l 2
 45 698.34840625 45 698.34840625 58.325796875 711.674203125 c 0
 71.65159375 725 71.65159375 725 90 725 c 2
 142 725 l 2
 160.34840625 725 160.34840625 725 173.674203125 711.674203125 c 0
 183.349548533 701.998857717 183.349548533 701.998857717 185.999999997 689.675768362 c 1
 188.65045153 701.998857721 188.65045153 701.998857721 198.325796875 711.674203125 c 0
 211.65159375 725 211.65159375 725 230 725 c 2
 282 725 l 2
 300.34840625 725 300.34840625 725 313.674203125 711.674203125 c 0
 327 698.34840625 327 698.34840625 327 680 c 2
 327 520 l 2
 327 501.65159375 327 501.65159375 313.674203125 488.325796875 c 0
 300.34840625 475 300.34840625 475 282 475 c 2
 230 475 l 2
 211.65159375 475 211.65159375 475 198.325796875 488.325796875 c 0
 188.650452497 498.001141253 188.650452497 498.001141253 185.999999976 510.324228886 c 1
 183.349547932 498.001141277 183.349547932 498.001141277 173.674203125 488.325796875 c 0
 160.34840625 475 160.34840625 475 142 475 c 2
 90 475 l 2
 71.65159375 475 71.65159375 475 58.325796875 488.325796875 c 0
 45 501.65159375 45 501.65159375 45 520 c 2
EndSplineSet
EndChar

StartChar: quotesingle
Encoding: 39 39 79
Width: 232
GlyphClass: 1
Flags: W
LayerCount: 2
Fore
SplineSet
45 520 m 2
 45 680 l 2
 45 698.34840625 45 698.34840625 58.325796875 711.674203125 c 0
 71.65159375 725 71.65159375 725 90 725 c 2
 142 725 l 2
 160.34840625 725 160.34840625 725 173.674203125 711.674203125 c 0
 187 698.34840625 187 698.34840625 187 680 c 2
 187 520 l 2
 187 501.65159375 187 501.65159375 173.674203125 488.325796875 c 0
 160.34840625 475 160.34840625 475 142 475 c 2
 90 475 l 2
 71.65159375 475 71.65159375 475 58.325796875 488.325796875 c 0
 45 501.65159375 45 501.65159375 45 520 c 2
EndSplineSet
EndChar

StartChar: semicolon
Encoding: 59 59 80
Width: 257
GlyphClass: 1
Flags: W
LayerCount: 2
Fore
SplineSet
69.325796875 389.325796875 m 0
 45 413.65159375 45 413.65159375 45 448.5 c 0
 45 483.34840625 45 483.34840625 69.325796875 507.674203125 c 0
 93.65159375 532 93.65159375 532 128.5 532 c 0
 163.34840625 532 163.34840625 532 187.674203125 507.674203125 c 0
 212 483.34840625 212 483.34840625 212 448.5 c 0
 212 413.65159375 212 413.65159375 187.674203125 389.325796875 c 0
 163.34840625 365 163.34840625 365 128.5 365 c 0
 93.65159375 365 93.65159375 365 69.325796875 389.325796875 c 0
69.325796875 117.674203125 m 0
 93.65159375 142 93.65159375 142 128.5 142 c 0
 163.34840625 142 163.34840625 142 187.674203125 117.674203125 c 0
 212 93.34840625 212 93.34840625 212 60.4011759108 c 0
 212 27.4539455715 212 27.4539455715 195.52298733 -16.4847548811 c 0
 179.045974661 -60.4234553337 179.045974661 -60.4234553337 156.705864889 -88.6425413614 c 1
 142.34840625 -103 142.34840625 -103 124 -103 c 0
 111.45789392 -103 111.45789392 -103 102.814856849 -97.8607123156 c 0
 78 -85.4532838913 78 -85.4532838913 78 -58 c 0
 78 -50.175058459 78 -50.175058459 80.5 -39.175058459 c 0
 83 -28.175058459 83 -28.175058459 83 -24 c 0
 83 -14.5003343903 83 -14.5003343903 76.9189062951 -7.38707622977 c 0
 45.000000776 18.0372930317 45.000000776 18.0372930317 45 59 c 0
 45 93.34840625 45 93.34840625 69.325796875 117.674203125 c 0
EndSplineSet
EndChar

StartChar: slash
Encoding: 47 47 81
Width: 401
GlyphClass: 1
Flags: W
LayerCount: 2
Fore
SplineSet
49.5294117647 -40.9826989619 m 0
 49.5294117647 -36.3141950393 49.5294117647 -36.3141950393 50.3939884898 -31.5590230511 c 2
 189.6149913 743.671596913 l 1
 193.926419584 758.761595907 193.926419584 758.761595907 205.169977413 768.880797953 c 0
 216.413535243 779 216.413535243 779 233 779 c 2
 305 779 l 2
 326.409869724 779 326.409869724 779 340.3975579 762.860359796 c 0
 351.470588235 750.083786333 351.470588235 750.083786333 351.470588235 732.982698962 c 0
 351.470588235 728.314195039 351.470588235 728.314195039 350.60601151 723.559023051 c 2
 211.3850087 -51.6715969131 l 1
 207.073580416 -66.7615959066 207.073580416 -66.7615959066 195.830022587 -76.8807979533 c 0
 184.586464757 -87 184.586464757 -87 168 -87 c 2
 96 -87 l 2
 74.5901302764 -87 74.5901302764 -87 60.6024420999 -70.8603597964 c 0
 49.5294117647 -58.0837863327 49.5294117647 -58.0837863327 49.5294117647 -40.9826989619 c 0
EndSplineSet
EndChar

StartChar: underscore
Encoding: 95 95 82
Width: 668
GlyphClass: 1
Flags: W
LayerCount: 2
Fore
SplineSet
45 -129 m 2
 45 -57 l 2
 45 -38.65159375 45 -38.65159375 58.325796875 -25.325796875 c 0
 71.65159375 -12 71.65159375 -12 90 -12 c 2
 578 -12 l 2
 596.34840625 -12 596.34840625 -12 609.674203125 -25.325796875 c 0
 623 -38.65159375 623 -38.65159375 623 -57 c 2
 623 -129 l 2
 623 -147.34840625 623 -147.34840625 609.674203125 -160.674203125 c 0
 596.34840625 -174 596.34840625 -174 578 -174 c 2
 90 -174 l 2
 71.65159375 -174 71.65159375 -174 58.325796875 -160.674203125 c 0
 45 -147.34840625 45 -147.34840625 45 -129 c 2
EndSplineSet
EndChar

StartChar: braceleft
Encoding: 123 123 83
Width: 319
GlyphClass: 1
Flags: W
LayerCount: 2
Fore
SplineSet
67 129 m 0
 67 158.571763184 67 158.571763184 70 182.106919528 c 0
 73 205.642075871 73 205.642075871 73 223.394848303 c 0
 73 241.147620734 73 241.147620734 69.3963175777 252.613882987 c 0
 65.7926351555 264.08014524 65.7926351555 264.08014524 62.6835139774 267.242808503 c 0
 45 281 45 281 45 299 c 2
 45 374 l 2
 45 397.359530587 45 397.359530587 70.1250396505 412.015803717 c 0
 74.1722696412 414.039418712 74.1722696412 414.039418712 75.6278582813 420.589567592 c 0
 79 434.921169897 79 434.921169897 79 449.910622578 c 0
 79 470.903235066 79 470.903235066 76.2919083461 493.080811732 c 0
 75.1534073546 499.202717721 75.1534073546 499.202717721 73.4100370106 516.636427994 c 0
 71.6666666667 534.070138267 71.6666666667 534.070138267 71.6666666667 545.564752629 c 0
 71.6666666667 557.059366992 71.6666666667 557.059366992 72.0090792648 564.772554922 c 0
 73.293927796 641.776855134 73.293927796 641.776855134 119.285895805 681.023334528 c 0
 162.811263283 718.164981443 162.811263283 718.164981443 225.829463698 724 c 1
 227 724 l 1
 229 724 l 2
 248.9911367 724 248.9911367 724 261.498028751 710.35876758 c 0
 274.004920802 696.71753516 274.004920802 696.71753516 274.004920802 677.999931488 c 2
 272.999502189 605.787312512 l 2
 272.905569929 585.713681935 272.905569929 585.713681935 258.924507781 573.441416271 c 0
 249.602705831 565.258945671 249.602705831 565.258945671 235.628791381 562.607061642 c 0
 233 561.809740327 233 561.809740327 233 544.87396066 c 0
 233 519.40186471 233 519.40186471 235.927369034 493.055543408 c 0
 236.581395349 480.498238155 236.581395349 480.498238155 236.581395349 469.188209843 c 0
 236.581395349 391.012766957 236.581395349 391.012766957 207.134036613 337.033475018 c 1
 234 288 234 288 234 222 c 0
 234 200.94775557 234 200.94775557 232.764615163 190.558539263 c 0
 229 163.265079331 229 163.265079331 229 153.073441387 c 0
 229 142.881803443 229 142.881803443 229.20989881 139.953718824 c 0
 245.28945472 135.423832105 245.28945472 135.423832105 253.220907438 121.874267044 c 0
 259 112.001650585 259 112.001650585 259 99 c 2
 259 23 l 2
 259 2.06068328366 259 2.06068328366 245.348082269 -10.5410869296 c 0
 231.696164538 -23.1428571429 231.696164538 -23.1428571429 213.785714286 -23.1428571429 c 0
 210.543999705 -23.1428571429 210.543999705 -23.1428571429 207.009057475 -22.6825775059 c 0
 142.233158349 -12.2721651464 142.233158349 -12.2721651464 104.616579174 30.1211224947 c 0
 67 72.5144101357 67 72.5144101357 67 129 c 0
EndSplineSet
EndChar

StartChar: braceright
Encoding: 125 125 84
Width: 320
GlyphClass: 1
Flags: W
LayerCount: 2
Fore
SplineSet
61 23 m 2
 61 99 l 2
 61 112.001650585 61 112.001650585 66.7790925617 121.874267044 c 0
 74.71114311 135.424853398 74.71114311 135.424853398 90.792000618 139.954253875 c 0
 91 142.894782856 91 142.894782856 91 153.079931093 c 0
 91 158.899253773 91 158.899253773 87.1249762733 191.4870422 c 0
 86 202.736804934 86 202.736804934 86 222 c 0
 86 287.938217029 86 287.938217029 112.862216314 337.026627988 c 1
 83.0000000658 391.564745272 83.0000000658 391.564745272 83 469 c 2
 83 469.577241153 l 2
 83 469.577241153 83 469.577241153 84.0634325814 492.972757943 c 0
 87 519.40186471 87 519.40186471 87 537.597839431 c 0
 87 555.793814151 87 555.793814151 85.0729800792 562.30403 c 1
 69.8968048062 564.942041641 69.8968048062 564.942041641 60.2357165779 573.9211707 c 0
 47.1728794463 586.061925211 47.1728794463 586.061925211 47.0018389025 605.580505607 c 2
 45 677.646706098 l 2
 45 697.34840625 45 697.34840625 58.3924635417 710.740869792 c 0
 71.7849270833 724.133333333 71.7849270833 724.133333333 89.6444444444 724.133333333 c 0
 92.0715318004 724.133333333 92.0715318004 724.133333333 94.5231889654 723.874669983 c 0
 156.275067814 718.102794642 156.275067814 718.102794642 200.235450734 680.505098227 c 0
 246.70078033 640.765013705 246.70078033 640.765013705 247.990770083 564.775945189 c 0
 249.040283966 541.13964459 249.040283966 541.13964459 246.943437798 520.171182914 c 0
 244.846591631 499.202721239 244.846591631 499.202721239 243.82994631 492.477883853 c 0
 241 473.758544515 241 473.758544515 241 454.339857206 c 0
 241 435.326979258 241 435.326979258 244.405581135 420.43909022 c 0
 245.827730359 414.039418712 245.827730359 414.039418712 249.87496035 412.015803717 c 0
 275 397.359530587 275 397.359530587 275 374 c 2
 275 299 l 2
 275 280.503862253 275 280.503862253 256.979002409 266.98811406 c 0
 255.035189705 264.762316685 255.035189705 264.762316685 252.202828994 257.681414909 c 0
 247 244.674342423 247 244.674342423 247 224.658209147 c 0
 247 206.355463196 247 206.355463196 248.944396736 189.879093326 c 0
 253 155.512845858 253 155.512845858 253 129 c 0
 253 72.5144101357 253 72.5144101357 215.383420826 30.1211224947 c 0
 177.766841651 -12.2721651464 177.766841651 -12.2721651464 111.015869228 -23 c 1
 109 -23 l 1
 106 -23 l 2
 86.0088633005 -23 86.0088633005 -23 73.5044316502 -9.3588018361 c 0
 61 4.28239632779 61 4.28239632779 61 23 c 2
95.1980896041 141.033917004 m 1
 95.1980896041 141.033917004 l 1
EndSplineSet
EndChar

StartChar: bracketleft
Encoding: 91 91 85
Width: 322
GlyphClass: 1
Flags: W
LayerCount: 2
Fore
SplineSet
45 20 m 2
 45 680 l 2
 45 698.34840625 45 698.34840625 58.325796875 711.674203125 c 0
 71.65159375 725 71.65159375 725 90 725 c 2
 231 725 l 2
 249.34840625 725 249.34840625 725 262.674203125 711.674203125 c 0
 276 698.34840625 276 698.34840625 276 680 c 2
 276 607 l 2
 276 588.65159375 276 588.65159375 262.674203125 575.325796875 c 0
 249.34840625 562 249.34840625 562 231 562 c 2
 209 562 l 1
 209 139 l 1
 232 139 l 2
 250.34840625 139 250.34840625 139 263.674203125 125.674203125 c 0
 277 112.34840625 277 112.34840625 277 94 c 2
 277 20 l 2
 277 1.65159375 277 1.65159375 263.674203125 -11.674203125 c 0
 250.34840625 -25 250.34840625 -25 232 -25 c 2
 90 -25 l 2
 71.65159375 -25 71.65159375 -25 58.325796875 -11.674203125 c 0
 45 1.65159375 45 1.65159375 45 20 c 2
EndSplineSet
EndChar

StartChar: bracketright
Encoding: 93 93 86
Width: 322
GlyphClass: 1
Flags: W
LayerCount: 2
Fore
SplineSet
45 20 m 2
 45 94 l 2
 45 112.34840625 45 112.34840625 58.325796875 125.674203125 c 0
 71.65159375 139 71.65159375 139 90 139 c 2
 113 139 l 1
 113 562 l 1
 91 562 l 2
 72.65159375 562 72.65159375 562 59.325796875 575.325796875 c 0
 46 588.65159375 46 588.65159375 46 607 c 2
 46 680 l 2
 46 698.34840625 46 698.34840625 59.325796875 711.674203125 c 0
 72.65159375 725 72.65159375 725 91 725 c 2
 232 725 l 2
 250.34840625 725 250.34840625 725 263.674203125 711.674203125 c 0
 277 698.34840625 277 698.34840625 277 680 c 2
 277 20 l 2
 277 1.65159375 277 1.65159375 263.674203125 -11.674203125 c 0
 250.34840625 -25 250.34840625 -25 232 -25 c 2
 90 -25 l 2
 71.65159375 -25 71.65159375 -25 58.325796875 -11.674203125 c 0
 45 1.65159375 45 1.65159375 45 20 c 2
EndSplineSet
EndChar

StartChar: parenleft
Encoding: 40 40 87
Width: 335
GlyphClass: 1
Flags: W
LayerCount: 2
Fore
SplineSet
115.571596238 -43.7976336786 m 0
 45 122.887253594 45 122.887253594 45 335.641767526 c 0
 45 441.623122093 45 441.623122093 67.5793526146 548.875047012 c 0
 90.1587052291 656.126971931 90.1587052291 656.126971931 134.549129002 748.004825787 c 0
 139.866029077 758.638625937 139.866029077 758.638625937 149.850922218 766.319312968 c 0
 159.835815359 774 159.835815359 774 172.871191571 774 c 0
 185.90630684 774 185.90630684 774 197.93177202 767.987406878 c 2
 259.835608279 731.45321991 l 2
 271.889034956 724.221163904 271.889034956 724.221163904 276.944517478 713.604650607 c 0
 282 702.988137311 282 702.988137311 282 691.540784764 c 0
 282 680.093432217 282 680.093432217 277.10705673 670.307545678 c 0
 237.543338982 599.864828712 237.543338982 599.864828712 216.771669491 510.981405773 c 0
 196 422.097982835 196 422.097982835 196 334.32693057 c 0
 196 154.906567783 196 154.906567783 260.165604919 26.5753579449 c 1
 264 15.0721727014 264 15.0721727014 264 8 c 0
 264 -16.0136493649 264 -16.0136493649 242.390295935 -31.1404422101 c 1
 180.414981743 -66.7000487137 l 2
 168.668701193 -73 168.668701193 -73 156.238208886 -73 c 0
 143.807716578 -73 143.807716578 -73 132.327401628 -66.0584142158 c 0
 120.847086677 -59.1168284316 120.847086677 -59.1168284316 115.571596238 -43.7976336786 c 0
EndSplineSet
EndChar

StartChar: parenright
Encoding: 41 41 88
Width: 335
GlyphClass: 1
Flags: W
LayerCount: 2
Fore
SplineSet
71 8 m 0
 71 15.0721727014 71 15.0721727014 74.8343950812 26.5753579449 c 1
 107.163923713 91.2344152084 107.163923713 91.2344152084 123.081961856 168.895146757 c 0
 139 246.555878306 139 246.555878306 139 334.32693057 c 0
 139 422.097982835 139 422.097982835 118.228330509 510.981405773 c 0
 97.4566610179 599.864828712 97.4566610179 599.864828712 58.1868499176 669.784248476 c 0
 53 679.562626509 53 679.562626509 53 691.27538191 c 0
 53 718.153815599 53 718.153815599 75.3201670545 731.545915856 c 2,0,0
 75.3201670545 731.545915856 75.3201670545 731.545915856 137.06823208 767.987399931 c 0
 149.093432217 774 149.093432217 774 160.721859354 774 c 0
 172.350286491 774 172.350286491 774 183.483670313 767.712912665 c 0
 194.617054134 761.425825331 194.617054134 761.425825331 200.770384765 747.343039457 c 0
 244.904166499 655.82833379 244.904166499 655.82833379 267.464242909 548.667968274 c 0
 290 441.623122093 290 441.623122093 290 335.641767526 c 0
 290 122.887250346 290 122.887250346 219.4284032 -43.7976351429 c 0
 214.152913147 -59.116828902 214.152913147 -59.116828902 202.672598284 -66.058414451 c 0
 191.192283422 -73 191.192283422 -73 179.14285782 -73 c 0
 166.331298807 -73 166.331298807 -73 154.585018257 -66.7000487137 c 2
 92.6097040645 -31.1404422101 l 1
 71 -16.0136493649 71 -16.0136493649 71 8 c 0
EndSplineSet
EndChar

StartChar: emdash
Encoding: 8212 8212 89
Width: 740
GlyphClass: 1
Flags: W
LayerCount: 2
Fore
SplineSet
45 309 m 2
 45 381 l 2
 45 399.34840625 45 399.34840625 58.325796875 412.674203125 c 0
 71.65159375 426 71.65159375 426 90 426 c 2
 650 426 l 2
 668.34840625 426 668.34840625 426 681.674203125 412.674203125 c 0
 695 399.34840625 695 399.34840625 695 381 c 2
 695 309 l 2
 695 290.65159375 695 290.65159375 681.674203125 277.325796875 c 0
 668.34840625 264 668.34840625 264 650 264 c 2
 90 264 l 2
 71.65159375 264 71.65159375 264 58.325796875 277.325796875 c 0
 45 290.65159375 45 290.65159375 45 309 c 2
EndSplineSet
EndChar

StartChar: endash
Encoding: 8211 8211 90
Width: 568
GlyphClass: 1
Flags: W
LayerCount: 2
Fore
SplineSet
45 309 m 2
 45 381 l 2
 45 399.34840625 45 399.34840625 58.325796875 412.674203125 c 0
 71.65159375 426 71.65159375 426 90 426 c 2
 478 426 l 2
 496.34840625 426 496.34840625 426 509.674203125 412.674203125 c 0
 523 399.34840625 523 399.34840625 523 381 c 2
 523 309 l 2
 523 290.65159375 523 290.65159375 509.674203125 277.325796875 c 0
 496.34840625 264 496.34840625 264 478 264 c 2
 90 264 l 2
 71.65159375 264 71.65159375 264 58.325796875 277.325796875 c 0
 45 290.65159375 45 290.65159375 45 309 c 2
EndSplineSet
EndChar

StartChar: hyphen
Encoding: 45 45 91
Width: 468
GlyphClass: 1
Flags: W
LayerCount: 2
Fore
SplineSet
45 309 m 2
 45 381 l 2
 45 399.34840625 45 399.34840625 58.325796875 412.674203125 c 0
 71.65159375 426 71.65159375 426 90 426 c 2
 378 426 l 2
 396.34840625 426 396.34840625 426 409.674203125 412.674203125 c 0
 423 399.34840625 423 399.34840625 423 381 c 2
 423 309 l 2
 423 290.65159375 423 290.65159375 409.674203125 277.325796875 c 0
 396.34840625 264 396.34840625 264 378 264 c 2
 90 264 l 2
 71.65159375 264 71.65159375 264 58.325796875 277.325796875 c 0
 45 290.65159375 45 290.65159375 45 309 c 2
EndSplineSet
EndChar

StartChar: guillemotleft
Encoding: 171 171 92
Width: 840
GlyphClass: 1
Flags: W
LayerCount: 2
Fore
SplineSet
795 263 m 2
 795 172 l 2
 795 151.189756093 795 151.189756093 781.447613242 136.594878047 c 0
 767.895226485 122 767.895226485 122 747 122 c 0
 736.286213072 122 736.286213072 122 725.271049504 127.41302071 c 2
 435 260.24892472 l 1
 435 172 l 2
 435 151.189756093 435 151.189756093 421.447613242 136.594878047 c 0
 407.895226485 122 407.895226485 122 387 122 c 0
 376.286213072 122 376.286213072 122 365.271049504 127.41302071 c 2
 71.0206859639 262.069966736 l 2
 58.6580858259 267.312215495 58.6580858259 267.312215495 51.829042913 278.693953683 c 0
 45 290.075691871 45 290.075691871 45 302 c 2
 45 387 l 2
 45 398.924308129 45 398.924308129 51.8498536576 410.340730891 c 0
 58.6997073151 421.757153654 58.6997073151 421.757153654 71.1431833326 426.981721226 c 2
 367.805720469 559.725636149 l 2
 380.910389924 563.001803512 380.910389924 563.001803512 383.428638841 563.001803512 c 0
 385.946887758 563.001803512 385.946887758 563.001803512 386 563 c 0
 406.34840625 563 406.34840625 563 420.674203125 548.674203125 c 0
 435 534.34840625 435 534.34840625 435 514 c 2
 435 428.707483261 l 1
 727.805720469 559.725636149 l 2
 740.910389924 563.001803512 740.910389924 563.001803512 743.428638841 563.001803512 c 0
 745.946887758 563.001803512 745.946887758 563.001803512 746 563 c 0
 766.34840625 563 766.34840625 563 780.674203125 548.674203125 c 0
 795 534.34840625 795 534.34840625 795 514 c 2
 795 424 l 2
 795 412.075691871 795 412.075691871 788.150341338 400.659594101 c 0
 781.300682675 389.24349633 781.300682675 389.24349633 768.857964058 384.018760544 c 2
 677.608879128 343.180009247 l 1
 768.773080261 303.016759797 l 2
 781.271824211 297.80460111 781.271824211 297.80460111 788.135912105 286.364454619 c 0
 795 274.924308129 795 274.924308129 795 263 c 2
405 304.679025925 m 1
 405 382.292119287 l 1
 317.608879128 343.180009247 l 1
 405 304.679025925 l 1
EndSplineSet
EndChar

StartChar: guillemotright
Encoding: 187 187 93
Width: 840
GlyphClass: 1
Flags: W
LayerCount: 2
Fore
SplineSet
45 172 m 2
 45 263 l 2
 45 274.924308129 45 274.924308129 51.8640878945 286.364454619 c 0
 58.7281757891 297.80460111 58.7281757891 297.80460111 71.2269197393 303.016759797 c 2
 162.391120872 343.180009247 l 1
 71.1420359421 384.018760544 l 2
 58.6993173249 389.24349633 58.6993173249 389.24349633 51.8496586625 400.659594101 c 0
 45 412.075691871 45 412.075691871 45 424 c 2
 45 514 l 2
 45 534.34840625 45 534.34840625 59.325796875 548.674203125 c 0
 73.65159375 563 73.65159375 563 94 563 c 0
 99.0968241251 563 99.0968241251 563 112.194279531 559.725636149 c 2
 405 428.707483261 l 1
 405 514 l 2
 405 534.34840625 405 534.34840625 419.325796875 548.674203125 c 0
 433.65159375 563 433.65159375 563 454 563 c 0
 459.096824125 563 459.096824125 563 472.194279531 559.725636149 c 2
 768.856816667 426.981721226 l 2
 781.300292685 421.757153654 781.300292685 421.757153654 788.150146342 410.340730891 c 0
 795 398.924308129 795 398.924308129 795 387 c 2
 795 302 l 2
 795 290.075691871 795 290.075691871 788.170957087 278.693953683 c 0
 781.341914174 267.312215495 781.341914174 267.312215495 768.979314036 262.069966736 c 2
 474.728950496 127.41302071 l 2
 463.713786928 122 463.713786928 122 453 122 c 0
 432.104773515 122 432.104773515 122 418.552386758 136.594878047 c 0
 405 151.189756093 405 151.189756093 405 172 c 2
 405 260.24892472 l 1
 114.728950496 127.41302071 l 2
 103.713786928 122 103.713786928 122 93 122 c 0
 72.1047735153 122 72.1047735153 122 58.5523867577 136.594878047 c 0
 45 151.189756093 45 151.189756093 45 172 c 2
435 304.679025925 m 1
 522.391120872 343.180009247 l 1
 435 382.292119287 l 1
 435 304.679025925 l 1
EndSplineSet
EndChar

StartChar: guilsinglleft
Encoding: 8249 8249 94
Width: 480
GlyphClass: 1
Flags: W
LayerCount: 2
Fore
SplineSet
435 263 m 2
 435 172 l 2
 435 151.189756093 435 151.189756093 421.447613242 136.594878047 c 0
 407.895226485 122 407.895226485 122 387 122 c 0
 376.286213072 122 376.286213072 122 365.271049504 127.41302071 c 2
 71.0206859639 262.069966736 l 2
 58.6580858259 267.312215495 58.6580858259 267.312215495 51.829042913 278.693953683 c 0
 45 290.075691871 45 290.075691871 45 302 c 2
 45 387 l 2
 45 398.924308129 45 398.924308129 51.8498536576 410.340730891 c 0
 58.6997073151 421.757153654 58.6997073151 421.757153654 71.1431833326 426.981721226 c 2
 367.805720469 559.725636149 l 1
 380.910389924 563.001803512 380.910389924 563.001803512 383.428638841 563.001803512 c 0,0,0
 385.946887758 563.001803512 385.946887758 563.001803512 386 563 c 0
 406.34840625 563 406.34840625 563 420.674203125 548.674203125 c 0
 435 534.34840625 435 534.34840625 435 514 c 2
 435 424 l 2
 435 412.075691871 435 412.075691871 428.150341338 400.659594101 c 0
 421.300682675 389.24349633 421.300682675 389.24349633 408.857964058 384.018760544 c 2
 317.608879128 343.180009247 l 1
 408.773080261 303.016759797 l 2
 421.271824211 297.80460111 421.271824211 297.80460111 428.135912105 286.364454619 c 0
 435 274.924308129 435 274.924308129 435 263 c 2
EndSplineSet
EndChar

StartChar: guilsinglright
Encoding: 8250 8250 95
Width: 480
GlyphClass: 1
Flags: W
LayerCount: 2
Fore
SplineSet
45 172 m 2
 45 263 l 2
 45 274.924308129 45 274.924308129 51.8640878945 286.364454619 c 0
 58.7281757891 297.80460111 58.7281757891 297.80460111 71.2269197393 303.016759797 c 2
 162.391120872 343.180009247 l 1
 71.1420359421 384.018760544 l 2
 58.6993173249 389.24349633 58.6993173249 389.24349633 51.8496586625 400.659594101 c 0
 45 412.075691871 45 412.075691871 45 424 c 2
 45 514 l 2
 45 534.34840625 45 534.34840625 59.325796875 548.674203125 c 0
 73.65159375 563 73.65159375 563 94 563 c 0
 99.0968241251 563 99.0968241251 563 112.194279531 559.725636149 c 1
 408.856816667 426.981721226 l 2
 421.300292685 421.757153654 421.300292685 421.757153654 428.150146342 410.340730891 c 0
 435 398.924308129 435 398.924308129 435 387 c 2
 435 302 l 2
 435 290.075691871 435 290.075691871 428.170957087 278.693953683 c 0
 421.341914174 267.312215495 421.341914174 267.312215495 408.979314036 262.069966736 c 2
 114.728950496 127.41302071 l 2
 103.713786928 122 103.713786928 122 93 122 c 0
 72.1047735153 122 72.1047735153 122 58.5523867577 136.594878047 c 0
 45 151.189756093 45 151.189756093 45 172 c 2
EndSplineSet
EndChar

StartChar: quotedblbase
Encoding: 8222 8222 96
Width: 417
GlyphClass: 1
Flags: W
LayerCount: 2
Fore
SplineSet
229.325796875 117.674203125 m 0
 253.65159375 142 253.65159375 142 288.5 142 c 0
 323.34840625 142 323.34840625 142 347.674203125 117.674203125 c 0
 372 93.34840625 372 93.34840625 372 60.4011759108 c 0
 372 27.4539455715 372 27.4539455715 355.52298733 -16.4847548811 c 0
 339.045974661 -60.4234553337 339.045974661 -60.4234553337 316.705864889 -88.6425413614 c 0
 302.34840625 -103 302.34840625 -103 284 -103 c 0
 271.45789392 -103 271.45789392 -103 262.814856849 -97.8607123156 c 0
 238 -85.4532838913 238 -85.4532838913 238 -58 c 0
 238 -50.175058459 238 -50.175058459 240.5 -39.175058459 c 0
 243 -28.175058459 243 -28.175058459 243 -24 c 0
 243 -14.5003343902 243 -14.5003343902 236.918906295 -7.38707622975 c 0
 216.571472874 8.8202671115 216.571472874 8.8202671115 209.194974077 31.3419487481 c 1
 205.201584914 9.32483867677 205.201584914 9.32483867677 195.52298733 -16.4847548811 c 0
 179.045974661 -60.4234553337 179.045974661 -60.4234553337 156.705864889 -88.6425413614 c 0
 142.34840625 -103 142.34840625 -103 124 -103 c 0
 111.45789392 -103 111.45789392 -103 102.814856849 -97.8607123156 c 0
 78 -85.4532838913 78 -85.4532838913 78 -58 c 0
 78 -50.175058459 78 -50.175058459 80.5 -39.175058459 c 0
 83 -28.175058459 83 -28.175058459 83 -24 c 0
 83 -14.5003343903 83 -14.5003343903 76.9189062951 -7.38707622977 c 0
 45.000000776 18.0372930317 45.000000776 18.0372930317 45 59 c 0
 45 93.34840625 45 93.34840625 69.325796875 117.674203125 c 0
 93.65159375 142 93.65159375 142 128.5 142 c 0
 163.34840625 142 163.34840625 142 187.674203125 117.674203125 c 0
 202.882528337 102.465877913 202.882528337 102.465877913 208.582710529 83.8877217833 c 1
 214.335539009 102.683945259 214.335539009 102.683945259 229.325796875 117.674203125 c 0
EndSplineSet
EndChar

StartChar: quotedblleft
Encoding: 8220 8220 97
Width: 417
GlyphClass: 1
Flags: W
LayerCount: 2
Fore
SplineSet
69.325796875 499.325796875 m 0
 45 523.65159375 45 523.65159375 45 556.598824089 c 0
 45 589.546054428 45 589.546054428 61.4770126697 633.484754881 c 0
 77.9540253395 677.423455334 77.9540253395 677.423455334 100.294135111 705.642541361 c 0
 114.65159375 720 114.65159375 720 133 720 c 0
 145.54210608 720 145.54210608 720 154.185143151 714.860712316 c 0
 179 702.453283891 179 702.453283891 179 675 c 0
 179 667.175058459 179 667.175058459 176.5 656.175058459 c 0
 174 645.175058459 174 645.175058459 174 641 c 0
 174 631.50033439 174 631.50033439 180.081093705 624.38707623 c 0
 200.428527126 608.179732889 200.428527126 608.179732889 207.805025923 585.658051252 c 1
 211.798415086 607.675161323 211.798415086 607.675161323 221.47701267 633.484754881 c 0
 237.954025339 677.423455334 237.954025339 677.423455334 260.294135111 705.642541361 c 0
 274.65159375 720 274.65159375 720 293 720 c 0
 305.54210608 720 305.54210608 720 314.185143151 714.860712316 c 0
 339 702.453283891 339 702.453283891 339 675 c 0
 339 667.175058459 339 667.175058459 336.5 656.175058459 c 0
 334 645.175058459 334 645.175058459 334 641 c 0
 334 631.50033439 334 631.50033439 340.081093705 624.38707623 c 0
 371.999999224 598.962706968 371.999999224 598.962706968 372 558 c 0
 372 523.65159375 372 523.65159375 347.674203125 499.325796875 c 0
 323.34840625 475 323.34840625 475 288.5 475 c 0
 253.65159375 475 253.65159375 475 229.325796875 499.325796875 c 0
 214.117471663 514.534122087 214.117471663 514.534122087 208.417289471 533.112278217 c 1
 202.664460991 514.316054741 202.664460991 514.316054741 187.674203125 499.325796875 c 0
 163.34840625 475 163.34840625 475 128.5 475 c 0
 93.65159375 475 93.65159375 475 69.325796875 499.325796875 c 0
EndSplineSet
EndChar

StartChar: quotedblright
Encoding: 8221 8221 98
Width: 417
GlyphClass: 1
Flags: W
LayerCount: 2
Fore
SplineSet
229.325796875 700.674203125 m 0
 253.65159375 725 253.65159375 725 288.5 725 c 0
 323.34840625 725 323.34840625 725 347.674203125 700.674203125 c 0
 372 676.34840625 372 676.34840625 372 643.401175911 c 0
 372 610.453945572 372 610.453945572 355.52298733 566.515245119 c 0
 339.045974661 522.576544666 339.045974661 522.576544666 316.705864889 494.357458639 c 0
 302.34840625 480 302.34840625 480 284 480 c 0
 271.45789392 480 271.45789392 480 262.814856849 485.139287684 c 0
 238 497.546716109 238 497.546716109 238 525 c 0
 238 532.824941541 238 532.824941541 240.5 543.824941541 c 0
 243 554.824941541 243 554.824941541 243 559 c 0
 243 568.49966561 243 568.49966561 236.918906295 575.61292377 c 0
 216.571472874 591.820267112 216.571472874 591.820267112 209.194974077 614.341948748 c 1
 205.201584914 592.324838677 205.201584914 592.324838677 195.52298733 566.515245119 c 0
 179.045974661 522.576544666 179.045974661 522.576544666 156.705864889 494.357458639 c 0
 142.34840625 480 142.34840625 480 124 480 c 0
 111.45789392 480 111.45789392 480 102.814856849 485.139287684 c 0
 78 497.546716109 78 497.546716109 78 525 c 0
 78 532.824941541 78 532.824941541 80.5 543.824941541 c 0
 83 554.824941541 83 554.824941541 83 559 c 0
 83 568.49966561 83 568.49966561 76.918906295 575.61292377 c 0
 45.0000007759 601.037293032 45.0000007759 601.037293032 45 642 c 0
 45 676.34840625 45 676.34840625 69.325796875 700.674203125 c 0
 93.65159375 725 93.65159375 725 128.5 725 c 0
 163.34840625 725 163.34840625 725 187.674203125 700.674203125 c 0
 202.882528337 685.465877913 202.882528337 685.465877913 208.582710529 666.887721783 c 1
 214.335539009 685.683945259 214.335539009 685.683945259 229.325796875 700.674203125 c 0
EndSplineSet
EndChar

StartChar: quoteleft
Encoding: 8216 8216 99
Width: 257
GlyphClass: 1
Flags: W
LayerCount: 2
Fore
SplineSet
69.325796875 499.325796875 m 0
 45 523.65159375 45 523.65159375 45 556.598824089 c 0
 45 589.546054428 45 589.546054428 61.4770126697 633.484754881 c 0
 77.9540253395 677.423455334 77.9540253395 677.423455334 100.294135111 705.642541361 c 1
 114.65159375 720 114.65159375 720 133 720 c 0
 145.54210608 720 145.54210608 720 154.185143151 714.860712316 c 0
 179 702.453283891 179 702.453283891 179 675 c 0
 179 667.175058459 179 667.175058459 176.5 656.175058459 c 0
 174 645.175058459 174 645.175058459 174 641 c 0
 174 631.50033439 174 631.50033439 180.081093705 624.38707623 c 0
 211.999999224 598.962706968 211.999999224 598.962706968 212 558 c 0
 212 523.65159375 212 523.65159375 187.674203125 499.325796875 c 0
 163.34840625 475 163.34840625 475 128.5 475 c 0
 93.65159375 475 93.65159375 475 69.325796875 499.325796875 c 0
EndSplineSet
EndChar

StartChar: quoteright
Encoding: 8217 8217 100
Width: 257
GlyphClass: 1
Flags: W
LayerCount: 2
Fore
SplineSet
69.325796875 700.674203125 m 0
 93.65159375 725 93.65159375 725 128.5 725 c 0
 163.34840625 725 163.34840625 725 187.674203125 700.674203125 c 0
 212 676.34840625 212 676.34840625 212 643.401175911 c 0
 212 610.453945572 212 610.453945572 195.52298733 566.515245119 c 0
 179.045974661 522.576544666 179.045974661 522.576544666 156.705864889 494.357458639 c 1
 142.34840625 480 142.34840625 480 124 480 c 0
 111.45789392 480 111.45789392 480 102.814856849 485.139287684 c 0
 78 497.546716109 78 497.546716109 78 525 c 0
 78 532.824941541 78 532.824941541 80.5 543.824941541 c 0
 83 554.824941541 83 554.824941541 83 559 c 0
 83 568.49966561 83 568.49966561 76.918906295 575.61292377 c 0
 45.0000007759 601.037293032 45.0000007759 601.037293032 45 642 c 0
 45 676.34840625 45 676.34840625 69.325796875 700.674203125 c 0
EndSplineSet
EndChar

StartChar: quotesinglbase
Encoding: 8218 8218 101
Width: 257
GlyphClass: 1
Flags: W
LayerCount: 2
Fore
SplineSet
69.325796875 117.674203125 m 0
 93.65159375 142 93.65159375 142 128.5 142 c 0
 163.34840625 142 163.34840625 142 187.674203125 117.674203125 c 0
 212 93.34840625 212 93.34840625 212 60.4011759108 c 0
 212 27.4539455715 212 27.4539455715 195.52298733 -16.4847548811 c 0
 179.045974661 -60.4234553337 179.045974661 -60.4234553337 156.705864889 -88.6425413614 c 1
 142.34840625 -103 142.34840625 -103 124 -103 c 0
 111.45789392 -103 111.45789392 -103 102.814856849 -97.8607123156 c 0
 78 -85.4532838913 78 -85.4532838913 78 -58 c 0
 78 -50.175058459 78 -50.175058459 80.5 -39.175058459 c 0
 83 -28.175058459 83 -28.175058459 83 -24 c 0
 83 -14.5003343903 83 -14.5003343903 76.9189062951 -7.38707622977 c 0
 45.000000776 18.0372930317 45.000000776 18.0372930317 45 59 c 0
 45 93.34840625 45 93.34840625 69.325796875 117.674203125 c 0
EndSplineSet
EndChar

StartChar: cent
Encoding: 162 162 102
Width: 494
GlyphClass: 1
Flags: W
LayerCount: 2
Fore
SplineSet
174 20 m 2
 174 64.038926391 l 1
 120.185397813 82.0986858846 120.185397813 82.0986858846 85.9367923115 128.089670415 c 0
 46.1101202653 181.571201449 46.1101202653 181.571201449 45.0022613524 264.660619914 c 1
 45.0022613524 424.348662923 l 1
 46.1178191426 505.784381601 46.1178191426 505.784381601 87.8245640424 558.917472112 c 0
 123.022943559 603.759243277 123.022943559 603.759243277 174 622.413266672 c 1
 174 680 l 2
 174 698.34840625 174 698.34840625 187.325796875 711.674203125 c 0
 200.65159375 725 200.65159375 725 219 725 c 2
 271 725 l 2
 289.34840625 725 289.34840625 725 302.674203125 711.674203125 c 0
 316 698.34840625 316 698.34840625 316 680 c 2
 316 622.509909584 l 1
 367.896120623 603.841672803 367.896120623 603.841672803 402.778795968 558.784883815 c 0
 443.549555395 506.122652889 443.549555395 506.122652889 447.96407871 423.350340745 c 1
 448 422 l 1
 448 420 l 2
 448 400.0088633 448 400.0088633 434.358801836 387.50443165 c 0
 420.717603672 375 420.717603672 375 403 375 c 2
 331 375 l 2
 312.65159375 375 312.65159375 375 300.384955721 387.266638029 c 0
 288.118317692 399.533276058 288.118317692 399.533276058 286.105626278 417.647498792 c 0
 283.889988577 446.820061849 283.889988577 446.820061849 275.013502447 460.410030924 c 0
 266.137016316 474 266.137016316 474 248 474 c 0
 234.396567835 474 234.396567835 474 222.915466039 458.893287111 c 0
 209 440.583463375 209 440.583463375 209 406 c 2
 209 283.140567328 l 2
 209.615551617 228.847381193 209.615551617 228.847381193 231.921549819 218.274201617 c 0
 238.829059036 215 238.829059036 215 249 215 c 0
 264.779469421 215 264.779469421 215 274.300288644 225.710921626 c 0
 283.821107868 236.421843252 283.821107868 236.421843252 286.122533125 262.504662837 c 0
 288.118317692 280.466723942 288.118317692 280.466723942 300.384989977 292.735822372 c 0
 312.651662262 305.004920802 312.651662262 305.004920802 331.000068512 305.004920802 c 2
 403.212399732 303.999506185 l 2
 422.438276271 303.910129979 422.438276271 303.910129979 435.290566707 291.057839543 c 0
 448.142857143 278.205549107 448.142857143 278.205549107 448.142857143 260.510204082 c 0
 448.142857143 258.274498792 448.142857143 258.274498792 447.927988037 256.008237095 c 0
 443.366890067 176.445124609 443.366890067 176.445124609 402.531043836 125.400317184 c 0
 367.688716077 81.8474074865 367.688716077 81.8474074865 316 64.1710088507 c 1
 316 20 l 2
 316 1.65159375 316 1.65159375 302.674203125 -11.674203125 c 0
 289.34840625 -25 289.34840625 -25 271 -25 c 2
 219 -25 l 2
 200.65159375 -25 200.65159375 -25 187.325796875 -11.674203125 c 0
 174 1.65159375 174 1.65159375 174 20 c 2
EndSplineSet
EndChar

StartChar: currency
Encoding: 164 164 103
Width: 494
GlyphClass: 1
Flags: W
LayerCount: 2
Fore
SplineSet
69.325796875 95.325796875 m 2
 55 109.65159375 55 109.65159375 55 128.19148267 c 0
 55 146.73137159 55 146.73137159 67.8809174598 158.472778727 c 1
 45.9183102315 203.283187519 45.9183102315 203.283187519 45.0028328877 264.620169558 c 2
 45.0028328877 424 l 2
 45.0028328877 483.24240949 45.0028328877 483.24240949 70.6654794576 531.986114292 c 1
 68.325796875 534.325796875 l 2
 55 547.65159375 55 547.65159375 55 566 c 0
 55 584.34840625 55 584.34840625 68.325796875 597.674203125 c 2
 106.325796875 635.674203125 l 2
 119.65159375 649 119.65159375 649 138 649 c 0
 156.34840625 649 156.34840625 649 169.674203125 635.674203125 c 2
 180.378972768 624.969433482 l 1
 211.302423815 635 211.302423815 635 245.664597532 635 c 0
 280.02677125 635 280.02677125 635 313.656585794 624.004992044 c 1
 325.325796875 635.674203125 l 2
 338.65159375 649 338.65159375 649 357 649 c 0
 375.34840625 649 375.34840625 649 388.674203125 635.674203125 c 2
 425.674203125 598.674203125 l 2
 439 585.34840625 439 585.34840625 439 566.5 c 0
 439 547.65159375 439 547.65159375 425.674203125 534.325796875 c 2
 421.028473586 529.680067336 l 1
 449 474.077913518 449 474.077913518 449 400 c 2
 449 279 l 2
 449 211.276481808 449 211.276481808 424.885957493 161.462448757 c 1
 426.674203125 159.674203125 l 2
 440 146.34840625 440 146.34840625 440 128 c 0
 440 109.65159375 440 109.65159375 426.674203125 96.325796875 c 2
 388.674203125 58.325796875 l 2
 375.34840625 45 375.34840625 45 357 45 c 0
 338.65159375 45 338.65159375 45 325.325796875 58.325796875 c 2
 318.075143261 65.5764504893 l 1
 283.258580057 53 283.258580057 53 245.691314426 53 c 0
 208.124048795 53 208.124048795 53 175.255859403 63.9074531532 c 1
 169.674203125 58.325796875 l 2
 156.34840625 45 156.34840625 45 138 45 c 0
 119.65159375 45 119.65159375 45 106.325796875 58.325796875 c 2
 69.325796875 95.325796875 l 2
287 280 m 2
 287 400 l 2
 287 459.201104998 287 459.201104998 264.419703838 470.653201924 c 0
 257.820764602 474 257.820764602 474 248 474 c 0
 234.396567835 474 234.396567835 474 222.915466039 458.893287111 c 0
 209 440.583463375 209 440.583463375 209 406 c 2
 209 283.140567328 l 2
 209.615551617 228.847381193 209.615551617 228.847381193 231.921549819 218.274201617 c 0
 238.829059036 215 238.829059036 215 249 215 c 0
 266.93975372 215 266.93975372 215 275.463301882 227.252600484 c 0
 287 243.836604028 287 243.836604028 287 280 c 2
EndSplineSet
EndChar

StartChar: dollar
Encoding: 36 36 104
Width: 567
GlyphClass: 1
Flags: W
LayerCount: 2
Fore
SplineSet
206.824774749 -86.673828125 m 0,0,1
 189 -73.3486328125 189 -73.3486328125 189 -55 c 2,2,3
 189 -1.3916015625 189 -1.3916015625 189 2.216796875 c 1,4,5
 145.578125 17.40234375 145.578125 17.40234375 115.0859375 52.6591796875 c 0,6,7
 77.923828125 95.626953125 77.923828125 95.626953125 71 163.715820312 c 1,8,9
 71 189.357421875 71 189.357421875 71 165 c 1,10,11
 71 191 71 191 71 167 c 2,12,13
 71 186.991210938 71 186.991210938 84.6416015625 199.495117188 c 128,-1,14
 98.2822265625 212 98.2822265625 212 117 212 c 2,15,-1
 191.364963504 212 l 2,16,17
 215.467766309 212 215.467766309 212 232.148580064 200.890625 c 128,-1,18
 248.829393818 189.780273438 248.829393818 189.780273438 252.27379391 173.435546875 c 0,19,20
 255.39828068 163.201171875 255.39828068 163.201171875 261.833870324 159.100585938 c 128,-1,21
 268.27079294 155 268.27079294 155 275.99270073 155 c 0,22,23
 290.772696168 155 290.772696168 155 304.539632755 165.4453125 c 128,-1,24
 318.306569343 175.890625 318.306569343 175.890625 318.306569343 198.301757812 c 128,-1,25
 318.306569343 220.711914062 318.306569343 220.711914062 290.204850023 247.095703125 c 128,-1,26
 262.103130703 273.479492188 262.103130703 273.479492188 199.597399635 316.81640625 c 0,27,28
 136.513671875 374.795898438 136.513671875 374.795898438 104.791015625 418.16796875 c 0,29,30
 70 465.733398438 70 465.733398438 70 522.880859375 c 0,31,32
 70 594.422851562 70 594.422851562 108.35546875 642.697265625 c 0,33,34
 140.778320312 683.50390625 140.778320312 683.50390625 189 702.202148438 c 1,35,36
 189 710.770507812 189 710.770507812 189 757.323242188 c 2,37,38
 189 774.326171875 189 774.326171875 206.824774749 786.673828125 c 0,39,40
 225.01318003 800 225.01318003 800 250.058394161 800 c 2,41,-1
 321.03649635 800 l 2,42,43
 346.081710481 800 346.081710481 800 364.270115762 786.673828125 c 0,44,45
 381 773.348632812 381 773.348632812 381 755 c 2,46,47
 381 701.614257812 381 701.614257812 381 698.229492188 c 1,48,49
 422.583007812 682.407226562 422.583007812 682.407226562 452.431640625 647.8203125 c 0,50,51
 489.061523438 605.376953125 489.061523438 605.376953125 496 538.306640625 c 1,52,53
 496 512.653320312 496 512.653320312 496 537 c 1,54,55
 496 511 496 511 496 535 c 2,56,57
 496 515.008789062 496 515.008789062 482.358398438 502.504882812 c 128,-1,58
 468.717773438 490 468.717773438 490 450 490 c 2,59,-1
 375.635036496 490 l 2,60,61
 351.532233691 490 351.532233691 490 334.851419936 501.109375 c 128,-1,62
 318.171939154 512.21875 318.171939154 512.21875 314.72620609 528.5625 c 0,63,64
 309.399649293 546 309.399649293 546 291.00729927 546 c 0,65,66
 275.955377509 546 275.955377509 546 262.324404083 535.928710938 c 128,-1,67
 248.693430657 525.856445312 248.693430657 525.856445312 248.693430657 505.22265625 c 0,68,69
 248.693430657 479.475585938 248.693430657 479.475585938 272.758910242 457.327148438 c 0,70,71
 301.719063641 430.672851562 301.719063641 430.672851562 360.61643904 392.526367188 c 0,72,73
 408.147460938 354.379882812 408.147460938 354.379882812 433.6875 326.764648438 c 128,-1,74
 459.227539062 299.150390625 459.227539062 299.150390625 478.114257812 261.571289062 c 128,-1,75
 497 223.991210938 497 223.991210938 497 179.00390625 c 0,76,77
 497 108.49609375 497 108.49609375 459.780273438 60.7353515625 c 0,78,79
 428.283203125 20.3193359375 428.283203125 20.3193359375 381 0.9560546875 c 1,80,81
 381 -9.296875 381 -9.296875 381 -57.3203125 c 2,82,83
 381 -74.32421875 381 -74.32421875 364.270115762 -86.673828125 c 0,84,85
 346.081710481 -100 346.081710481 -100 321.03649635 -100 c 2,86,-1
 250.058394161 -100 l 2,87,88
 225.01318003 -100 225.01318003 -100 206.824774749 -86.673828125 c 0,0,1
EndSplineSet
EndChar

StartChar: Euro
Encoding: 8364 8364 105
Width: 497
GlyphClass: 1
Flags: W
LayerCount: 2
Fore
SplineSet
105.001570942 224 m 1
 90 224 l 2
 71.65159375 224 71.65159375 224 58.325796875 237.325796875 c 0
 45 250.65159375 45 250.65159375 45 269 c 2
 45 311 l 2
 45 329.34840625 45 329.34840625 58.325796875 342.674203125 c 0
 62.5976116583 346.946017908 62.5976116583 346.946017908 67.9274207128 350 c 1
 62.5976116583 353.053982092 62.5976116583 353.053982092 58.325796875 357.325796875 c 0
 45 370.65159375 45 370.65159375 45 389 c 2
 45 431 l 2
 45 449.34840625 45 449.34840625 58.325796875 462.674203125 c 0
 71.65159375 476 71.65159375 476 90 476 c 2
 105 476 l 1
 105 524 l 2
 105 589.877318705 105 589.877318705 133.501766859 637.760287028 c 0
 162.026371088 685.681622132 162.026371088 685.681622132 207.330462385 710.340811066 c 0
 252.634553682 735 252.634553682 735 303 735 c 0
 375.528783944 735 375.528783944 735 425.280680139 695.783542557 c 0
 443 682 443 682 443 660 c 0
 443 641.65159375 443 641.65159375 429.674203125 628.325796875 c 2
 377.674203125 576.325796875 l 2
 365.34840625 564 365.34840625 564 349 564 c 0
 341.174342423 564 341.174342423 564 325.769791396 570.161820411 c 0
 318.093432217 574 318.093432217 574 308 574 c 0
 294.396567835 574 294.396567835 574 282.915466039 558.893287111 c 0
 269 540.583463375 269 540.583463375 269 506 c 2
 269 476 l 1
 349 476 l 2
 367.34840625 476 367.34840625 476 380.674203125 462.674203125 c 0
 394 449.34840625 394 449.34840625 394 431 c 2
 394 389 l 2
 394 370.65159375 394 370.65159375 380.674203125 357.325796875 c 0
 376.402388342 353.053982092 376.402388342 353.053982092 371.072579287 350 c 1
 376.402388342 346.946017908 376.402388342 346.946017908 380.674203125 342.674203125 c 0
 394 329.34840625 394 329.34840625 394 311 c 2
 394 269 l 2
 394 250.65159375 394 250.65159375 380.674203125 237.325796875 c 0
 367.34840625 224 367.34840625 224 349 224 c 2
 269 224 l 1
 269 193.140567328 l 2
 269.615551617 138.847381193 269.615551617 138.847381193 291.921549819 128.274201617 c 0
 298.829059036 125 298.829059036 125 308.461245627 125 c 0
 318.093432217 125 318.093432217 125 327.093432217 129.5 c 0
 336.093432217 134 336.093432217 134 348 134 c 0
 367.455717079 134 367.455717079 134 379.968016107 119.280265397 c 2
 428.404007934 63.9248461659 l 2
 440 51.6986825427 440 51.6986825427 440 33 c 0
 440 9.6473436917 440 9.6473436917 420.861919188 -2.80843662293 c 0
 371.565457933 -36.9999973801 371.565457933 -36.9999973801 305 -37 c 0
 218.726646649 -37 218.726646649 -37 162.417361663 18.7347004458 c 0
 106.115516178 74.4620373038 106.115516178 74.4620373038 105.001570942 174.717108538 c 1
 105.001570942 175 l 1
 105.001570942 224 l 1
EndSplineSet
EndChar

StartChar: yen
Encoding: 165 165 106
Width: 539
GlyphClass: 1
Flags: W
LayerCount: 2
Fore
SplineSet
188 20 m 2
 188 174 l 1
 90 174 l 2
 71.65159375 174 71.65159375 174 58.325796875 187.325796875 c 0
 45 200.65159375 45 200.65159375 45 219 c 2
 45 261 l 2
 45 279.34840625 45 279.34840625 58.325796875 292.674203125 c 0
 62.5976116583 296.946017908 62.5976116583 296.946017908 67.9274207128 300 c 1
 62.5976116583 303.053982092 62.5976116583 303.053982092 58.325796875 307.325796875 c 0
 45 320.65159375 45 320.65159375 45 339 c 2
 45 381 l 2
 45 399.34840625 45 399.34840625 58.325796875 412.674203125 c 0
 71.65159375 426 71.65159375 426 90 426 c 2
 153.915513061 426 l 1
 59.8136766245 658.640651191 l 2
 56 668.989495166 56 668.989495166 56 678 c 0
 56 697.895226485 56 697.895226485 70.5948780467 711.447613242 c 0
 85.1897560934 725 85.1897560934 725 105 725 c 2
 174 725 l 2
 189.615915021 725 189.615915021 725 199.543101431 716.840668705 c 0
 209.47028784 708.68133741 209.47028784 708.68133741 214.232348771 697.252391175 c 2
 270 551.127026562 l 1
 325.633928197 696.902002977 l 2
 330.239214114 708.442571892 330.239214114 708.442571892 340.311649546 716.721285946 c 0
 350.384084979 725 350.384084979 725 366 725 c 2
 434 725 l 2
 453.810243907 725 453.810243907 725 468.405121953 711.447613242 c 0
 483 697.895226485 483 697.895226485 483 678 c 0
 483 669.927827299 483 669.927827299 479.490494756 659.399311567 c 2
 385.955939184 426 l 1
 449 426 l 2
 467.34840625 426 467.34840625 426 480.674203125 412.674203125 c 0
 494 399.34840625 494 399.34840625 494 381 c 2
 494 339 l 2
 494 320.65159375 494 320.65159375 480.674203125 307.325796875 c 0
 476.402388342 303.053982092 476.402388342 303.053982092 471.072579287 300 c 1
 476.402388342 296.946017908 476.402388342 296.946017908 480.674203125 292.674203125 c 0
 494 279.34840625 494 279.34840625 494 261 c 2
 494 219 l 2
 494 200.65159375 494 200.65159375 480.674203125 187.325796875 c 0
 467.34840625 174 467.34840625 174 449 174 c 2
 352 174 l 1
 352 20 l 2
 352 1.65159375 352 1.65159375 338.674203125 -11.674203125 c 0
 325.34840625 -25 325.34840625 -25 307 -25 c 2
 233 -25 l 2
 214.65159375 -25 214.65159375 -25 201.325796875 -11.674203125 c 0
 188 1.65159375 188 1.65159375 188 20 c 2
EndSplineSet
EndChar

StartChar: plus
Encoding: 43 43 107
Width: 668
GlyphClass: 1
Flags: W
LayerCount: 2
Fore
SplineSet
416 102 m 2
 416 83.65159375 416 83.65159375 402.674203125 70.325796875 c 0
 389.34840625 57 389.34840625 57 371 57 c 2
 299 57 l 2
 280.65159375 57 280.65159375 57 267.325796875 70.325796875 c 0
 254.073996996 83.5775967536 254.073996996 83.5775967536 254.000338776 101.832110361 c 2
 252.263108846 264.263108846 l 1
 89.8321103613 266.000338776 l 2
 71.5775967536 266.073996996 71.5775967536 266.073996996 58.325796875 279.325796875 c 0
 45 292.65159375 45 292.65159375 45 311 c 2
 45 383 l 2
 45 401.34840625 45 401.34840625 58.325796875 414.674203125 c 0
 71.65159375 428 71.65159375 428 90 428 c 2
 252.265922844 428 l 1
 254.000338776 590.167889639 l 2
 254.073996996 608.422403246 254.073996996 608.422403246 267.325796875 621.674203125 c 0
 280.65159375 635 280.65159375 635 299 635 c 2
 371 635 l 2
 389.34840625 635 389.34840625 635 402.674203125 621.674203125 c 0
 416 608.34840625 416 608.34840625 416 590 c 2
 416 428 l 1
 578 428 l 2
 596.34840625 428 596.34840625 428 609.674203125 414.674203125 c 0
 623 401.34840625 623 401.34840625 623 383 c 2
 623 311 l 2
 623 292.65159375 623 292.65159375 609.674203125 279.325796875 c 0
 596.422403246 266.073996996 596.422403246 266.073996996 578.167889639 266.000338776 c 2
 416 264.265922844 l 1
 416 102 l 2
EndSplineSet
EndChar

StartChar: minus
Encoding: 8722 8722 108
Width: 668
GlyphClass: 1
Flags: W
LayerCount: 2
Fore
SplineSet
45 309 m 2
 45 381 l 2
 45 399.34840625 45 399.34840625 58.325796875 412.674203125 c 0
 71.65159375 426 71.65159375 426 90 426 c 2
 578 426 l 2
 596.34840625 426 596.34840625 426 609.674203125 412.674203125 c 0
 623 399.34840625 623 399.34840625 623 381 c 2
 623 309 l 2
 623 290.65159375 623 290.65159375 609.674203125 277.325796875 c 0
 596.34840625 264 596.34840625 264 578 264 c 2
 90 264 l 2
 71.65159375 264 71.65159375 264 58.325796875 277.325796875 c 0
 45 290.65159375 45 290.65159375 45 309 c 2
EndSplineSet
EndChar

StartChar: multiply
Encoding: 215 215 109
Width: 593
GlyphClass: 1
Flags: W
LayerCount: 2
Fore
SplineSet
53 199 m 0
 53 217.244743376 53 217.244743376 66.2042953316 230.552227643 c 2
 179.980933364 346.934437539 l 1
 65.0031796464 463.667576809 l 1
 53 479.671816338 53 479.671816338 53 496.010111294 c 0
 53 512.34840625 53 512.34840625 66.325796875 525.674203125 c 2
 117.325796875 576.674203125 l 2
 130.65159375 590 130.65159375 590 149.5 590 c 0
 168.34840625 590 168.34840625 590 181.674203125 576.674203125 c 2
 296.133452393 462.214953857 l 1
 411.325796875 575.674203125 l 2
 424.65159375 589 424.65159375 589 443 589 c 0
 461.34666051 589 461.34666051 589 474.497005781 575.849654729 c 0
 474.668918504 575.679435683 474.668918504 575.679435683 525.024709071 526.312675001 c 0
 539.999999976 512.849946456 539.999999976 512.849946456 539.999999988 493.750898842 c 0
 540 474.651851228 540 474.651851228 525.606357338 460.258208566 c 0
 480.168419599 415.164642621 480.168419599 415.164642621 411.415721498 346.932684752 c 1
 525.674203125 232.674203125 l 2
 539 219.34840625 539 219.34840625 539 200.5 c 0
 539 181.65159375 539 181.65159375 525.674203125 168.325796875 c 2
 474.674203125 117.325796875 l 2
 461.34840625 104 461.34840625 104 443 104 c 0
 424.65261584 104 424.65261584 104 411.461225849 117.191389991 c 0
 411.344779062 117.306957947 411.344779062 117.306957947 296.066862071 230.850622526 c 1
 180.674203125 116.325796875 l 2
 167.34840625 103 167.34840625 103 149 103 c 0
 130.65159375 103 130.65159375 103 117.325796875 116.325796875 c 2
 66.325796875 167.325796875 l 2
 53 180.65159375 53 180.65159375 53 199 c 0
EndSplineSet
EndChar

StartChar: divide
Encoding: 247 247 110
Width: 668
GlyphClass: 1
Flags: W
LayerCount: 2
Fore
SplineSet
277.325796875 483.325796875 m 0
 253 507.65159375 253 507.65159375 253 542.5 c 0
 253 577.34840625 253 577.34840625 277.325796875 601.674203125 c 0
 301.65159375 626 301.65159375 626 336.5 626 c 0
 371.34840625 626 371.34840625 626 395.674203125 601.674203125 c 0
 420 577.34840625 420 577.34840625 420 542.5 c 0
 420 507.65159375 420 507.65159375 395.674203125 483.325796875 c 0
 371.34840625 459 371.34840625 459 336.5 459 c 0
 301.65159375 459 301.65159375 459 277.325796875 483.325796875 c 0
45 309 m 2
 45 381 l 2
 45 399.34840625 45 399.34840625 58.325796875 412.674203125 c 0
 71.65159375 426 71.65159375 426 90 426 c 2
 578 426 l 2
 596.34840625 426 596.34840625 426 609.674203125 412.674203125 c 0
 623 399.34840625 623 399.34840625 623 381 c 2
 623 309 l 2
 623 290.65159375 623 290.65159375 609.674203125 277.325796875 c 0
 596.34840625 264 596.34840625 264 578 264 c 2
 90 264 l 2
 71.65159375 264 71.65159375 264 58.325796875 277.325796875 c 0
 45 290.65159375 45 290.65159375 45 309 c 2
277.325796875 93.325796875 m 0
 253 117.65159375 253 117.65159375 253 152.5 c 0
 253 187.34840625 253 187.34840625 277.325796875 211.674203125 c 0
 301.65159375 236 301.65159375 236 336.5 236 c 0
 371.34840625 236 371.34840625 236 395.674203125 211.674203125 c 0
 420 187.34840625 420 187.34840625 420 152.5 c 0
 420 117.65159375 420 117.65159375 395.674203125 93.325796875 c 0
 371.34840625 69 371.34840625 69 336.5 69 c 0
 301.65159375 69 301.65159375 69 277.325796875 93.325796875 c 0
EndSplineSet
EndChar

StartChar: equal
Encoding: 61 61 111
Width: 668
GlyphClass: 1
Flags: W
LayerCount: 2
Fore
SplineSet
45 403 m 2
 45 475 l 2
 45 493.34840625 45 493.34840625 58.325796875 506.674203125 c 0
 71.65159375 520 71.65159375 520 90 520 c 2
 578 520 l 2
 596.34840625 520 596.34840625 520 609.674203125 506.674203125 c 0
 623 493.34840625 623 493.34840625 623 475 c 2
 623 403 l 2
 623 384.65159375 623 384.65159375 609.674203125 371.325796875 c 0
 596.34840625 358 596.34840625 358 578 358 c 2
 90 358 l 2
 71.65159375 358 71.65159375 358 58.325796875 371.325796875 c 0
 45 384.65159375 45 384.65159375 45 403 c 2
45 233 m 2
 45 305 l 2
 45 323.34840625 45 323.34840625 58.325796875 336.674203125 c 0
 71.65159375 350 71.65159375 350 90 350 c 2
 578 350 l 2
 596.34840625 350 596.34840625 350 609.674203125 336.674203125 c 0
 623 323.34840625 623 323.34840625 623 305 c 2
 623 233 l 2
 623 214.65159375 623 214.65159375 609.674203125 201.325796875 c 0
 596.34840625 188 596.34840625 188 578 188 c 2
 90 188 l 2
 71.65159375 188 71.65159375 188 58.325796875 201.325796875 c 0
 45 214.65159375 45 214.65159375 45 233 c 2
EndSplineSet
EndChar

